<ttFont>
    <TTGlyph name="A" xMin="-2" yMin="0" xMax="1216" yMax="1400">
      <contour>
        <pt x="666" y="1400" on="1"/>
        <pt x="1216" y="0" on="1"/>
        <pt x="1068" y="0" on="1"/>
        <pt x="864" y="520" on="1"/>
        <pt x="246" y="520" on="1"/>
        <pt x="52" y="0" on="1"/>
        <pt x="-2" y="0" on="1"/>
        <pt x="520" y="1400" on="1"/>
      </contour>
      <contour>
        <pt x="296" y="640" on="1"/>
        <pt x="818" y="640" on="1"/>
        <pt x="552" y="1326" on="1"/>
      </contour>
    </TTGlyph>
    <TTGlyph name="AE" xMin="-6" yMin="0" xMax="1552" yMax="1400">
      <contour>
        <pt x="1490" y="1400" on="1"/>
        <pt x="1538" y="1148" on="1"/>
        <pt x="1490" y="1148" on="1"/>
        <pt x="1472" y="1203" on="0"/>
        <pt x="1435" y="1271" on="0"/>
        <pt x="1370" y="1326" on="0"/>
        <pt x="1272" y="1350" on="0"/>
        <pt x="1200" y="1350" on="1"/>
        <pt x="714" y="1350" on="1"/>
        <pt x="784" y="762" on="1"/>
        <pt x="1398" y="762" on="1"/>
        <pt x="1398" y="658" on="1"/>
        <pt x="796" y="658" on="1"/>
        <pt x="860" y="120" on="1"/>
        <pt x="1552" y="120" on="1"/>
        <pt x="1552" y="0" on="1"/>
        <pt x="728" y="0" on="1"/>
        <pt x="666" y="520" on="1"/>
        <pt x="260" y="520" on="1"/>
        <pt x="50" y="0" on="1"/>
        <pt x="-6" y="0" on="1"/>
        <pt x="566" y="1400" on="1"/>
      </contour>
      <contour>
        <pt x="304" y="624" on="1"/>
        <pt x="654" y="624" on="1"/>
        <pt x="576" y="1298" on="1"/>
      </contour>
    </TTGlyph>
    <TTGlyph name="Aacute" xMin="0" yMin="0" xMax="1218" yMax="1792">
      <component glyphName="acute" x="116" y="454" flags="0x1004"/>
      <component glyphName="A" x="2" y="0" flags="0x1004"/>
    </TTGlyph>
    <TTGlyph name="Acircumflex" xMin="-2" yMin="0" xMax="1216" yMax="1758">
      <component glyphName="circumflex" x="175" y="464" flags="0x1004"/>
      <component glyphName="A" x="0" y="0" flags="0x1004"/>
    </TTGlyph>
    <TTGlyph name="Adieresis" xMin="0" yMin="0" xMax="1218" yMax="1670">
      <component glyphName="dieresis" x="145" y="445" flags="0x1004"/>
      <component glyphName="A" x="2" y="0" flags="0x1004"/>
    </TTGlyph>
    <TTGlyph name="Agrave" xMin="0" yMin="0" xMax="1218" yMax="1792">
      <component glyphName="grave" x="201" y="452" flags="0x1004"/>
      <component glyphName="A" x="2" y="0" flags="0x1004"/>
    </TTGlyph>
    <TTGlyph name="Aring" xMin="-2" yMin="0" xMax="1216" yMax="1826">
      <component glyphName="ring" x="170" y="522" flags="0x1004"/>
      <component glyphName="A" x="0" y="0" flags="0x1004"/>
    </TTGlyph>
    <TTGlyph name="Atilde" xMin="-2" yMin="0" xMax="1216" yMax="1776">
      <component glyphName="tilde" x="152" y="522" flags="0x1004"/>
      <component glyphName="A" x="0" y="0" flags="0x1004"/>
    </TTGlyph>
    <TTGlyph name="B" xMin="216" yMin="0" xMax="1204" yMax="1400">
      <contour>
        <pt x="216" y="0" on="1"/>
        <pt x="216" y="1400" on="1"/>
        <pt x="646" y="1400" on="1"/>
        <pt x="871" y="1400" on="0"/>
        <pt x="1110" y="1227" on="0"/>
        <pt x="1110" y="1066" on="1"/>
        <pt x="1110" y="931" on="0"/>
        <pt x="931" y="747" on="0"/>
        <pt x="812" y="718" on="1"/>
        <pt x="1204" y="693" on="0"/>
        <pt x="1204" y="370" on="1"/>
        <pt x="1204" y="272" on="0"/>
        <pt x="1126" y="126" on="0"/>
        <pt x="985" y="41" on="0"/>
        <pt x="807" y="0" on="0"/>
        <pt x="698" y="0" on="1"/>
      </contour>
      <contour>
        <pt x="336" y="680" on="1"/>
        <pt x="336" y="120" on="1"/>
        <pt x="676" y="120" on="1"/>
        <pt x="885" y="120" on="0"/>
        <pt x="1074" y="256" on="0"/>
        <pt x="1074" y="400" on="1"/>
        <pt x="1074" y="545" on="0"/>
        <pt x="888" y="680" on="0"/>
        <pt x="666" y="680" on="1"/>
      </contour>
      <contour>
        <pt x="336" y="730" on="1"/>
        <pt x="600" y="730" on="1"/>
        <pt x="703" y="730" on="0"/>
        <pt x="856" y="777" on="0"/>
        <pt x="940" y="857" on="0"/>
        <pt x="980" y="953" on="0"/>
        <pt x="980" y="1008" on="1"/>
        <pt x="980" y="1140" on="0"/>
        <pt x="823" y="1280" on="0"/>
        <pt x="634" y="1280" on="1"/>
        <pt x="336" y="1280" on="1"/>
      </contour>
    </TTGlyph>
    <TTGlyph name="C" xMin="92" yMin="-28" xMax="1262" yMax="1432">
      <contour>
        <pt x="1150" y="354" on="1"/>
        <pt x="1150" y="354" on="0"/>
        <pt x="1262" y="294" on="1"/>
        <pt x="1253" y="276" on="1"/>
        <pt x="1244" y="258" on="0"/>
        <pt x="1202" y="202" on="0"/>
        <pt x="1143" y="133" on="0"/>
        <pt x="1052" y="64" on="0"/>
        <pt x="945" y="8" on="0"/>
        <pt x="798" y="-28" on="0"/>
        <pt x="718" y="-28" on="1"/>
        <pt x="624" y="-28" on="0"/>
        <pt x="444" y="34" on="0"/>
        <pt x="284" y="160" on="0"/>
        <pt x="163" y="336" on="0"/>
        <pt x="92" y="580" on="0"/>
        <pt x="92" y="720" on="1"/>
        <pt x="92" y="884" on="0"/>
        <pt x="201" y="1159" on="0"/>
        <pt x="381" y="1335" on="0"/>
        <pt x="604" y="1432" on="0"/>
        <pt x="722" y="1432" on="1"/>
        <pt x="806" y="1432" on="0"/>
        <pt x="960" y="1401" on="0"/>
        <pt x="1053" y="1364" on="0"/>
        <pt x="1134" y="1315" on="0"/>
        <pt x="1156" y="1296" on="0"/>
        <pt x="1162" y="1290" on="1"/>
        <pt x="1192" y="1044" on="1"/>
        <pt x="1134" y="1044" on="1"/>
        <pt x="1121" y="1107" on="0"/>
        <pt x="1057" y="1222" on="0"/>
        <pt x="1007" y="1271" on="1"/>
        <pt x="963" y="1314" on="0"/>
        <pt x="882" y="1350" on="1"/>
        <pt x="812" y="1381" on="0"/>
        <pt x="718" y="1381" on="1"/>
        <pt x="622" y="1381" on="0"/>
        <pt x="450" y="1301" on="0"/>
        <pt x="302" y="1148" on="0"/>
        <pt x="222" y="907" on="0"/>
        <pt x="222" y="762" on="1"/>
        <pt x="222" y="476" on="0"/>
        <pt x="511" y="102" on="0"/>
        <pt x="736" y="102" on="1"/>
        <pt x="793" y="102" on="0"/>
        <pt x="901" y="130" on="0"/>
        <pt x="981" y="174" on="0"/>
        <pt x="1052" y="229" on="0"/>
        <pt x="1099" y="282" on="0"/>
        <pt x="1134" y="328" on="0"/>
        <pt x="1142" y="341" on="1"/>
      </contour>
    </TTGlyph>
    <TTGlyph name="Ccedilla" xMin="92" yMin="-380" xMax="1262" yMax="1432">
      <contour>
        <pt x="1150" y="354" on="1"/>
        <pt x="1262" y="294" on="1"/>
        <pt x="1253" y="276" on="1"/>
        <pt x="1244" y="258" on="0"/>
        <pt x="1202" y="202" on="0"/>
        <pt x="1143" y="133" on="0"/>
        <pt x="1052" y="64" on="0"/>
        <pt x="945" y="8" on="0"/>
        <pt x="798" y="-28" on="0"/>
        <pt x="718" y="-28" on="1"/>
        <pt x="680" y="-28" on="0"/>
        <pt x="644" y="-23" on="1"/>
        <pt x="635" y="-80" on="1"/>
        <pt x="647" y="-86" on="1"/>
        <pt x="659" y="-92" on="0"/>
        <pt x="693" y="-118" on="0"/>
        <pt x="727" y="-152" on="0"/>
        <pt x="751" y="-202" on="0"/>
        <pt x="751" y="-228" on="1"/>
        <pt x="751" y="-259" on="0"/>
        <pt x="720" y="-314" on="0"/>
        <pt x="682" y="-346" on="0"/>
        <pt x="632" y="-372" on="0"/>
        <pt x="622" y="-375" on="1"/>
        <pt x="607" y="-380" on="1"/>
        <pt x="585" y="-348" on="1"/>
        <pt x="604" y="-341" on="1"/>
        <pt x="623" y="-334" on="0"/>
        <pt x="642" y="-310" on="1"/>
        <pt x="661" y="-287" on="0"/>
        <pt x="661" y="-254" on="1"/>
        <pt x="661" y="-236" on="0"/>
        <pt x="644" y="-201" on="0"/>
        <pt x="623" y="-179" on="0"/>
        <pt x="595" y="-159" on="0"/>
        <pt x="584" y="-154" on="0"/>
        <pt x="581" y="-152" on="1"/>
        <pt x="581" y="-150" on="0"/>
        <pt x="604" y="-16" on="1"/>
        <pt x="569" y="-9" on="0"/>
        <pt x="534" y="3" on="1"/>
        <pt x="444" y="34" on="0"/>
        <pt x="284" y="160" on="0"/>
        <pt x="224" y="248" on="1"/>
        <pt x="163" y="336" on="0"/>
        <pt x="92" y="580" on="0"/>
        <pt x="92" y="720" on="1"/>
        <pt x="92" y="884" on="0"/>
        <pt x="201" y="1159" on="0"/>
        <pt x="381" y="1335" on="0"/>
        <pt x="604" y="1432" on="0"/>
        <pt x="722" y="1432" on="1"/>
        <pt x="806" y="1432" on="0"/>
        <pt x="960" y="1401" on="0"/>
        <pt x="1053" y="1364" on="0"/>
        <pt x="1134" y="1315" on="0"/>
        <pt x="1156" y="1296" on="0"/>
        <pt x="1162" y="1290" on="1"/>
        <pt x="1192" y="1044" on="1"/>
        <pt x="1134" y="1044" on="1"/>
        <pt x="1121" y="1107" on="0"/>
        <pt x="1057" y="1222" on="0"/>
        <pt x="1007" y="1271" on="1"/>
        <pt x="963" y="1314" on="0"/>
        <pt x="882" y="1350" on="1"/>
        <pt x="812" y="1381" on="0"/>
        <pt x="718" y="1381" on="1"/>
        <pt x="622" y="1381" on="0"/>
        <pt x="450" y="1301" on="0"/>
        <pt x="302" y="1148" on="0"/>
        <pt x="262" y="1028" on="1"/>
        <pt x="222" y="907" on="0"/>
        <pt x="222" y="762" on="1"/>
        <pt x="222" y="476" on="0"/>
        <pt x="366" y="289" on="1"/>
        <pt x="511" y="102" on="0"/>
        <pt x="736" y="102" on="1"/>
        <pt x="793" y="102" on="0"/>
        <pt x="901" y="130" on="0"/>
        <pt x="981" y="174" on="0"/>
        <pt x="1052" y="229" on="0"/>
        <pt x="1099" y="282" on="0"/>
        <pt x="1134" y="328" on="0"/>
        <pt x="1142" y="341" on="1"/>
      </contour>
    </TTGlyph>
    <TTGlyph name="D" xMin="216" yMin="0" xMax="1312" yMax="1400">
      <contour>
        <pt x="216" y="1400" on="1"/>
        <pt x="590" y="1400" on="1"/>
        <pt x="957" y="1400" on="0"/>
        <pt x="1312" y="1040" on="0"/>
        <pt x="1312" y="700" on="1"/>
        <pt x="1312" y="363" on="0"/>
        <pt x="948" y="0" on="0"/>
        <pt x="632" y="0" on="1"/>
        <pt x="216" y="0" on="1"/>
      </contour>
      <contour>
        <pt x="336" y="1348" on="1"/>
        <pt x="336" y="208" on="1"/>
        <pt x="336" y="113" on="0"/>
        <pt x="410" y="50" on="0"/>
        <pt x="526" y="50" on="1"/>
        <pt x="606" y="50" on="1"/>
        <pt x="751" y="50" on="0"/>
        <pt x="965" y="142" on="0"/>
        <pt x="1095" y="315" on="0"/>
        <pt x="1158" y="550" on="0"/>
        <pt x="1158" y="700" on="1"/>
        <pt x="1158" y="817" on="0"/>
        <pt x="1124" y="1005" on="0"/>
        <pt x="1040" y="1172" on="0"/>
        <pt x="904" y="1283" on="0"/>
        <pt x="692" y="1348" on="0"/>
        <pt x="552" y="1348" on="1"/>
      </contour>
    </TTGlyph>
    <TTGlyph name="E" xMin="196" yMin="0" xMax="1152" yMax="1400">
      <contour>
        <pt x="196" y="1400" on="1"/>
        <pt x="1090" y="1400" on="1"/>
        <pt x="1138" y="1148" on="1"/>
        <pt x="1090" y="1148" on="1"/>
        <pt x="1072" y="1203" on="0"/>
        <pt x="1035" y="1271" on="0"/>
        <pt x="970" y="1326" on="0"/>
        <pt x="872" y="1350" on="0"/>
        <pt x="800" y="1350" on="1"/>
        <pt x="318" y="1350" on="1"/>
        <pt x="318" y="762" on="1"/>
        <pt x="998" y="762" on="1"/>
        <pt x="998" y="658" on="1"/>
        <pt x="318" y="658" on="1"/>
        <pt x="318" y="120" on="1"/>
        <pt x="1152" y="120" on="1"/>
        <pt x="1152" y="0" on="1"/>
        <pt x="196" y="0" on="1"/>
      </contour>
    </TTGlyph>
    <TTGlyph name="Eacute" xMin="198" yMin="0" xMax="1154" yMax="1794">
      <component glyphName="acute" x="152" y="456" flags="0x1004"/>
      <component glyphName="E" x="2" y="0" flags="0x1004"/>
    </TTGlyph>
    <TTGlyph name="Ecircumflex" xMin="196" yMin="0" xMax="1152" yMax="1754">
      <component glyphName="circumflex" x="228" y="460" flags="0x1004"/>
      <component glyphName="E" x="0" y="0" flags="0x1004"/>
    </TTGlyph>
    <TTGlyph name="Edieresis" xMin="198" yMin="0" xMax="1154" yMax="1685">
      <component glyphName="dieresis" x="228" y="460" flags="0x1004"/>
      <component glyphName="E" x="2" y="0" flags="0x1004"/>
    </TTGlyph>
    <TTGlyph name="Egrave" xMin="196" yMin="0" xMax="1152" yMax="1792">
      <component glyphName="grave" x="232" y="452" flags="0x1004"/>
      <component glyphName="E" x="0" y="0" flags="0x1004"/>
    </TTGlyph>
    <TTGlyph name="Eth" xMin="2" yMin="0" xMax="1312" yMax="1400">
      <contour>
        <pt x="2" y="658" on="1"/>
        <pt x="2" y="762" on="1"/>
        <pt x="216" y="762" on="1"/>
        <pt x="216" y="1400" on="1"/>
        <pt x="590" y="1400" on="1"/>
        <pt x="965" y="1400" on="0"/>
        <pt x="1312" y="1042" on="0"/>
        <pt x="1312" y="700" on="1"/>
        <pt x="1312" y="363" on="0"/>
        <pt x="948" y="0" on="0"/>
        <pt x="632" y="0" on="1"/>
        <pt x="216" y="0" on="1"/>
        <pt x="216" y="658" on="1"/>
      </contour>
      <contour>
        <pt x="336" y="1348" on="1"/>
        <pt x="336" y="762" on="1"/>
        <pt x="682" y="762" on="1"/>
        <pt x="682" y="658" on="1"/>
        <pt x="336" y="658" on="1"/>
        <pt x="336" y="208" on="1"/>
        <pt x="336" y="113" on="0"/>
        <pt x="410" y="50" on="0"/>
        <pt x="526" y="50" on="1"/>
        <pt x="606" y="50" on="1"/>
        <pt x="751" y="50" on="0"/>
        <pt x="965" y="142" on="0"/>
        <pt x="1095" y="315" on="0"/>
        <pt x="1158" y="550" on="0"/>
        <pt x="1158" y="700" on="1"/>
        <pt x="1158" y="818" on="0"/>
        <pt x="1122" y="1009" on="0"/>
        <pt x="1035" y="1174" on="0"/>
        <pt x="898" y="1285" on="0"/>
        <pt x="688" y="1348" on="0"/>
        <pt x="552" y="1348" on="1"/>
      </contour>
    </TTGlyph>
    <TTGlyph name="F" xMin="196" yMin="0" xMax="1100" yMax="1400">
      <contour>
        <pt x="196" y="1400" on="1"/>
        <pt x="1050" y="1400" on="1"/>
        <pt x="1100" y="1148" on="1"/>
        <pt x="1052" y="1148" on="1"/>
        <pt x="1034" y="1203" on="0"/>
        <pt x="997" y="1271" on="0"/>
        <pt x="932" y="1326" on="0"/>
        <pt x="834" y="1350" on="0"/>
        <pt x="762" y="1350" on="1"/>
        <pt x="762" y="1350" on="0"/>
        <pt x="316" y="1350" on="1"/>
        <pt x="316" y="762" on="1"/>
        <pt x="870" y="762" on="1"/>
        <pt x="870" y="660" on="1"/>
        <pt x="316" y="660" on="1"/>
        <pt x="316" y="0" on="1"/>
        <pt x="196" y="0" on="1"/>
      </contour>
    </TTGlyph>
    <TTGlyph name="G" xMin="100" yMin="-16" xMax="1240" yMax="1432">
      <contour>
        <pt x="688" y="576" on="1"/>
        <pt x="688" y="680" on="1"/>
        <pt x="1240" y="680" on="1"/>
        <pt x="1240" y="0" on="1"/>
        <pt x="1142" y="0" on="1"/>
        <pt x="1120" y="162" on="1"/>
        <pt x="1053" y="88" on="0"/>
        <pt x="851" y="-16" on="0"/>
        <pt x="716" y="-16" on="1"/>
        <pt x="622" y="-16" on="0"/>
        <pt x="444" y="42" on="0"/>
        <pt x="287" y="163" on="0"/>
        <pt x="169" y="333" on="0"/>
        <pt x="100" y="574" on="0"/>
        <pt x="100" y="714" on="1"/>
        <pt x="100" y="878" on="0"/>
        <pt x="208" y="1155" on="0"/>
        <pt x="385" y="1333" on="0"/>
        <pt x="603" y="1432" on="0"/>
        <pt x="716" y="1432" on="1"/>
        <pt x="802" y="1432" on="0"/>
        <pt x="959" y="1401" on="0"/>
        <pt x="1055" y="1364" on="0"/>
        <pt x="1139" y="1315" on="0"/>
        <pt x="1162" y="1296" on="0"/>
        <pt x="1168" y="1290" on="1"/>
        <pt x="1198" y="1044" on="1"/>
        <pt x="1140" y="1044" on="1"/>
        <pt x="1128" y="1101" on="0"/>
        <pt x="1096" y="1158" on="1"/>
        <pt x="1068" y="1208" on="0"/>
        <pt x="974" y="1312" on="0"/>
        <pt x="810" y="1382" on="0"/>
        <pt x="718" y="1382" on="1"/>
        <pt x="627" y="1382" on="0"/>
        <pt x="539" y="1340" on="1"/>
        <pt x="449" y="1297" on="0"/>
        <pt x="382" y="1223" on="1"/>
        <pt x="312" y="1145" on="0"/>
        <pt x="271" y="1028" on="1"/>
        <pt x="230" y="908" on="0"/>
        <pt x="230" y="762" on="1"/>
        <pt x="230" y="472" on="0"/>
        <pt x="515" y="114" on="0"/>
        <pt x="746" y="114" on="1"/>
        <pt x="832" y="114" on="0"/>
        <pt x="978" y="172" on="0"/>
        <pt x="1069" y="261" on="0"/>
        <pt x="1120" y="363" on="0"/>
        <pt x="1120" y="410" on="1"/>
        <pt x="1120" y="576" on="1"/>
      </contour>
    </TTGlyph>
    <TTGlyph name="H" xMin="220" yMin="0" xMax="1346" yMax="1400">
      <contour>
        <pt x="1212" y="1400" on="1"/>
        <pt x="1346" y="1400" on="1"/>
        <pt x="1346" y="0" on="1"/>
        <pt x="1212" y="0" on="1"/>
        <pt x="1212" y="680" on="1"/>
        <pt x="356" y="680" on="1"/>
        <pt x="356" y="0" on="1"/>
        <pt x="220" y="0" on="1"/>
        <pt x="220" y="1400" on="1"/>
        <pt x="356" y="1400" on="1"/>
        <pt x="356" y="730" on="1"/>
        <pt x="1212" y="730" on="1"/>
      </contour>
    </TTGlyph>
    <TTGlyph name="I" xMin="230" yMin="0" xMax="360" yMax="1400">
      <contour>
        <pt x="230" y="1400" on="1"/>
        <pt x="360" y="1400" on="1"/>
        <pt x="360" y="0" on="1"/>
        <pt x="230" y="0" on="1"/>
      </contour>
    </TTGlyph>
    <TTGlyph name="Iacute" xMin="164" yMin="0" xMax="458" yMax="1790">
      <component glyphName="acute" x="-188" y="452" flags="0x1004"/>
      <component glyphName="I" x="8" y="0" flags="0x1004"/>
    </TTGlyph>
    <TTGlyph name="Icircumflex" xMin="58" yMin="0" xMax="536" yMax="1762">
      <component glyphName="circumflex" x="-120" y="468" flags="0x1004"/>
      <component glyphName="I" x="0" y="0" flags="0x1004"/>
    </TTGlyph>
    <TTGlyph name="Idieresis" xMin="94" yMin="0" xMax="518" yMax="1691">
      <component glyphName="dieresis" x="-124" y="466" flags="0x1004"/>
      <component glyphName="I" x="0" y="0" flags="0x1004"/>
    </TTGlyph>
    <TTGlyph name="Igrave" xMin="150" yMin="0" xMax="444" yMax="1862">
      <component glyphName="grave" x="-92" y="522" flags="0x1004"/>
      <component glyphName="I" x="0" y="0" flags="0x1004"/>
    </TTGlyph>
    <TTGlyph name="J" xMin="86" yMin="-404" xMax="374" yMax="1400">
      <contour>
        <pt x="374" y="1400" on="1"/>
        <pt x="374" y="140" on="1"/>
        <pt x="374" y="-143" on="0"/>
        <pt x="241" y="-404" on="0"/>
        <pt x="86" y="-404" on="1"/>
        <pt x="86" y="-358" on="1"/>
        <pt x="182" y="-358" on="0"/>
        <pt x="246" y="-189" on="0"/>
        <pt x="246" y="46" on="1"/>
        <pt x="246" y="1400" on="1"/>
      </contour>
    </TTGlyph>
    <TTGlyph name="K" xMin="212" yMin="0" xMax="1316" yMax="1400">
      <contour>
        <pt x="212" y="1400" on="1"/>
        <pt x="338" y="1400" on="1"/>
        <pt x="338" y="652" on="1"/>
        <pt x="1004" y="1400" on="1"/>
        <pt x="1214" y="1400" on="1"/>
        <pt x="1214" y="1342" on="1"/>
        <pt x="1106" y="1342" on="0"/>
        <pt x="992" y="1300" on="0"/>
        <pt x="920" y="1220" on="1"/>
        <pt x="598" y="860" on="1"/>
        <pt x="1316" y="0" on="1"/>
        <pt x="1134" y="0" on="1"/>
        <pt x="500" y="750" on="1"/>
        <pt x="338" y="570" on="1"/>
        <pt x="338" y="0" on="1"/>
        <pt x="212" y="0" on="1"/>
      </contour>
    </TTGlyph>
    <TTGlyph name="L" xMin="220" yMin="0" xMax="1086" yMax="1400">
      <contour>
        <pt x="220" y="0" on="1"/>
        <pt x="220" y="1400" on="1"/>
        <pt x="342" y="1400" on="1"/>
        <pt x="342" y="50" on="1"/>
        <pt x="732" y="50" on="1"/>
        <pt x="792" y="50" on="0"/>
        <pt x="889" y="78" on="0"/>
        <pt x="947" y="117" on="0"/>
        <pt x="994" y="176" on="0"/>
        <pt x="1014" y="218" on="0"/>
        <pt x="1024" y="246" on="1"/>
        <pt x="1086" y="246" on="1"/>
        <pt x="1006" y="0" on="1"/>
      </contour>
    </TTGlyph>
    <TTGlyph name="M" xMin="174" yMin="0" xMax="1696" yMax="1400">
      <contour>
        <pt x="174" y="0" on="1"/>
        <pt x="302" y="1142" on="1"/>
        <pt x="312" y="1233" on="0"/>
        <pt x="313" y="1280" on="1"/>
        <pt x="314" y="1324" on="0"/>
        <pt x="293" y="1339" on="1"/>
        <pt x="278" y="1350" on="0"/>
        <pt x="221" y="1350" on="1"/>
        <pt x="213" y="1350" on="0"/>
        <pt x="202" y="1350" on="1"/>
        <pt x="202" y="1400" on="1"/>
        <pt x="494" y="1400" on="1"/>
        <pt x="956" y="218" on="1"/>
        <pt x="1388" y="1400" on="1"/>
        <pt x="1536" y="1400" on="1"/>
        <pt x="1696" y="0" on="1"/>
        <pt x="1548" y="0" on="1"/>
        <pt x="1400" y="1276" on="1"/>
        <pt x="936" y="0" on="1"/>
        <pt x="888" y="0" on="1"/>
        <pt x="376" y="1312" on="1"/>
        <pt x="228" y="0" on="1"/>
      </contour>
    </TTGlyph>
    <TTGlyph name="N" xMin="110" yMin="-2" xMax="1332" yMax="1400">
      <contour>
        <pt x="110" y="1400" on="1"/>
        <pt x="392" y="1400" on="1"/>
        <pt x="1208" y="238" on="1"/>
        <pt x="1208" y="1400" on="1"/>
        <pt x="1332" y="1400" on="1"/>
        <pt x="1332" y="0" on="1"/>
        <pt x="1206" y="0" on="1"/>
        <pt x="280" y="1318" on="1"/>
        <pt x="280" y="-2" on="1"/>
        <pt x="226" y="0" on="1"/>
        <pt x="226" y="1222" on="1"/>
        <pt x="226" y="1234" on="0"/>
        <pt x="227" y="1270" on="0"/>
        <pt x="227" y="1286" on="0"/>
        <pt x="225" y="1311" on="0"/>
        <pt x="220" y="1320" on="0"/>
        <pt x="209" y="1335" on="0"/>
        <pt x="192" y="1339" on="0"/>
        <pt x="167" y="1346" on="0"/>
        <pt x="133" y="1348" on="0"/>
        <pt x="110" y="1348" on="1"/>
      </contour>
    </TTGlyph>
    <TTGlyph name="Ntilde" xMin="110" yMin="-2" xMax="1332" yMax="1776">
      <component glyphName="tilde" x="320" y="522" flags="0x1004"/>
      <component glyphName="N" x="0" y="0" flags="0x1004"/>
    </TTGlyph>
    <TTGlyph name="O" xMin="104" yMin="-38" xMax="1396" yMax="1440">
      <contour>
        <pt x="748" y="1440" on="1"/>
        <pt x="875" y="1440" on="0"/>
        <pt x="1107" y="1343" on="0"/>
        <pt x="1288" y="1166" on="0"/>
        <pt x="1396" y="892" on="0"/>
        <pt x="1396" y="728" on="1"/>
        <pt x="1396" y="578" on="0"/>
        <pt x="1326" y="325" on="0"/>
        <pt x="1205" y="147" on="0"/>
        <pt x="1042" y="22" on="0"/>
        <pt x="855" y="-38" on="0"/>
        <pt x="754" y="-38" on="1"/>
        <pt x="624" y="-38" on="0"/>
        <pt x="393" y="58" on="0"/>
        <pt x="211" y="243" on="0"/>
        <pt x="104" y="542" on="0"/>
        <pt x="104" y="730" on="1"/>
        <pt x="104" y="893" on="0"/>
        <pt x="212" y="1166" on="0"/>
        <pt x="392" y="1343" on="0"/>
        <pt x="623" y="1440" on="0"/>
      </contour>
      <contour>
        <pt x="752" y="1310" on="1"/>
        <pt x="647" y="1310" on="0"/>
        <pt x="459" y="1217" on="0"/>
        <pt x="317" y="1051" on="0"/>
        <pt x="234" y="804" on="0"/>
        <pt x="234" y="658" on="1"/>
        <pt x="234" y="504" on="0"/>
        <pt x="305" y="266" on="0"/>
        <pt x="412" y="128" on="0"/>
        <pt x="557" y="40" on="0"/>
        <pt x="684" y="10" on="0"/>
        <pt x="750" y="10" on="1"/>
        <pt x="798" y="10" on="0"/>
        <pt x="888" y="23" on="0"/>
        <pt x="994" y="61" on="0"/>
        <pt x="1084" y="121" on="0"/>
        <pt x="1170" y="222" on="0"/>
        <pt x="1230" y="354" on="0"/>
        <pt x="1266" y="543" on="0"/>
        <pt x="1266" y="658" on="1"/>
        <pt x="1266" y="803" on="0"/>
        <pt x="1182" y="1051" on="0"/>
        <pt x="1041" y="1217" on="0"/>
        <pt x="855" y="1310" on="0"/>
      </contour>
    </TTGlyph>
    <TTGlyph name="Oacute" xMin="104" yMin="-38" xMax="1396" yMax="1790">
      <component glyphName="acute" x="276" y="452" flags="0x1004"/>
      <component glyphName="O" x="0" y="0" flags="0x1004"/>
    </TTGlyph>
    <TTGlyph name="Ocircumflex" xMin="104" yMin="-38" xMax="1396" yMax="1759">
      <component glyphName="circumflex" x="333" y="465" flags="0x1004"/>
      <component glyphName="O" x="0" y="0" flags="0x1004"/>
    </TTGlyph>
    <TTGlyph name="Odieresis" xMin="104" yMin="-38" xMax="1396" yMax="1681">
      <component glyphName="dieresis" x="315" y="456" flags="0x1004"/>
      <component glyphName="O" x="0" y="0" flags="0x1004"/>
    </TTGlyph>
    <TTGlyph name="Ograve" xMin="104" yMin="-38" xMax="1396" yMax="1862">
      <component glyphName="grave" x="360" y="522" flags="0x1004"/>
      <component glyphName="O" x="0" y="0" flags="0x1004"/>
    </TTGlyph>
    <TTGlyph name="Oslash" xMin="104" yMin="-152" xMax="1396" yMax="1502">
      <contour>
        <pt x="1096" y="1502" on="1"/>
        <pt x="1242" y="1502" on="1"/>
        <pt x="1147" y="1299" on="1"/>
        <pt x="1173" y="1278" on="0"/>
        <pt x="1198" y="1254" on="1"/>
        <pt x="1287" y="1169" on="0"/>
        <pt x="1342" y="1029" on="1"/>
        <pt x="1396" y="892" on="0"/>
        <pt x="1396" y="728" on="1"/>
        <pt x="1396" y="578" on="0"/>
        <pt x="1326" y="325" on="0"/>
        <pt x="1205" y="147" on="0"/>
        <pt x="1042" y="22" on="0"/>
        <pt x="855" y="-38" on="0"/>
        <pt x="754" y="-38" on="1"/>
        <pt x="641" y="-38" on="0"/>
        <pt x="538" y="-2" on="1"/>
        <pt x="468" y="-152" on="1"/>
        <pt x="322" y="-152" on="1"/>
        <pt x="419" y="56" on="1"/>
        <pt x="354" y="96" on="0"/>
        <pt x="302" y="150" on="1"/>
        <pt x="210" y="245" on="0"/>
        <pt x="158" y="392" on="1"/>
        <pt x="104" y="543" on="0"/>
        <pt x="104" y="730" on="1"/>
        <pt x="104" y="893" on="0"/>
        <pt x="212" y="1166" on="0"/>
        <pt x="392" y="1343" on="0"/>
        <pt x="623" y="1440" on="0"/>
        <pt x="748" y="1440" on="1"/>
        <pt x="885" y="1440" on="0"/>
        <pt x="991" y="1392" on="1"/>
        <pt x="1013" y="1382" on="0"/>
        <pt x="1035" y="1371" on="1"/>
      </contour>
      <contour>
        <pt x="752" y="1310" on="1"/>
        <pt x="647" y="1310" on="0"/>
        <pt x="459" y="1217" on="0"/>
        <pt x="317" y="1051" on="0"/>
        <pt x="234" y="804" on="0"/>
        <pt x="234" y="658" on="1"/>
        <pt x="234" y="501" on="0"/>
        <pt x="268" y="385" on="1"/>
        <pt x="300" y="274" on="0"/>
        <pt x="358" y="196" on="1"/>
        <pt x="394" y="147" on="0"/>
        <pt x="445" y="111" on="1"/>
        <pt x="977" y="1248" on="1"/>
        <pt x="963" y="1256" on="0"/>
        <pt x="948" y="1264" on="1"/>
        <pt x="855" y="1310" on="0"/>
      </contour>
      <contour>
        <pt x="1084" y="1164" on="1"/>
        <pt x="560" y="45" on="1"/>
        <pt x="591" y="32" on="0"/>
        <pt x="620" y="25" on="1"/>
        <pt x="684" y="10" on="0"/>
        <pt x="750" y="10" on="1"/>
        <pt x="798" y="10" on="0"/>
        <pt x="888" y="23" on="0"/>
        <pt x="994" y="61" on="0"/>
        <pt x="1084" y="121" on="0"/>
        <pt x="1170" y="222" on="0"/>
        <pt x="1230" y="354" on="0"/>
        <pt x="1266" y="543" on="0"/>
        <pt x="1266" y="658" on="1"/>
        <pt x="1266" y="804" on="0"/>
        <pt x="1182" y="1050" on="0"/>
        <pt x="1112" y="1134" on="1"/>
        <pt x="1098" y="1150" on="0"/>
      </contour>
    </TTGlyph>
    <TTGlyph name="Otilde" xMin="104" yMin="-38" xMax="1396" yMax="1704">
      <component glyphName="tilde" x="303" y="450" flags="0x1004"/>
      <component glyphName="O" x="0" y="0" flags="0x1004"/>
    </TTGlyph>
    <TTGlyph name="P" xMin="218" yMin="0" xMax="1156" yMax="1400">
      <contour>
        <pt x="218" y="1400" on="1"/>
        <pt x="692" y="1400" on="1"/>
        <pt x="815" y="1400" on="0"/>
        <pt x="999" y="1339" on="0"/>
        <pt x="1105" y="1231" on="0"/>
        <pt x="1156" y="1096" on="0"/>
        <pt x="1156" y="1014" on="1"/>
        <pt x="1156" y="913" on="0"/>
        <pt x="1088" y="755" on="0"/>
        <pt x="986" y="662" on="0"/>
        <pt x="850" y="603" on="0"/>
        <pt x="731" y="582" on="0"/>
        <pt x="672" y="582" on="1"/>
        <pt x="588" y="582" on="0"/>
        <pt x="415" y="614" on="0"/>
        <pt x="358" y="634" on="0"/>
        <pt x="342" y="640" on="1"/>
        <pt x="342" y="0" on="1"/>
        <pt x="218" y="0" on="1"/>
      </contour>
      <contour>
        <pt x="342" y="1282" on="1"/>
        <pt x="342" y="698" on="1"/>
        <pt x="384" y="683" on="1"/>
        <pt x="427" y="668" on="0"/>
        <pt x="578" y="638" on="0"/>
        <pt x="644" y="638" on="1"/>
        <pt x="720" y="638" on="0"/>
        <pt x="850" y="674" on="0"/>
        <pt x="961" y="750" on="0"/>
        <pt x="1024" y="885" on="0"/>
        <pt x="1024" y="976" on="1"/>
        <pt x="1024" y="1282" on="0"/>
        <pt x="640" y="1282" on="1"/>
      </contour>
    </TTGlyph>
    <TTGlyph name="Q" xMin="104" yMin="-446" xMax="1608" yMax="1440">
      <contour>
        <pt x="748" y="1440" on="1"/>
        <pt x="875" y="1440" on="0"/>
        <pt x="1107" y="1343" on="0"/>
        <pt x="1288" y="1166" on="0"/>
        <pt x="1396" y="892" on="0"/>
        <pt x="1396" y="728" on="1"/>
        <pt x="1396" y="578" on="0"/>
        <pt x="1326" y="325" on="0"/>
        <pt x="1205" y="147" on="0"/>
        <pt x="1042" y="22" on="0"/>
        <pt x="855" y="-38" on="0"/>
        <pt x="754" y="-38" on="1"/>
        <pt x="705" y="-38" on="0"/>
        <pt x="649" y="-30" on="1"/>
        <pt x="723" y="-64" on="0"/>
        <pt x="954" y="-186" on="0"/>
        <pt x="1100" y="-260" on="0"/>
        <pt x="1290" y="-320" on="0"/>
        <pt x="1370" y="-320" on="1"/>
        <pt x="1409" y="-320" on="0"/>
        <pt x="1483" y="-305" on="0"/>
        <pt x="1529" y="-287" on="0"/>
        <pt x="1569" y="-264" on="0"/>
        <pt x="1581" y="-255" on="0"/>
        <pt x="1584" y="-252" on="1"/>
        <pt x="1608" y="-282" on="1"/>
        <pt x="1595" y="-299" on="1"/>
        <pt x="1582" y="-316" on="0"/>
        <pt x="1526" y="-364" on="0"/>
        <pt x="1451" y="-412" on="0"/>
        <pt x="1338" y="-446" on="0"/>
        <pt x="1276" y="-446" on="1"/>
        <pt x="1218" y="-446" on="0"/>
        <pt x="1094" y="-398" on="0"/>
        <pt x="975" y="-320" on="0"/>
        <pt x="846" y="-225" on="0"/>
        <pt x="698" y="-124" on="0"/>
        <pt x="541" y="-37" on="0"/>
        <pt x="339" y="30" on="0"/>
        <pt x="232" y="42" on="1"/>
        <pt x="232" y="90" on="1"/>
        <pt x="323" y="81" on="0"/>
        <pt x="417" y="56" on="1"/>
        <pt x="272" y="146" on="0"/>
        <pt x="104" y="488" on="0"/>
        <pt x="104" y="730" on="1"/>
        <pt x="104" y="893" on="0"/>
        <pt x="212" y="1166" on="0"/>
        <pt x="392" y="1343" on="0"/>
        <pt x="623" y="1440" on="0"/>
      </contour>
      <contour>
        <pt x="752" y="1310" on="1"/>
        <pt x="647" y="1310" on="0"/>
        <pt x="459" y="1217" on="0"/>
        <pt x="317" y="1051" on="0"/>
        <pt x="234" y="804" on="0"/>
        <pt x="234" y="658" on="1"/>
        <pt x="234" y="504" on="0"/>
        <pt x="305" y="266" on="0"/>
        <pt x="412" y="128" on="0"/>
        <pt x="557" y="40" on="0"/>
        <pt x="684" y="10" on="0"/>
        <pt x="750" y="10" on="1"/>
        <pt x="798" y="10" on="0"/>
        <pt x="888" y="23" on="0"/>
        <pt x="994" y="61" on="0"/>
        <pt x="1084" y="121" on="0"/>
        <pt x="1170" y="222" on="0"/>
        <pt x="1230" y="354" on="0"/>
        <pt x="1266" y="543" on="0"/>
        <pt x="1266" y="658" on="1"/>
        <pt x="1266" y="803" on="0"/>
        <pt x="1182" y="1051" on="0"/>
        <pt x="1041" y="1217" on="0"/>
        <pt x="855" y="1310" on="0"/>
      </contour>
    </TTGlyph>
    <TTGlyph name="R" xMin="218" yMin="0" xMax="1458" yMax="1400">
      <contour>
        <pt x="218" y="1400" on="1"/>
        <pt x="682" y="1400" on="1"/>
        <pt x="815" y="1400" on="0"/>
        <pt x="1014" y="1333" on="0"/>
        <pt x="1124" y="1219" on="0"/>
        <pt x="1176" y="1086" on="0"/>
        <pt x="1176" y="1010" on="1"/>
        <pt x="1176" y="759" on="0"/>
        <pt x="908" y="648" on="1"/>
        <pt x="1041" y="432" on="0"/>
        <pt x="1093" y="352" on="1"/>
        <pt x="1214" y="164" on="0"/>
        <pt x="1288" y="105" on="1"/>
        <pt x="1358" y="49" on="0"/>
        <pt x="1456" y="48" on="1"/>
        <pt x="1458" y="0" on="1"/>
        <pt x="1324" y="0" on="1"/>
        <pt x="1259" y="0" on="0"/>
        <pt x="1154" y="43" on="0"/>
        <pt x="1079" y="111" on="0"/>
        <pt x="993" y="233" on="0"/>
        <pt x="924" y="353" on="0"/>
        <pt x="806" y="541" on="0"/>
        <pt x="748" y="622" on="1"/>
        <pt x="340" y="622" on="1"/>
        <pt x="340" y="0" on="1"/>
        <pt x="218" y="0" on="1"/>
      </contour>
      <contour>
        <pt x="340" y="1278" on="1"/>
        <pt x="340" y="672" on="1"/>
        <pt x="668" y="672" on="1"/>
        <pt x="733" y="672" on="0"/>
        <pt x="839" y="688" on="0"/>
        <pt x="939" y="730" on="0"/>
        <pt x="1006" y="798" on="0"/>
        <pt x="1046" y="910" on="0"/>
        <pt x="1046" y="984" on="1"/>
        <pt x="1046" y="1050" on="0"/>
        <pt x="1004" y="1153" on="0"/>
        <pt x="910" y="1234" on="0"/>
        <pt x="742" y="1278" on="0"/>
        <pt x="624" y="1278" on="1"/>
      </contour>
    </TTGlyph>
    <TTGlyph name="S" xMin="136" yMin="-22" xMax="1024" yMax="1420">
      <contour>
        <pt x="924" y="1314" on="0"/>
        <pt x="924" y="1310" on="0"/>
        <pt x="952" y="1038" on="1"/>
        <pt x="898" y="1038" on="1"/>
        <pt x="857" y="1191" on="0"/>
        <pt x="686" y="1364" on="0"/>
        <pt x="556" y="1364" on="1"/>
        <pt x="432" y="1364" on="0"/>
        <pt x="298" y="1215" on="0"/>
        <pt x="298" y="1116" on="1"/>
        <pt x="298" y="1057" on="0"/>
        <pt x="348" y="958" on="0"/>
        <pt x="432" y="887" on="0"/>
        <pt x="541" y="823" on="0"/>
        <pt x="661" y="766" on="0"/>
        <pt x="781" y="707" on="0"/>
        <pt x="890" y="633" on="0"/>
        <pt x="974" y="547" on="0"/>
        <pt x="1024" y="425" on="0"/>
        <pt x="1024" y="352" on="1"/>
        <pt x="1024" y="181" on="0"/>
        <pt x="774" y="-22" on="0"/>
        <pt x="568" y="-22" on="1"/>
        <pt x="453" y="-22" on="0"/>
        <pt x="215" y="76" on="0"/>
        <pt x="136" y="146" on="1"/>
        <pt x="222" y="240" on="1"/>
        <pt x="380" y="102" on="0"/>
        <pt x="590" y="102" on="1"/>
        <pt x="718" y="102" on="0"/>
        <pt x="890" y="231" on="0"/>
        <pt x="890" y="348" on="1"/>
        <pt x="890" y="415" on="0"/>
        <pt x="811" y="524" on="0"/>
        <pt x="685" y="602" on="0"/>
        <pt x="533" y="675" on="0"/>
        <pt x="381" y="756" on="0"/>
        <pt x="255" y="851" on="0"/>
        <pt x="176" y="994" on="0"/>
        <pt x="176" y="1082" on="1"/>
        <pt x="176" y="1229" on="0"/>
        <pt x="398" y="1420" on="0"/>
        <pt x="574" y="1420" on="1"/>
        <pt x="642" y="1420" on="0"/>
        <pt x="765" y="1398" on="0"/>
        <pt x="842" y="1367" on="0"/>
        <pt x="899" y="1334" on="0"/>
      </contour>
    </TTGlyph>
    <TTGlyph name="T" xMin="-26" yMin="0" xMax="1096" yMax="1400">
      <contour>
        <pt x="-26" y="1150" on="1"/>
        <pt x="-8" y="1400" on="1"/>
        <pt x="1078" y="1400" on="1"/>
        <pt x="1096" y="1150" on="1"/>
        <pt x="1044" y="1150" on="1"/>
        <pt x="1042" y="1170" on="1"/>
        <pt x="1041" y="1191" on="0"/>
        <pt x="1018" y="1250" on="0"/>
        <pt x="977" y="1309" on="0"/>
        <pt x="888" y="1350" on="0"/>
        <pt x="828" y="1350" on="1"/>
        <pt x="600" y="1350" on="1"/>
        <pt x="600" y="0" on="1"/>
        <pt x="470" y="0" on="1"/>
        <pt x="470" y="1350" on="1"/>
        <pt x="242" y="1350" on="1"/>
        <pt x="182" y="1350" on="0"/>
        <pt x="93" y="1307" on="0"/>
        <pt x="52" y="1254" on="0"/>
        <pt x="29" y="1185" on="0"/>
        <pt x="26" y="1158" on="0"/>
        <pt x="26" y="1150" on="1"/>
      </contour>
    </TTGlyph>
    <TTGlyph name="Thorn" xMin="128" yMin="0" xMax="910" yMax="1400">
      <contour>
        <pt x="128" y="1400" on="1"/>
        <pt x="258" y="1400" on="1"/>
        <pt x="258" y="1054" on="1"/>
        <pt x="432" y="1054" on="1"/>
        <pt x="562" y="1054" on="0"/>
        <pt x="752" y="999" on="0"/>
        <pt x="860" y="900" on="0"/>
        <pt x="910" y="777" on="0"/>
        <pt x="910" y="702" on="1"/>
        <pt x="910" y="509" on="0"/>
        <pt x="656" y="326" on="0"/>
        <pt x="426" y="326" on="1"/>
        <pt x="258" y="326" on="1"/>
        <pt x="258" y="0" on="1"/>
        <pt x="128" y="0" on="1"/>
      </contour>
      <contour>
        <pt x="398" y="942" on="1"/>
        <pt x="398" y="942" on="0"/>
        <pt x="258" y="942" on="1"/>
        <pt x="258" y="380" on="1"/>
        <pt x="396" y="380" on="1"/>
        <pt x="583" y="380" on="0"/>
        <pt x="784" y="528" on="0"/>
        <pt x="784" y="662" on="1"/>
        <pt x="784" y="942" on="0"/>
      </contour>
    </TTGlyph>
    <TTGlyph name="U" xMin="218" yMin="2" xMax="1290" yMax="1400">
      <contour>
        <pt x="358" y="1400" on="1"/>
        <pt x="356" y="724" on="1"/>
        <pt x="356" y="616" on="0"/>
        <pt x="358" y="555" on="1"/>
        <pt x="366" y="314" on="0"/>
        <pt x="430" y="204" on="1"/>
        <pt x="519" y="50" on="0"/>
        <pt x="756" y="50" on="1"/>
        <pt x="882" y="50" on="0"/>
        <pt x="963" y="92" on="1"/>
        <pt x="1092" y="158" on="0"/>
        <pt x="1129" y="349" on="1"/>
        <pt x="1152" y="462" on="0"/>
        <pt x="1152" y="724" on="1"/>
        <pt x="1152" y="1400" on="1"/>
        <pt x="1290" y="1400" on="1"/>
        <pt x="1290" y="708" on="1"/>
        <pt x="1290" y="567" on="0"/>
        <pt x="1260" y="355" on="0"/>
        <pt x="1187" y="177" on="0"/>
        <pt x="1066" y="64" on="0"/>
        <pt x="881" y="2" on="0"/>
        <pt x="756" y="2" on="1"/>
        <pt x="630" y="2" on="0"/>
        <pt x="443" y="64" on="0"/>
        <pt x="322" y="177" on="0"/>
        <pt x="248" y="355" on="0"/>
        <pt x="218" y="567" on="0"/>
        <pt x="218" y="708" on="1"/>
        <pt x="218" y="1400" on="1"/>
      </contour>
    </TTGlyph>
    <TTGlyph name="Uacute" xMin="218" yMin="2" xMax="1290" yMax="1790">
      <component glyphName="acute" x="294" y="452" flags="0x1004"/>
      <component glyphName="U" x="0" y="0" flags="0x1004"/>
    </TTGlyph>
    <TTGlyph name="Ucircumflex" xMin="218" yMin="2" xMax="1290" yMax="1774">
      <component glyphName="circumflex" x="364" y="480" flags="0x1004"/>
      <component glyphName="U" x="0" y="0" flags="0x1004"/>
    </TTGlyph>
    <TTGlyph name="Udieresis" xMin="218" yMin="2" xMax="1290" yMax="1689">
      <component glyphName="dieresis" x="339" y="464" flags="0x1004"/>
      <component glyphName="U" x="0" y="0" flags="0x1004"/>
    </TTGlyph>
    <TTGlyph name="Ugrave" xMin="218" yMin="2" xMax="1290" yMax="1790">
      <component glyphName="grave" x="355" y="450" flags="0x1004"/>
      <component glyphName="U" x="0" y="0" flags="0x1004"/>
    </TTGlyph>
    <TTGlyph name="V" xMin="10" yMin="0" xMax="1182" yMax="1400">
      <contour>
        <pt x="628" y="0" on="1"/>
        <pt x="564" y="0" on="1"/>
        <pt x="10" y="1400" on="1"/>
        <pt x="148" y="1400" on="1"/>
        <pt x="644" y="194" on="1"/>
        <pt x="962" y="972" on="0"/>
        <pt x="1028" y="1144" on="1"/>
        <pt x="1054" y="1208" on="0"/>
        <pt x="1060" y="1291" on="0"/>
        <pt x="1034" y="1333" on="0"/>
        <pt x="992" y="1350" on="0"/>
        <pt x="960" y="1350" on="1"/>
        <pt x="960" y="1400" on="1"/>
        <pt x="1182" y="1400" on="1"/>
        <pt x="1182" y="1366" on="1"/>
      </contour>
    </TTGlyph>
    <TTGlyph name="W" xMin="64" yMin="0" xMax="1990" yMax="1400">
      <contour>
        <pt x="1484" y="0" on="1"/>
        <pt x="1420" y="0" on="1"/>
        <pt x="1028" y="1140" on="1"/>
        <pt x="608" y="0" on="1"/>
        <pt x="544" y="0" on="1"/>
        <pt x="64" y="1400" on="1"/>
        <pt x="202" y="1400" on="1"/>
        <pt x="620" y="204" on="1"/>
        <pt x="1060" y="1400" on="1"/>
        <pt x="1074" y="1400" on="1"/>
        <pt x="1494" y="198" on="1"/>
        <pt x="1494" y="198" on="0"/>
        <pt x="1844" y="1144" on="1"/>
        <pt x="1864" y="1198" on="0"/>
        <pt x="1874" y="1277" on="0"/>
        <pt x="1863" y="1319" on="0"/>
        <pt x="1829" y="1344" on="0"/>
        <pt x="1797" y="1350" on="0"/>
        <pt x="1774" y="1350" on="1"/>
        <pt x="1774" y="1400" on="1"/>
        <pt x="1990" y="1400" on="1"/>
        <pt x="1990" y="1366" on="1"/>
      </contour>
    </TTGlyph>
    <TTGlyph name="X" xMin="38" yMin="0" xMax="1130" yMax="1400">
      <contour>
        <pt x="38" y="1400" on="1"/>
        <pt x="196" y="1400" on="1"/>
        <pt x="628" y="752" on="1"/>
        <pt x="938" y="1194" on="1"/>
        <pt x="975" y="1248" on="0"/>
        <pt x="982" y="1320" on="0"/>
        <pt x="938" y="1350" on="0"/>
        <pt x="894" y="1350" on="1"/>
        <pt x="894" y="1400" on="1"/>
        <pt x="1130" y="1400" on="1"/>
        <pt x="1130" y="1372" on="1"/>
        <pt x="660" y="702" on="1"/>
        <pt x="1128" y="0" on="1"/>
        <pt x="970" y="0" on="1"/>
        <pt x="562" y="614" on="1"/>
        <pt x="134" y="0" on="1"/>
        <pt x="54" y="0" on="1"/>
        <pt x="526" y="670" on="1"/>
      </contour>
    </TTGlyph>
    <TTGlyph name="Y" xMin="-16" yMin="0" xMax="1050" yMax="1400">
      <contour>
        <pt x="134" y="1400" on="1"/>
        <pt x="550" y="770" on="1"/>
        <pt x="807" y="1113" on="0"/>
        <pt x="858" y="1192" on="1"/>
        <pt x="901" y="1258" on="0"/>
        <pt x="901" y="1297" on="1"/>
        <pt x="901" y="1352" on="0"/>
        <pt x="814" y="1352" on="1"/>
        <pt x="814" y="1400" on="1"/>
        <pt x="1050" y="1400" on="1"/>
        <pt x="1050" y="1366" on="1"/>
        <pt x="570" y="706" on="1"/>
        <pt x="570" y="0" on="1"/>
        <pt x="434" y="0" on="1"/>
        <pt x="434" y="700" on="1"/>
        <pt x="-16" y="1400" on="1"/>
      </contour>
    </TTGlyph>
    <TTGlyph name="Yacute" xMin="-16" yMin="0" xMax="1050" yMax="1790">
      <component glyphName="acute" x="48" y="452" flags="0x1004"/>
      <component glyphName="Y" x="0" y="0" flags="0x1004"/>
    </TTGlyph>
    <TTGlyph name="Z" xMin="104" yMin="0" xMax="1126" yMax="1400">
      <contour>
        <pt x="1126" y="0" on="1"/>
        <pt x="104" y="0" on="1"/>
        <pt x="104" y="120" on="1"/>
        <pt x="962" y="1348" on="1"/>
        <pt x="468" y="1348" on="1"/>
        <pt x="340" y="1348" on="0"/>
        <pt x="214" y="1253" on="0"/>
        <pt x="178" y="1144" on="1"/>
        <pt x="128" y="1144" on="1"/>
        <pt x="184" y="1400" on="1"/>
        <pt x="1106" y="1400" on="1"/>
        <pt x="1106" y="1348" on="1"/>
        <pt x="258" y="132" on="1"/>
        <pt x="1126" y="132" on="1"/>
      </contour>
    </TTGlyph>
    <TTGlyph name="a" xMin="76" yMin="-4" xMax="712" yMax="872">
      <contour>
        <pt x="412" y="872" on="1"/>
        <pt x="489" y="872" on="0"/>
        <pt x="601" y="842" on="0"/>
        <pt x="664" y="796" on="0"/>
        <pt x="701" y="722" on="0"/>
        <pt x="712" y="652" on="0"/>
        <pt x="712" y="604" on="1"/>
        <pt x="712" y="0" on="1"/>
        <pt x="622" y="0" on="1"/>
        <pt x="612" y="160" on="1"/>
        <pt x="563" y="81" on="0"/>
        <pt x="387" y="-4" on="0"/>
        <pt x="316" y="-4" on="1"/>
        <pt x="219" y="-4" on="0"/>
        <pt x="76" y="109" on="0"/>
        <pt x="76" y="224" on="1"/>
        <pt x="76" y="287" on="0"/>
        <pt x="124" y="385" on="0"/>
        <pt x="212" y="445" on="0"/>
        <pt x="312" y="485" on="0"/>
        <pt x="444" y="504" on="0"/>
        <pt x="549" y="510" on="0"/>
        <pt x="612" y="510" on="1"/>
        <pt x="612" y="518" on="0"/>
        <pt x="610" y="600" on="1"/>
        <pt x="609" y="644" on="0"/>
        <pt x="595" y="702" on="0"/>
        <pt x="555" y="755" on="0"/>
        <pt x="474" y="780" on="0"/>
        <pt x="412" y="780" on="1"/>
        <pt x="296" y="780" on="0"/>
        <pt x="180" y="732" on="1"/>
        <pt x="162" y="818" on="1"/>
        <pt x="191" y="832" on="1"/>
        <pt x="220" y="845" on="0"/>
        <pt x="345" y="872" on="0"/>
      </contour>
      <contour>
        <pt x="612" y="296" on="1"/>
        <pt x="612" y="296" on="0"/>
        <pt x="612" y="466" on="1"/>
        <pt x="186" y="466" on="0"/>
        <pt x="186" y="236" on="1"/>
        <pt x="186" y="158" on="0"/>
        <pt x="281" y="62" on="0"/>
        <pt x="360" y="62" on="1"/>
        <pt x="457" y="62" on="0"/>
        <pt x="612" y="211" on="0"/>
      </contour>
    </TTGlyph>
    <TTGlyph name="aacute" xMin="76" yMin="-4" xMax="712" yMax="1338">
      <component glyphName="a" x="0" y="0" flags="0x1004"/>
      <component glyphName="acute" x="0" y="0" flags="0x1004"/>
    </TTGlyph>
    <TTGlyph name="acircumflex" xMin="74" yMin="-4" xMax="710" yMax="1294">
      <component glyphName="circumflex" x="0" y="0" flags="0x1004"/>
      <component glyphName="a" x="-2" y="0" flags="0x1004"/>
    </TTGlyph>
    <TTGlyph name="acute" xMin="352" yMin="1050" xMax="646" yMax="1338">
      <contour>
        <pt x="352" y="1050" on="1"/>
        <pt x="508" y="1338" on="1"/>
        <pt x="646" y="1338" on="1"/>
        <pt x="406" y="1050" on="1"/>
      </contour>
    </TTGlyph>
    <TTGlyph name="adieresis" xMin="74" yMin="-4" xMax="710" yMax="1225">
      <component glyphName="dieresis" x="0" y="0" flags="0x1004"/>
      <component glyphName="a" x="-2" y="0" flags="0x1004"/>
    </TTGlyph>
    <TTGlyph name="ae" xMin="78" yMin="-4" xMax="1316" yMax="872">
      <contour>
        <pt x="972" y="862" on="1"/>
        <pt x="1050" y="862" on="0"/>
        <pt x="1173" y="817" on="0"/>
        <pt x="1243" y="751" on="0"/>
        <pt x="1291" y="660" on="0"/>
        <pt x="1310" y="585" on="0"/>
        <pt x="1316" y="503" on="0"/>
        <pt x="1315" y="474" on="0"/>
        <pt x="1314" y="466" on="1"/>
        <pt x="724" y="466" on="1"/>
        <pt x="724" y="457" on="0"/>
        <pt x="724" y="447" on="1"/>
        <pt x="724" y="281" on="0"/>
        <pt x="865" y="100" on="0"/>
        <pt x="1002" y="100" on="1"/>
        <pt x="1042" y="100" on="0"/>
        <pt x="1123" y="130" on="0"/>
        <pt x="1177" y="167" on="0"/>
        <pt x="1227" y="215" on="0"/>
        <pt x="1242" y="234" on="0"/>
        <pt x="1246" y="240" on="1"/>
        <pt x="1316" y="178" on="1"/>
        <pt x="1303" y="160" on="1"/>
        <pt x="1290" y="141" on="0"/>
        <pt x="1233" y="89" on="0"/>
        <pt x="1158" y="37" on="0"/>
        <pt x="1044" y="0" on="0"/>
        <pt x="982" y="0" on="1"/>
        <pt x="869" y="0" on="0"/>
        <pt x="699" y="123" on="0"/>
        <pt x="654" y="228" on="1"/>
        <pt x="624" y="164" on="0"/>
        <pt x="532" y="68" on="0"/>
        <pt x="435" y="19" on="0"/>
        <pt x="352" y="-4" on="0"/>
        <pt x="318" y="-4" on="1"/>
        <pt x="273" y="-4" on="0"/>
        <pt x="191" y="21" on="0"/>
        <pt x="120" y="72" on="0"/>
        <pt x="78" y="159" on="0"/>
        <pt x="78" y="273" on="0"/>
        <pt x="117" y="364" on="0"/>
        <pt x="178" y="424" on="0"/>
        <pt x="271" y="469" on="0"/>
        <pt x="360" y="493" on="0"/>
        <pt x="475" y="506" on="0"/>
        <pt x="561" y="510" on="0"/>
        <pt x="614" y="510" on="1"/>
        <pt x="614" y="518" on="0"/>
        <pt x="612" y="600" on="1"/>
        <pt x="611" y="644" on="0"/>
        <pt x="597" y="702" on="0"/>
        <pt x="557" y="755" on="0"/>
        <pt x="476" y="780" on="0"/>
        <pt x="414" y="780" on="1"/>
        <pt x="298" y="780" on="0"/>
        <pt x="182" y="732" on="1"/>
        <pt x="164" y="812" on="1"/>
        <pt x="193" y="827" on="1"/>
        <pt x="222" y="842" on="0"/>
        <pt x="347" y="872" on="0"/>
        <pt x="414" y="872" on="1"/>
        <pt x="547" y="872" on="0"/>
        <pt x="679" y="794" on="0"/>
        <pt x="700" y="722" on="1"/>
        <pt x="802" y="862" on="0"/>
      </contour>
      <contour>
        <pt x="614" y="316" on="1"/>
        <pt x="614" y="466" on="1"/>
        <pt x="188" y="466" on="0"/>
        <pt x="188" y="236" on="1"/>
        <pt x="188" y="158" on="0"/>
        <pt x="283" y="62" on="0"/>
        <pt x="362" y="62" on="1"/>
        <pt x="462" y="62" on="0"/>
        <pt x="614" y="212" on="0"/>
      </contour>
      <contour>
        <pt x="728" y="510" on="1"/>
        <pt x="1208" y="510" on="1"/>
        <pt x="1208" y="523" on="0"/>
        <pt x="1206" y="556" on="0"/>
        <pt x="1196" y="620" on="0"/>
        <pt x="1178" y="678" on="0"/>
        <pt x="1143" y="744" on="0"/>
        <pt x="1095" y="791" on="0"/>
        <pt x="1019" y="822" on="0"/>
        <pt x="972" y="822" on="1"/>
        <pt x="920" y="822" on="0"/>
        <pt x="836" y="783" on="0"/>
        <pt x="786" y="717" on="0"/>
        <pt x="751" y="648" on="0"/>
        <pt x="735" y="569" on="0"/>
        <pt x="729" y="527" on="0"/>
      </contour>
    </TTGlyph>
    <TTGlyph name="agrave" xMin="74" yMin="-4" xMax="710" yMax="1340">
      <component glyphName="grave" x="5" y="0" flags="0x1004"/>
      <component glyphName="a" x="-2" y="0" flags="0x1004"/>
    </TTGlyph>
    <TTGlyph name="ampersand" xMin="140" yMin="-6" xMax="1340" yMax="1216">
      <contour>
        <pt x="590" y="1216" on="1"/>
        <pt x="640" y="1216" on="0"/>
        <pt x="730" y="1193" on="0"/>
        <pt x="808" y="1144" on="0"/>
        <pt x="854" y="1054" on="0"/>
        <pt x="854" y="994" on="1"/>
        <pt x="854" y="950" on="0"/>
        <pt x="824" y="873" on="0"/>
        <pt x="779" y="816" on="0"/>
        <pt x="705" y="759" on="0"/>
        <pt x="639" y="720" on="0"/>
        <pt x="591" y="696" on="1"/>
        <pt x="748" y="508" on="1"/>
        <pt x="835" y="402" on="0"/>
        <pt x="898" y="333" on="1"/>
        <pt x="1008" y="471" on="0"/>
        <pt x="1046" y="626" on="1"/>
        <pt x="1160" y="626" on="1"/>
        <pt x="1109" y="427" on="0"/>
        <pt x="971" y="256" on="1"/>
        <pt x="1131" y="94" on="0"/>
        <pt x="1216" y="94" on="1"/>
        <pt x="1247" y="94" on="0"/>
        <pt x="1299" y="115" on="0"/>
        <pt x="1313" y="128" on="0"/>
        <pt x="1316" y="132" on="1"/>
        <pt x="1340" y="114" on="1"/>
        <pt x="1332" y="102" on="1"/>
        <pt x="1325" y="91" on="0"/>
        <pt x="1293" y="57" on="0"/>
        <pt x="1252" y="23" on="0"/>
        <pt x="1190" y="0" on="0"/>
        <pt x="1158" y="0" on="1"/>
        <pt x="1060" y="0" on="0"/>
        <pt x="890" y="168" on="1"/>
        <pt x="704" y="-6" on="0"/>
        <pt x="498" y="-6" on="1"/>
        <pt x="348" y="-6" on="0"/>
        <pt x="140" y="178" on="0"/>
        <pt x="140" y="322" on="1"/>
        <pt x="140" y="383" on="0"/>
        <pt x="177" y="485" on="0"/>
        <pt x="228" y="552" on="0"/>
        <pt x="320" y="618" on="0"/>
        <pt x="389" y="654" on="0"/>
        <pt x="446" y="680" on="1"/>
        <pt x="380" y="767" on="0"/>
        <pt x="314" y="905" on="0"/>
        <pt x="314" y="974" on="1"/>
        <pt x="314" y="1065" on="0"/>
        <pt x="479" y="1216" on="0"/>
      </contour>
      <contour>
        <pt x="644" y="444" on="1"/>
        <pt x="515" y="594" on="0"/>
        <pt x="479" y="639" on="1"/>
        <pt x="426" y="611" on="0"/>
        <pt x="351" y="558" on="0"/>
        <pt x="283" y="493" on="0"/>
        <pt x="248" y="408" on="0"/>
        <pt x="248" y="358" on="1"/>
        <pt x="248" y="310" on="0"/>
        <pt x="276" y="222" on="0"/>
        <pt x="335" y="145" on="0"/>
        <pt x="439" y="100" on="0"/>
        <pt x="508" y="100" on="1"/>
        <pt x="662" y="100" on="0"/>
        <pt x="817" y="245" on="1"/>
        <pt x="753" y="315" on="0"/>
      </contour>
      <contour>
        <pt x="420" y="1030" on="1"/>
        <pt x="420" y="965" on="0"/>
        <pt x="488" y="828" on="0"/>
        <pt x="560" y="735" on="1"/>
        <pt x="647" y="782" on="0"/>
        <pt x="742" y="899" on="0"/>
        <pt x="742" y="990" on="1"/>
        <pt x="742" y="1176" on="0"/>
        <pt x="576" y="1176" on="1"/>
        <pt x="512" y="1176" on="0"/>
        <pt x="420" y="1097" on="0"/>
      </contour>
    </TTGlyph>
    <TTGlyph name="aring" xMin="78" yMin="-4" xMax="714" yMax="1304">
      <component glyphName="ring" x="0" y="0" flags="0x1004"/>
      <component glyphName="a" x="2" y="0" flags="0x1004"/>
    </TTGlyph>
    <TTGlyph name="asciicircum" xMin="40" yMin="496" xMax="800" yMax="1296">
      <contour>
        <pt x="370" y="1296" on="1"/>
        <pt x="470" y="1296" on="1"/>
        <pt x="800" y="496" on="1"/>
        <pt x="700" y="496" on="1"/>
        <pt x="418" y="1172" on="1"/>
        <pt x="140" y="496" on="1"/>
        <pt x="40" y="496" on="1"/>
      </contour>
    </TTGlyph>
    <TTGlyph name="asciitilde" xMin="80" yMin="386" xMax="862" yMax="612">
      <contour>
        <pt x="80" y="434" on="1"/>
        <pt x="81" y="438" on="0"/>
        <pt x="86" y="451" on="0"/>
        <pt x="104" y="488" on="0"/>
        <pt x="125" y="521" on="0"/>
        <pt x="162" y="562" on="0"/>
        <pt x="204" y="592" on="0"/>
        <pt x="263" y="612" on="0"/>
        <pt x="296" y="612" on="1"/>
        <pt x="340" y="612" on="0"/>
        <pt x="442" y="569" on="0"/>
        <pt x="520" y="517" on="0"/>
        <pt x="615" y="474" on="0"/>
        <pt x="652" y="474" on="1"/>
        <pt x="679" y="474" on="0"/>
        <pt x="735" y="497" on="0"/>
        <pt x="775" y="530" on="0"/>
        <pt x="808" y="563" on="0"/>
        <pt x="816" y="574" on="1"/>
        <pt x="824" y="586" on="1"/>
        <pt x="862" y="562" on="1"/>
        <pt x="859" y="555" on="0"/>
        <pt x="847" y="531" on="0"/>
        <pt x="804" y="470" on="0"/>
        <pt x="754" y="424" on="0"/>
        <pt x="671" y="386" on="0"/>
        <pt x="626" y="386" on="1"/>
        <pt x="579" y="386" on="0"/>
        <pt x="476" y="429" on="0"/>
        <pt x="402" y="481" on="0"/>
        <pt x="312" y="524" on="0"/>
        <pt x="276" y="524" on="1"/>
        <pt x="232" y="524" on="0"/>
        <pt x="151" y="470" on="0"/>
        <pt x="132" y="443" on="1"/>
        <pt x="114" y="416" on="1"/>
      </contour>
    </TTGlyph>
    <TTGlyph name="asterisk" xMin="46" yMin="826" xMax="600" yMax="1400">
      <contour>
        <pt x="600" y="1208" on="1"/>
        <pt x="434" y="1157" on="0"/>
        <pt x="347" y="1113" on="1"/>
        <pt x="387" y="1093" on="0"/>
        <pt x="513" y="1046" on="0"/>
        <pt x="556" y="1032" on="1"/>
        <pt x="600" y="1018" on="1"/>
        <pt x="544" y="920" on="1"/>
        <pt x="416" y="1039" on="0"/>
        <pt x="334" y="1092" on="1"/>
        <pt x="337" y="1048" on="0"/>
        <pt x="360" y="915" on="0"/>
        <pt x="370" y="870" on="1"/>
        <pt x="380" y="826" on="1"/>
        <pt x="266" y="826" on="1"/>
        <pt x="304" y="993" on="0"/>
        <pt x="309" y="1091" on="1"/>
        <pt x="273" y="1066" on="0"/>
        <pt x="169" y="981" on="0"/>
        <pt x="136" y="950" on="1"/>
        <pt x="102" y="920" on="1"/>
        <pt x="46" y="1018" on="1"/>
        <pt x="211" y="1066" on="0"/>
        <pt x="298" y="1112" on="1"/>
        <pt x="258" y="1132" on="0"/>
        <pt x="132" y="1180" on="0"/>
        <pt x="89" y="1194" on="1"/>
        <pt x="46" y="1208" on="1"/>
        <pt x="102" y="1306" on="1"/>
        <pt x="226" y="1189" on="0"/>
        <pt x="309" y="1135" on="1"/>
        <pt x="306" y="1179" on="0"/>
        <pt x="285" y="1312" on="0"/>
        <pt x="276" y="1356" on="1"/>
        <pt x="266" y="1400" on="1"/>
        <pt x="380" y="1400" on="1"/>
        <pt x="340" y="1232" on="0"/>
        <pt x="334" y="1133" on="1"/>
        <pt x="371" y="1157" on="0"/>
        <pt x="476" y="1244" on="0"/>
        <pt x="510" y="1275" on="1"/>
        <pt x="544" y="1306" on="1"/>
      </contour>
    </TTGlyph>
    <TTGlyph name="at" xMin="90" yMin="-48" xMax="1488" yMax="1400">
      <contour>
        <pt x="1040" y="1044" on="1"/>
        <pt x="1148" y="1044" on="1"/>
        <pt x="1050" y="497" on="1"/>
        <pt x="1047" y="471" on="0"/>
        <pt x="1047" y="450" on="1"/>
        <pt x="1047" y="326" on="0"/>
        <pt x="1143" y="326" on="1"/>
        <pt x="1243" y="326" on="0"/>
        <pt x="1316" y="434" on="1"/>
        <pt x="1386" y="538" on="0"/>
        <pt x="1386" y="728" on="1"/>
        <pt x="1386" y="847" on="0"/>
        <pt x="1310" y="1053" on="0"/>
        <pt x="1169" y="1208" on="0"/>
        <pt x="949" y="1298" on="0"/>
        <pt x="814" y="1298" on="1"/>
        <pt x="687" y="1298" on="0"/>
        <pt x="457" y="1200" on="0"/>
        <pt x="290" y="1034" on="0"/>
        <pt x="192" y="805" on="0"/>
        <pt x="192" y="680" on="1"/>
        <pt x="192" y="509" on="0"/>
        <pt x="358" y="221" on="0"/>
        <pt x="645" y="54" on="0"/>
        <pt x="814" y="54" on="1"/>
        <pt x="892" y="54" on="0"/>
        <pt x="1041" y="94" on="0"/>
        <pt x="1088" y="118" on="0"/>
        <pt x="1100" y="126" on="1"/>
        <pt x="1146" y="32" on="1"/>
        <pt x="1110" y="12" on="1"/>
        <pt x="1073" y="-8" on="0"/>
        <pt x="907" y="-48" on="0"/>
        <pt x="814" y="-48" on="1"/>
        <pt x="617" y="-48" on="0"/>
        <pt x="284" y="146" on="0"/>
        <pt x="90" y="479" on="0"/>
        <pt x="90" y="873" on="0"/>
        <pt x="284" y="1206" on="0"/>
        <pt x="617" y="1400" on="0"/>
        <pt x="814" y="1400" on="1"/>
        <pt x="1005" y="1400" on="0"/>
        <pt x="1314" y="1232" on="0"/>
        <pt x="1488" y="937" on="0"/>
        <pt x="1488" y="754" on="1"/>
        <pt x="1488" y="659" on="0"/>
        <pt x="1447" y="499" on="0"/>
        <pt x="1377" y="387" on="0"/>
        <pt x="1284" y="309" on="0"/>
        <pt x="1182" y="272" on="0"/>
        <pt x="1128" y="272" on="1"/>
        <pt x="1031" y="272" on="0"/>
        <pt x="988" y="322" on="1"/>
        <pt x="948" y="369" on="0"/>
        <pt x="948" y="468" on="1"/>
        <pt x="948" y="476" on="0"/>
        <pt x="948" y="486" on="1"/>
        <pt x="928" y="456" on="0"/>
        <pt x="916" y="437" on="0"/>
        <pt x="873" y="380" on="0"/>
        <pt x="848" y="355" on="0"/>
        <pt x="799" y="312" on="0"/>
        <pt x="757" y="293" on="0"/>
        <pt x="699" y="276" on="0"/>
        <pt x="668" y="276" on="1"/>
        <pt x="556" y="276" on="0"/>
        <pt x="492" y="380" on="1"/>
        <pt x="438" y="468" on="0"/>
        <pt x="438" y="591" on="1"/>
        <pt x="439" y="621" on="0"/>
        <pt x="441" y="648" on="1"/>
        <pt x="453" y="812" on="0"/>
        <pt x="568" y="946" on="1"/>
        <pt x="673" y="1068" on="0"/>
        <pt x="808" y="1068" on="1"/>
        <pt x="852" y="1068" on="0"/>
        <pt x="930" y="1047" on="0"/>
        <pt x="976" y="1021" on="0"/>
        <pt x="1015" y="987" on="0"/>
        <pt x="1025" y="974" on="0"/>
        <pt x="1028" y="970" on="1"/>
      </contour>
      <contour>
        <pt x="982" y="698" on="1"/>
        <pt x="1009" y="857" on="0"/>
        <pt x="1016" y="902" on="1"/>
        <pt x="1008" y="912" on="1"/>
        <pt x="996" y="927" on="0"/>
        <pt x="986" y="936" on="1"/>
        <pt x="968" y="952" on="0"/>
        <pt x="950" y="966" on="1"/>
        <pt x="930" y="980" on="0"/>
        <pt x="867" y="1000" on="0"/>
        <pt x="836" y="1000" on="1"/>
        <pt x="742" y="1000" on="0"/>
        <pt x="662" y="903" on="1"/>
        <pt x="591" y="818" on="0"/>
        <pt x="567" y="680" on="1"/>
        <pt x="564" y="663" on="0"/>
        <pt x="564" y="609" on="1"/>
        <pt x="564" y="531" on="0"/>
        <pt x="598" y="465" on="1"/>
        <pt x="642" y="380" on="0"/>
        <pt x="798" y="380" on="0"/>
        <pt x="965" y="590" on="0"/>
      </contour>
    </TTGlyph>
    <TTGlyph name="atilde" xMin="78" yMin="-4" xMax="719" yMax="1254">
      <component glyphName="tilde" x="-31" y="0" flags="0x1004"/>
      <component glyphName="a" x="2" y="0" flags="0x1004"/>
    </TTGlyph>
    <TTGlyph name="b" xMin="70" yMin="-12" xMax="894" yMax="1400">
      <contour>
        <pt x="188" y="0" on="1"/>
        <pt x="188" y="1262" on="1"/>
        <pt x="188" y="1289" on="0"/>
        <pt x="184" y="1315" on="0"/>
        <pt x="163" y="1347" on="0"/>
        <pt x="113" y="1360" on="0"/>
        <pt x="70" y="1360" on="1"/>
        <pt x="70" y="1400" on="1"/>
        <pt x="290" y="1400" on="1"/>
        <pt x="290" y="702" on="1"/>
        <pt x="293" y="708" on="0"/>
        <pt x="314" y="737" on="0"/>
        <pt x="366" y="791" on="0"/>
        <pt x="431" y="836" on="0"/>
        <pt x="531" y="870" on="0"/>
        <pt x="586" y="870" on="1"/>
        <pt x="645" y="870" on="0"/>
        <pt x="749" y="828" on="0"/>
        <pt x="841" y="736" on="0"/>
        <pt x="894" y="568" on="0"/>
        <pt x="894" y="454" on="1"/>
        <pt x="894" y="347" on="0"/>
        <pt x="847" y="178" on="0"/>
        <pt x="775" y="78" on="0"/>
        <pt x="683" y="12" on="0"/>
        <pt x="602" y="-12" on="0"/>
        <pt x="564" y="-12" on="1"/>
        <pt x="509" y="-12" on="0"/>
        <pt x="412" y="19" on="0"/>
        <pt x="354" y="60" on="0"/>
        <pt x="308" y="109" on="0"/>
        <pt x="293" y="135" on="0"/>
        <pt x="290" y="141" on="1"/>
        <pt x="276" y="0" on="1"/>
      </contour>
      <contour>
        <pt x="544" y="88" on="1"/>
        <pt x="658" y="88" on="0"/>
        <pt x="794" y="291" on="0"/>
        <pt x="794" y="454" on="1"/>
        <pt x="794" y="814" on="0"/>
        <pt x="556" y="814" on="1"/>
        <pt x="498" y="814" on="0"/>
        <pt x="393" y="761" on="0"/>
        <pt x="330" y="687" on="0"/>
        <pt x="292" y="621" on="0"/>
        <pt x="290" y="602" on="1"/>
        <pt x="290" y="354" on="1"/>
        <pt x="290" y="252" on="0"/>
        <pt x="442" y="88" on="0"/>
      </contour>
    </TTGlyph>
    <TTGlyph name="backslash" xMin="38" yMin="-406" xMax="982" yMax="1400">
      <contour>
        <pt x="138" y="1400" on="1"/>
        <pt x="982" y="-406" on="1"/>
        <pt x="882" y="-406" on="1"/>
        <pt x="38" y="1400" on="1"/>
      </contour>
    </TTGlyph>
    <TTGlyph name="bar" xMin="208" yMin="-406" xMax="310" yMax="1400">
      <contour>
        <pt x="208" y="1400" on="1"/>
        <pt x="308" y="1400" on="1"/>
        <pt x="310" y="-406" on="1"/>
        <pt x="210" y="-406" on="1"/>
      </contour>
    </TTGlyph>
    <TTGlyph name="braceleft" xMin="136" yMin="-262" xMax="554" yMax="1330">
      <contour>
        <pt x="554" y="-220" on="1"/>
        <pt x="554" y="-220" on="0"/>
        <pt x="554" y="-262" on="1"/>
        <pt x="521" y="-262" on="0"/>
        <pt x="459" y="-254" on="0"/>
        <pt x="373" y="-222" on="0"/>
        <pt x="312" y="-169" on="0"/>
        <pt x="268" y="-69" on="0"/>
        <pt x="268" y="-2" on="1"/>
        <pt x="268" y="362" on="1"/>
        <pt x="268" y="449" on="0"/>
        <pt x="214" y="512" on="0"/>
        <pt x="136" y="512" on="1"/>
        <pt x="136" y="556" on="1"/>
        <pt x="214" y="556" on="0"/>
        <pt x="268" y="619" on="0"/>
        <pt x="268" y="706" on="1"/>
        <pt x="268" y="1070" on="1"/>
        <pt x="268" y="1137" on="0"/>
        <pt x="312" y="1237" on="0"/>
        <pt x="373" y="1290" on="0"/>
        <pt x="459" y="1322" on="0"/>
        <pt x="521" y="1330" on="0"/>
        <pt x="554" y="1330" on="1"/>
        <pt x="554" y="1288" on="1"/>
        <pt x="372" y="1288" on="0"/>
        <pt x="372" y="1154" on="1"/>
        <pt x="372" y="820" on="1"/>
        <pt x="372" y="757" on="0"/>
        <pt x="359" y="667" on="0"/>
        <pt x="324" y="588" on="0"/>
        <pt x="258" y="542" on="0"/>
        <pt x="208" y="534" on="1"/>
        <pt x="303" y="517" on="0"/>
        <pt x="372" y="377" on="0"/>
        <pt x="372" y="248" on="1"/>
        <pt x="372" y="-86" on="1"/>
        <pt x="372" y="-220" on="0"/>
      </contour>
    </TTGlyph>
    <TTGlyph name="braceright" xMin="62" yMin="-262" xMax="480" yMax="1330">
      <contour>
        <pt x="62" y="-220" on="1"/>
        <pt x="244" y="-220" on="0"/>
        <pt x="244" y="-86" on="1"/>
        <pt x="244" y="248" on="1"/>
        <pt x="244" y="377" on="0"/>
        <pt x="313" y="517" on="0"/>
        <pt x="408" y="534" on="1"/>
        <pt x="358" y="542" on="0"/>
        <pt x="292" y="588" on="0"/>
        <pt x="257" y="667" on="0"/>
        <pt x="244" y="757" on="0"/>
        <pt x="244" y="820" on="1"/>
        <pt x="244" y="1154" on="1"/>
        <pt x="244" y="1288" on="0"/>
        <pt x="62" y="1288" on="1"/>
        <pt x="62" y="1330" on="1"/>
        <pt x="95" y="1330" on="0"/>
        <pt x="157" y="1322" on="0"/>
        <pt x="243" y="1290" on="0"/>
        <pt x="304" y="1237" on="0"/>
        <pt x="348" y="1137" on="0"/>
        <pt x="348" y="1070" on="1"/>
        <pt x="348" y="706" on="1"/>
        <pt x="348" y="619" on="0"/>
        <pt x="402" y="556" on="0"/>
        <pt x="480" y="556" on="1"/>
        <pt x="480" y="512" on="1"/>
        <pt x="402" y="512" on="0"/>
        <pt x="348" y="449" on="0"/>
        <pt x="348" y="362" on="1"/>
        <pt x="348" y="-2" on="1"/>
        <pt x="348" y="-69" on="0"/>
        <pt x="304" y="-169" on="0"/>
        <pt x="243" y="-222" on="0"/>
        <pt x="157" y="-254" on="0"/>
        <pt x="95" y="-262" on="0"/>
        <pt x="62" y="-262" on="1"/>
      </contour>
    </TTGlyph>
    <TTGlyph name="bracketleft" xMin="240" yMin="-262" xMax="550" yMax="1332">
      <contour>
        <pt x="550" y="1332" on="1"/>
        <pt x="550" y="1288" on="1"/>
        <pt x="344" y="1288" on="1"/>
        <pt x="344" y="-218" on="1"/>
        <pt x="550" y="-218" on="1"/>
        <pt x="550" y="-262" on="1"/>
        <pt x="240" y="-262" on="1"/>
        <pt x="240" y="1332" on="1"/>
      </contour>
    </TTGlyph>
    <TTGlyph name="bracketright" xMin="56" yMin="-262" xMax="366" yMax="1332">
      <contour>
        <pt x="56" y="1332" on="1"/>
        <pt x="366" y="1332" on="1"/>
        <pt x="366" y="-262" on="1"/>
        <pt x="56" y="-262" on="1"/>
        <pt x="56" y="-218" on="1"/>
        <pt x="262" y="-218" on="1"/>
        <pt x="262" y="1288" on="1"/>
        <pt x="56" y="1288" on="1"/>
      </contour>
    </TTGlyph>
    <TTGlyph name="breve" xMin="24" yMin="1052" xMax="504" yMax="1294">
      <contour>
        <pt x="68" y="1294" on="1"/>
        <pt x="74" y="1280" on="1"/>
        <pt x="80" y="1265" on="0"/>
        <pt x="111" y="1223" on="0"/>
        <pt x="154" y="1181" on="0"/>
        <pt x="224" y="1152" on="0"/>
        <pt x="304" y="1152" on="0"/>
        <pt x="375" y="1183" on="0"/>
        <pt x="416" y="1220" on="0"/>
        <pt x="449" y="1269" on="0"/>
        <pt x="458" y="1288" on="0"/>
        <pt x="460" y="1294" on="1"/>
        <pt x="504" y="1294" on="1"/>
        <pt x="498" y="1269" on="1"/>
        <pt x="493" y="1244" on="0"/>
        <pt x="458" y="1173" on="0"/>
        <pt x="409" y="1102" on="0"/>
        <pt x="319" y="1052" on="0"/>
        <pt x="264" y="1052" on="1"/>
        <pt x="224" y="1052" on="0"/>
        <pt x="154" y="1080" on="0"/>
        <pt x="107" y="1120" on="0"/>
        <pt x="68" y="1176" on="0"/>
        <pt x="46" y="1221" on="0"/>
        <pt x="29" y="1272" on="0"/>
        <pt x="25" y="1289" on="0"/>
        <pt x="24" y="1294" on="1"/>
      </contour>
    </TTGlyph>
    <TTGlyph name="brokenbar" xMin="208" yMin="-406" xMax="310" yMax="1400">
      <contour>
        <pt x="208" y="1400" on="1"/>
        <pt x="310" y="1400" on="1"/>
        <pt x="310" y="658" on="1"/>
        <pt x="210" y="658" on="1"/>
      </contour>
      <contour>
        <pt x="208" y="334" on="1"/>
        <pt x="310" y="334" on="1"/>
        <pt x="310" y="-406" on="1"/>
        <pt x="210" y="-406" on="1"/>
      </contour>
    </TTGlyph>
    <TTGlyph name="bullet" xMin="68" yMin="288" xMax="486" yMax="706">
      <contour>
        <pt x="68" y="409" on="0"/>
        <pt x="68" y="583" on="0"/>
        <pt x="189" y="706" on="0"/>
        <pt x="363" y="706" on="0"/>
        <pt x="486" y="583" on="0"/>
        <pt x="486" y="409" on="0"/>
        <pt x="363" y="288" on="0"/>
        <pt x="189" y="288" on="0"/>
      </contour>
    </TTGlyph>
    <TTGlyph name="c" xMin="90" yMin="-10" xMax="792" yMax="873">
      <contour>
        <pt x="473" y="873" on="1"/>
        <pt x="508" y="873" on="0"/>
        <pt x="594" y="859" on="0"/>
        <pt x="644" y="839" on="1"/>
        <pt x="669" y="829" on="0"/>
        <pt x="701" y="810" on="1"/>
        <pt x="726" y="795" on="0"/>
        <pt x="732" y="790" on="1"/>
        <pt x="739" y="784" on="0"/>
        <pt x="742" y="780" on="1"/>
        <pt x="742" y="576" on="1"/>
        <pt x="700" y="576" on="1"/>
        <pt x="685" y="684" on="0"/>
        <pt x="558" y="828" on="0"/>
        <pt x="452" y="828" on="1"/>
        <pt x="343" y="828" on="0"/>
        <pt x="192" y="631" on="0"/>
        <pt x="192" y="460" on="1"/>
        <pt x="192" y="300" on="0"/>
        <pt x="347" y="90" on="0"/>
        <pt x="478" y="90" on="1"/>
        <pt x="519" y="90" on="0"/>
        <pt x="601" y="120" on="0"/>
        <pt x="654" y="157" on="0"/>
        <pt x="703" y="205" on="0"/>
        <pt x="718" y="224" on="0"/>
        <pt x="722" y="230" on="1"/>
        <pt x="792" y="166" on="1"/>
        <pt x="779" y="148" on="1"/>
        <pt x="766" y="130" on="0"/>
        <pt x="709" y="78" on="0"/>
        <pt x="634" y="26" on="0"/>
        <pt x="520" y="-10" on="0"/>
        <pt x="458" y="-10" on="1"/>
        <pt x="294" y="-10" on="0"/>
        <pt x="90" y="244" on="0"/>
        <pt x="90" y="436" on="1"/>
        <pt x="90" y="540" on="0"/>
        <pt x="122" y="618" on="1"/>
        <pt x="160" y="711" on="0"/>
        <pt x="204" y="755" on="1"/>
        <pt x="244" y="797" on="0"/>
        <pt x="305" y="832" on="1"/>
        <pt x="376" y="873" on="0"/>
      </contour>
    </TTGlyph>
    <TTGlyph name="caron" xMin="26" yMin="1052" xMax="504" yMax="1294">
      <contour>
        <pt x="304" y="1052" on="1"/>
        <pt x="228" y="1052" on="1"/>
        <pt x="26" y="1294" on="1"/>
        <pt x="164" y="1294" on="1"/>
        <pt x="264" y="1110" on="1"/>
        <pt x="364" y="1294" on="1"/>
        <pt x="504" y="1294" on="1"/>
      </contour>
    </TTGlyph>
    <TTGlyph name="ccedilla" xMin="90" yMin="-354" xMax="792" yMax="873">
      <contour>
        <pt x="473" y="873" on="1"/>
        <pt x="508" y="873" on="0"/>
        <pt x="594" y="859" on="0"/>
        <pt x="644" y="839" on="1"/>
        <pt x="669" y="829" on="0"/>
        <pt x="701" y="810" on="1"/>
        <pt x="726" y="795" on="0"/>
        <pt x="732" y="790" on="1"/>
        <pt x="739" y="784" on="0"/>
        <pt x="742" y="780" on="1"/>
        <pt x="742" y="576" on="1"/>
        <pt x="700" y="576" on="1"/>
        <pt x="685" y="684" on="0"/>
        <pt x="558" y="828" on="0"/>
        <pt x="452" y="828" on="1"/>
        <pt x="343" y="828" on="0"/>
        <pt x="192" y="631" on="0"/>
        <pt x="192" y="460" on="1"/>
        <pt x="192" y="300" on="0"/>
        <pt x="270" y="195" on="1"/>
        <pt x="347" y="90" on="0"/>
        <pt x="478" y="90" on="1"/>
        <pt x="519" y="90" on="0"/>
        <pt x="601" y="120" on="0"/>
        <pt x="654" y="157" on="0"/>
        <pt x="703" y="205" on="0"/>
        <pt x="718" y="224" on="0"/>
        <pt x="722" y="230" on="1"/>
        <pt x="792" y="166" on="1"/>
        <pt x="779" y="148" on="1"/>
        <pt x="766" y="130" on="0"/>
        <pt x="738" y="104" on="1"/>
        <pt x="706" y="75" on="0"/>
        <pt x="672" y="52" on="1"/>
        <pt x="632" y="25" on="0"/>
        <pt x="577" y="8" on="1"/>
        <pt x="520" y="-10" on="0"/>
        <pt x="458" y="-10" on="1"/>
        <pt x="442" y="-10" on="0"/>
        <pt x="427" y="-9" on="1"/>
        <pt x="420" y="-54" on="1"/>
        <pt x="432" y="-60" on="1"/>
        <pt x="444" y="-66" on="0"/>
        <pt x="478" y="-92" on="0"/>
        <pt x="512" y="-126" on="0"/>
        <pt x="536" y="-176" on="0"/>
        <pt x="536" y="-202" on="1"/>
        <pt x="536" y="-233" on="0"/>
        <pt x="505" y="-288" on="0"/>
        <pt x="467" y="-320" on="0"/>
        <pt x="417" y="-346" on="0"/>
        <pt x="408" y="-349" on="1"/>
        <pt x="392" y="-354" on="1"/>
        <pt x="370" y="-322" on="1"/>
        <pt x="389" y="-315" on="1"/>
        <pt x="408" y="-308" on="0"/>
        <pt x="446" y="-261" on="0"/>
        <pt x="446" y="-228" on="1"/>
        <pt x="446" y="-210" on="0"/>
        <pt x="429" y="-175" on="0"/>
        <pt x="408" y="-153" on="0"/>
        <pt x="394" y="-143" on="1"/>
        <pt x="378" y="-132" on="0"/>
        <pt x="374" y="-130" on="1"/>
        <pt x="369" y="-128" on="0"/>
        <pt x="366" y="-126" on="1"/>
        <pt x="366" y="-124" on="0"/>
        <pt x="387" y="-3" on="1"/>
        <pt x="271" y="19" on="0"/>
        <pt x="192" y="117" on="1"/>
        <pt x="90" y="244" on="0"/>
        <pt x="90" y="436" on="1"/>
        <pt x="90" y="540" on="0"/>
        <pt x="122" y="618" on="1"/>
        <pt x="160" y="711" on="0"/>
        <pt x="204" y="755" on="1"/>
        <pt x="244" y="797" on="0"/>
        <pt x="305" y="832" on="1"/>
        <pt x="376" y="873" on="0"/>
      </contour>
    </TTGlyph>
    <TTGlyph name="cedilla" xMin="366" yMin="-354" xMax="536" yMax="26">
      <contour>
        <pt x="392" y="26" on="1"/>
        <pt x="392" y="26" on="0"/>
        <pt x="432" y="26" on="1"/>
        <pt x="420" y="-54" on="1"/>
        <pt x="432" y="-60" on="1"/>
        <pt x="444" y="-66" on="0"/>
        <pt x="478" y="-92" on="0"/>
        <pt x="512" y="-126" on="0"/>
        <pt x="536" y="-176" on="0"/>
        <pt x="536" y="-202" on="1"/>
        <pt x="536" y="-233" on="0"/>
        <pt x="505" y="-288" on="0"/>
        <pt x="467" y="-320" on="0"/>
        <pt x="417" y="-346" on="0"/>
        <pt x="398" y="-352" on="0"/>
        <pt x="392" y="-354" on="1"/>
        <pt x="370" y="-322" on="1"/>
        <pt x="389" y="-315" on="1"/>
        <pt x="408" y="-308" on="0"/>
        <pt x="446" y="-261" on="0"/>
        <pt x="446" y="-228" on="1"/>
        <pt x="446" y="-210" on="0"/>
        <pt x="429" y="-175" on="0"/>
        <pt x="408" y="-153" on="0"/>
        <pt x="380" y="-133" on="0"/>
        <pt x="369" y="-128" on="0"/>
        <pt x="366" y="-126" on="1"/>
        <pt x="366" y="-124" on="0"/>
      </contour>
    </TTGlyph>
    <TTGlyph name="cent" xMin="98" yMin="-178" xMax="800" yMax="1026">
      <contour>
        <pt x="412" y="1026" on="1"/>
        <pt x="500" y="1026" on="1"/>
        <pt x="500" y="871" on="1"/>
        <pt x="549" y="869" on="0"/>
        <pt x="638" y="848" on="0"/>
        <pt x="691" y="825" on="0"/>
        <pt x="736" y="795" on="0"/>
        <pt x="749" y="783" on="0"/>
        <pt x="752" y="780" on="1"/>
        <pt x="750" y="576" on="1"/>
        <pt x="708" y="576" on="1"/>
        <pt x="694" y="672" on="0"/>
        <pt x="588" y="811" on="0"/>
        <pt x="500" y="825" on="1"/>
        <pt x="500" y="90" on="1"/>
        <pt x="539" y="93" on="0"/>
        <pt x="616" y="125" on="0"/>
        <pt x="666" y="161" on="0"/>
        <pt x="713" y="207" on="0"/>
        <pt x="726" y="225" on="0"/>
        <pt x="730" y="230" on="1"/>
        <pt x="800" y="166" on="1"/>
        <pt x="788" y="150" on="1"/>
        <pt x="776" y="133" on="0"/>
        <pt x="725" y="85" on="0"/>
        <pt x="658" y="36" on="0"/>
        <pt x="555" y="-4" on="0"/>
        <pt x="500" y="-8" on="1"/>
        <pt x="500" y="-178" on="1"/>
        <pt x="412" y="-178" on="1"/>
        <pt x="412" y="-6" on="1"/>
        <pt x="270" y="16" on="0"/>
        <pt x="98" y="261" on="0"/>
        <pt x="98" y="436" on="1"/>
        <pt x="98" y="610" on="0"/>
        <pt x="279" y="842" on="0"/>
        <pt x="412" y="866" on="1"/>
      </contour>
      <contour>
        <pt x="200" y="460" on="1"/>
        <pt x="200" y="324" on="0"/>
        <pt x="313" y="128" on="0"/>
        <pt x="412" y="100" on="1"/>
        <pt x="412" y="822" on="1"/>
        <pt x="320" y="801" on="0"/>
        <pt x="200" y="611" on="0"/>
      </contour>
    </TTGlyph>
    <TTGlyph name="circumflex" xMin="178" yMin="1052" xMax="656" yMax="1294">
      <contour>
        <pt x="456" y="1294" on="1"/>
        <pt x="656" y="1052" on="1"/>
        <pt x="516" y="1052" on="1"/>
        <pt x="416" y="1236" on="1"/>
        <pt x="316" y="1052" on="1"/>
        <pt x="178" y="1052" on="1"/>
        <pt x="380" y="1294" on="1"/>
      </contour>
    </TTGlyph>
    <TTGlyph name="colon" xMin="172" yMin="0" xMax="352" yMax="864">
      <contour>
        <pt x="172" y="52" on="0"/>
        <pt x="172" y="128" on="0"/>
        <pt x="224" y="180" on="0"/>
        <pt x="300" y="180" on="0"/>
        <pt x="352" y="128" on="0"/>
        <pt x="352" y="52" on="0"/>
        <pt x="300" y="0" on="0"/>
        <pt x="224" y="0" on="0"/>
      </contour>
      <contour>
        <pt x="172" y="736" on="0"/>
        <pt x="172" y="812" on="0"/>
        <pt x="224" y="864" on="0"/>
        <pt x="300" y="864" on="0"/>
        <pt x="352" y="812" on="0"/>
        <pt x="352" y="736" on="0"/>
        <pt x="300" y="684" on="0"/>
        <pt x="224" y="684" on="0"/>
      </contour>
    </TTGlyph>
    <TTGlyph name="comma" xMin="78" yMin="-216" xMax="261" yMax="180">
      <contour>
        <pt x="78" y="89" on="1"/>
        <pt x="78" y="132" on="0"/>
        <pt x="135" y="180" on="0"/>
        <pt x="168" y="180" on="1"/>
        <pt x="202" y="179" on="0"/>
        <pt x="232" y="148" on="1"/>
        <pt x="261" y="118" on="0"/>
        <pt x="261" y="42" on="1"/>
        <pt x="261" y="1" on="0"/>
        <pt x="231" y="-83" on="0"/>
        <pt x="194" y="-140" on="0"/>
        <pt x="145" y="-195" on="0"/>
        <pt x="126" y="-211" on="0"/>
        <pt x="120" y="-216" on="1"/>
        <pt x="98" y="-178" on="1"/>
        <pt x="118" y="-160" on="1"/>
        <pt x="142" y="-139" on="0"/>
        <pt x="166" y="-88" on="1"/>
        <pt x="179" y="-60" on="0"/>
        <pt x="179" y="-23" on="1"/>
        <pt x="179" y="-12" on="0"/>
        <pt x="178" y="0" on="1"/>
        <pt x="134" y="0" on="0"/>
        <pt x="108" y="21" on="1"/>
        <pt x="78" y="45" on="0"/>
      </contour>
    </TTGlyph>
    <TTGlyph name="copyright" xMin="74" yMin="-4" xMax="1476" yMax="1398">
      <contour>
        <pt x="74" y="505" on="0"/>
        <pt x="74" y="887" on="0"/>
        <pt x="261" y="1210" on="0"/>
        <pt x="583" y="1398" on="0"/>
        <pt x="965" y="1398" on="0"/>
        <pt x="1288" y="1210" on="0"/>
        <pt x="1476" y="887" on="0"/>
        <pt x="1476" y="505" on="0"/>
        <pt x="1288" y="183" on="0"/>
        <pt x="965" y="-4" on="0"/>
        <pt x="583" y="-4" on="0"/>
        <pt x="261" y="183" on="0"/>
      </contour>
      <contour>
        <pt x="140" y="868" on="0"/>
        <pt x="140" y="524" on="0"/>
        <pt x="310" y="232" on="0"/>
        <pt x="602" y="62" on="0"/>
        <pt x="946" y="62" on="0"/>
        <pt x="1239" y="232" on="0"/>
        <pt x="1410" y="524" on="0"/>
        <pt x="1410" y="868" on="0"/>
        <pt x="1239" y="1161" on="0"/>
        <pt x="946" y="1332" on="0"/>
        <pt x="602" y="1332" on="0"/>
        <pt x="310" y="1161" on="0"/>
      </contour>
      <contour>
        <pt x="1028" y="480" on="1"/>
        <pt x="1028" y="480" on="0"/>
        <pt x="1102" y="438" on="1"/>
        <pt x="1091" y="418" on="1"/>
        <pt x="1080" y="398" on="0"/>
        <pt x="1027" y="340" on="0"/>
        <pt x="956" y="282" on="0"/>
        <pt x="839" y="242" on="0"/>
        <pt x="772" y="242" on="1"/>
        <pt x="700" y="242" on="0"/>
        <pt x="564" y="303" on="0"/>
        <pt x="456" y="414" on="0"/>
        <pt x="390" y="591" on="0"/>
        <pt x="390" y="698" on="1"/>
        <pt x="390" y="797" on="0"/>
        <pt x="456" y="964" on="0"/>
        <pt x="565" y="1071" on="0"/>
        <pt x="701" y="1130" on="0"/>
        <pt x="772" y="1130" on="1"/>
        <pt x="823" y="1130" on="0"/>
        <pt x="917" y="1111" on="0"/>
        <pt x="973" y="1089" on="0"/>
        <pt x="1023" y="1059" on="0"/>
        <pt x="1036" y="1047" on="0"/>
        <pt x="1040" y="1044" on="1"/>
        <pt x="1060" y="894" on="1"/>
        <pt x="1010" y="894" on="1"/>
        <pt x="995" y="970" on="0"/>
        <pt x="934" y="1028" on="1"/>
        <pt x="874" y="1084" on="0"/>
        <pt x="772" y="1084" on="1"/>
        <pt x="647" y="1084" on="0"/>
        <pt x="562" y="991" on="1"/>
        <pt x="476" y="896" on="0"/>
        <pt x="476" y="722" on="1"/>
        <pt x="476" y="550" on="0"/>
        <pt x="648" y="328" on="0"/>
        <pt x="782" y="328" on="1"/>
        <pt x="830" y="328" on="0"/>
        <pt x="917" y="361" on="0"/>
        <pt x="969" y="401" on="0"/>
        <pt x="1013" y="453" on="0"/>
        <pt x="1025" y="474" on="0"/>
      </contour>
    </TTGlyph>
    <TTGlyph name="currency" xMin="68" yMin="372" xMax="804" yMax="1108">
      <contour>
        <pt x="732" y="372" on="1"/>
        <pt x="612" y="490" on="1"/>
        <pt x="532" y="434" on="0"/>
        <pt x="336" y="434" on="0"/>
        <pt x="258" y="490" on="1"/>
        <pt x="140" y="372" on="1"/>
        <pt x="68" y="444" on="1"/>
        <pt x="184" y="560" on="1"/>
        <pt x="128" y="638" on="0"/>
        <pt x="128" y="738" on="1"/>
        <pt x="128" y="835" on="0"/>
        <pt x="186" y="916" on="1"/>
        <pt x="68" y="1036" on="1"/>
        <pt x="140" y="1108" on="1"/>
        <pt x="258" y="988" on="1"/>
        <pt x="336" y="1044" on="0"/>
        <pt x="434" y="1044" on="1"/>
        <pt x="534" y="1044" on="0"/>
        <pt x="612" y="988" on="1"/>
        <pt x="732" y="1108" on="1"/>
        <pt x="804" y="1036" on="1"/>
        <pt x="684" y="916" on="1"/>
        <pt x="740" y="834" on="0"/>
        <pt x="740" y="738" on="1"/>
        <pt x="740" y="640" on="0"/>
        <pt x="684" y="562" on="1"/>
        <pt x="804" y="444" on="1"/>
      </contour>
      <contour>
        <pt x="434" y="482" on="1"/>
        <pt x="536" y="484" on="0"/>
        <pt x="690" y="636" on="0"/>
        <pt x="690" y="738" on="1"/>
        <pt x="690" y="841" on="0"/>
        <pt x="537" y="994" on="0"/>
        <pt x="434" y="996" on="1"/>
        <pt x="330" y="994" on="0"/>
        <pt x="178" y="842" on="0"/>
        <pt x="176" y="738" on="1"/>
        <pt x="178" y="636" on="0"/>
        <pt x="331" y="483" on="0"/>
      </contour>
    </TTGlyph>
    <TTGlyph name="d" xMin="92" yMin="-10" xMax="908" yMax="1400">
      <contour>
        <pt x="688" y="0" on="1"/>
        <pt x="688" y="187" on="1"/>
        <pt x="682" y="173" on="0"/>
        <pt x="671" y="151" on="0"/>
        <pt x="621" y="79" on="0"/>
        <pt x="566" y="32" on="0"/>
        <pt x="471" y="-10" on="0"/>
        <pt x="418" y="-10" on="1"/>
        <pt x="372" y="-10" on="0"/>
        <pt x="284" y="18" on="0"/>
        <pt x="197" y="85" on="0"/>
        <pt x="132" y="183" on="0"/>
        <pt x="92" y="336" on="0"/>
        <pt x="92" y="430" on="1"/>
        <pt x="92" y="525" on="0"/>
        <pt x="135" y="677" on="0"/>
        <pt x="204" y="772" on="0"/>
        <pt x="297" y="835" on="0"/>
        <pt x="390" y="860" on="0"/>
        <pt x="438" y="860" on="1"/>
        <pt x="492" y="860" on="0"/>
        <pt x="584" y="833" on="0"/>
        <pt x="636" y="800" on="0"/>
        <pt x="676" y="756" on="0"/>
        <pt x="686" y="739" on="0"/>
        <pt x="688" y="734" on="1"/>
        <pt x="688" y="1262" on="1"/>
        <pt x="688" y="1289" on="0"/>
        <pt x="684" y="1315" on="0"/>
        <pt x="663" y="1347" on="0"/>
        <pt x="613" y="1360" on="0"/>
        <pt x="570" y="1360" on="1"/>
        <pt x="570" y="1400" on="1"/>
        <pt x="790" y="1400" on="1"/>
        <pt x="790" y="142" on="1"/>
        <pt x="790" y="115" on="0"/>
        <pt x="794" y="89" on="0"/>
        <pt x="815" y="57" on="0"/>
        <pt x="865" y="44" on="0"/>
        <pt x="908" y="44" on="1"/>
        <pt x="908" y="0" on="1"/>
      </contour>
      <contour>
        <pt x="446" y="758" on="1"/>
        <pt x="321" y="758" on="0"/>
        <pt x="200" y="576" on="0"/>
        <pt x="200" y="418" on="1"/>
        <pt x="200" y="238" on="0"/>
        <pt x="332" y="42" on="0"/>
        <pt x="444" y="42" on="1"/>
        <pt x="498" y="42" on="0"/>
        <pt x="595" y="110" on="0"/>
        <pt x="654" y="206" on="0"/>
        <pt x="688" y="301" on="0"/>
        <pt x="688" y="332" on="1"/>
        <pt x="688" y="564" on="1"/>
        <pt x="688" y="587" on="0"/>
        <pt x="656" y="650" on="0"/>
        <pt x="599" y="714" on="0"/>
        <pt x="502" y="758" on="0"/>
      </contour>
    </TTGlyph>
    <TTGlyph name="degree" xMin="50" yMin="1032" xMax="550" yMax="1532">
      <contour>
        <pt x="50" y="1178" on="0"/>
        <pt x="50" y="1386" on="0"/>
        <pt x="196" y="1532" on="0"/>
        <pt x="404" y="1532" on="0"/>
        <pt x="550" y="1386" on="0"/>
        <pt x="550" y="1178" on="0"/>
        <pt x="404" y="1032" on="0"/>
        <pt x="196" y="1032" on="0"/>
      </contour>
      <contour>
        <pt x="106" y="1362" on="0"/>
        <pt x="106" y="1202" on="0"/>
        <pt x="220" y="1088" on="0"/>
        <pt x="380" y="1088" on="0"/>
        <pt x="494" y="1202" on="0"/>
        <pt x="494" y="1362" on="0"/>
        <pt x="380" y="1476" on="0"/>
        <pt x="220" y="1476" on="0"/>
      </contour>
    </TTGlyph>
    <TTGlyph name="dieresis" xMin="218" yMin="1078" xMax="642" yMax="1225">
      <contour>
        <pt x="218" y="1122" on="0"/>
        <pt x="218" y="1182" on="0"/>
        <pt x="260" y="1226" on="0"/>
        <pt x="320" y="1222" on="0"/>
        <pt x="362" y="1184" on="0"/>
        <pt x="364" y="1122" on="0"/>
        <pt x="320" y="1080" on="0"/>
        <pt x="260" y="1080" on="0"/>
      </contour>
      <contour>
        <pt x="496" y="1120" on="0"/>
        <pt x="496" y="1180" on="0"/>
        <pt x="538" y="1224" on="0"/>
        <pt x="598" y="1224" on="0"/>
        <pt x="642" y="1180" on="0"/>
        <pt x="642" y="1120" on="0"/>
        <pt x="598" y="1078" on="0"/>
        <pt x="538" y="1078" on="0"/>
      </contour>
    </TTGlyph>
    <TTGlyph name="divide" xMin="52" yMin="34" xMax="844" yMax="826">
      <contour>
        <pt x="844" y="382" on="1"/>
        <pt x="52" y="382" on="1"/>
        <pt x="52" y="476" on="1"/>
        <pt x="844" y="476" on="1"/>
      </contour>
      <contour>
        <pt x="350" y="698" on="0"/>
        <pt x="350" y="774" on="0"/>
        <pt x="402" y="826" on="0"/>
        <pt x="478" y="826" on="0"/>
        <pt x="530" y="774" on="0"/>
        <pt x="530" y="698" on="0"/>
        <pt x="478" y="646" on="0"/>
        <pt x="402" y="646" on="0"/>
      </contour>
      <contour>
        <pt x="350" y="86" on="0"/>
        <pt x="350" y="162" on="0"/>
        <pt x="402" y="214" on="0"/>
        <pt x="478" y="214" on="0"/>
        <pt x="530" y="162" on="0"/>
        <pt x="530" y="86" on="0"/>
        <pt x="478" y="34" on="0"/>
        <pt x="402" y="34" on="0"/>
      </contour>
    </TTGlyph>
    <TTGlyph name="dollar" xMin="98" yMin="-30" xMax="862" yMax="1430">
      <contour>
        <pt x="410" y="1430" on="1"/>
        <pt x="514" y="1430" on="1"/>
        <pt x="514" y="1321" on="1"/>
        <pt x="561" y="1317" on="0"/>
        <pt x="651" y="1291" on="0"/>
        <pt x="707" y="1265" on="0"/>
        <pt x="759" y="1232" on="0"/>
        <pt x="774" y="1220" on="0"/>
        <pt x="778" y="1216" on="1"/>
        <pt x="778" y="1040" on="1"/>
        <pt x="720" y="1040" on="1"/>
        <pt x="716" y="1059" on="1"/>
        <pt x="714" y="1072" on="0"/>
        <pt x="696" y="1106" on="1"/>
        <pt x="682" y="1133" on="0"/>
        <pt x="660" y="1165" on="1"/>
        <pt x="640" y="1194" on="0"/>
        <pt x="600" y="1222" on="1"/>
        <pt x="563" y="1248" on="0"/>
        <pt x="514" y="1259" on="1"/>
        <pt x="514" y="742" on="1"/>
        <pt x="563" y="718" on="0"/>
        <pt x="613" y="692" on="0"/>
        <pt x="700" y="643" on="0"/>
        <pt x="747" y="606" on="0"/>
        <pt x="808" y="549" on="0"/>
        <pt x="839" y="496" on="0"/>
        <pt x="862" y="426" on="0"/>
        <pt x="862" y="388" on="1"/>
        <pt x="862" y="317" on="0"/>
        <pt x="800" y="201" on="0"/>
        <pt x="697" y="128" on="0"/>
        <pt x="578" y="84" on="0"/>
        <pt x="514" y="77" on="1"/>
        <pt x="514" y="-30" on="1"/>
        <pt x="410" y="-30" on="1"/>
        <pt x="410" y="75" on="1"/>
        <pt x="328" y="81" on="0"/>
        <pt x="165" y="138" on="0"/>
        <pt x="112" y="168" on="0"/>
        <pt x="98" y="178" on="1"/>
        <pt x="98" y="360" on="1"/>
        <pt x="156" y="360" on="1"/>
        <pt x="160" y="340" on="1"/>
        <pt x="163" y="324" on="0"/>
        <pt x="182" y="290" on="1"/>
        <pt x="199" y="260" on="0"/>
        <pt x="224" y="230" on="1"/>
        <pt x="249" y="199" on="0"/>
        <pt x="347" y="147" on="0"/>
        <pt x="410" y="138" on="1"/>
        <pt x="410" y="664" on="1"/>
        <pt x="353" y="692" on="0"/>
        <pt x="316" y="713" on="1"/>
        <pt x="271" y="739" on="0"/>
        <pt x="234" y="766" on="1"/>
        <pt x="192" y="797" on="0"/>
        <pt x="162" y="831" on="1"/>
        <pt x="137" y="859" on="0"/>
        <pt x="116" y="908" on="1"/>
        <pt x="98" y="951" on="0"/>
        <pt x="98" y="1011" on="1"/>
        <pt x="98" y="1125" on="0"/>
        <pt x="180" y="1216" on="1"/>
        <pt x="264" y="1306" on="0"/>
        <pt x="410" y="1321" on="1"/>
      </contour>
      <contour>
        <pt x="744" y="354" on="1"/>
        <pt x="744" y="399" on="0"/>
        <pt x="709" y="475" on="0"/>
        <pt x="640" y="538" on="0"/>
        <pt x="567" y="585" on="0"/>
        <pt x="514" y="613" on="1"/>
        <pt x="514" y="136" on="1"/>
        <pt x="624" y="147" on="0"/>
        <pt x="744" y="275" on="0"/>
      </contour>
      <contour>
        <pt x="210" y="1034" on="1"/>
        <pt x="210" y="959" on="0"/>
        <pt x="314" y="847" on="0"/>
        <pt x="410" y="795" on="1"/>
        <pt x="410" y="1263" on="1"/>
        <pt x="324" y="1251" on="0"/>
        <pt x="210" y="1128" on="0"/>
      </contour>
    </TTGlyph>
    <TTGlyph name="dotaccent" xMin="350" yMin="1112" xMax="496" yMax="1258">
      <contour>
        <pt x="350" y="1154" on="0"/>
        <pt x="350" y="1214" on="0"/>
        <pt x="392" y="1258" on="0"/>
        <pt x="452" y="1258" on="0"/>
        <pt x="496" y="1214" on="0"/>
        <pt x="496" y="1154" on="0"/>
        <pt x="452" y="1112" on="0"/>
        <pt x="392" y="1112" on="0"/>
      </contour>
    </TTGlyph>
    <TTGlyph name="dotlessi" xMin="88" yMin="0" xMax="308" yMax="862">
      <contour>
        <pt x="206" y="0" on="1"/>
        <pt x="206" y="722" on="1"/>
        <pt x="206" y="749" on="0"/>
        <pt x="202" y="775" on="0"/>
        <pt x="181" y="807" on="0"/>
        <pt x="131" y="820" on="0"/>
        <pt x="88" y="820" on="1"/>
        <pt x="88" y="862" on="1"/>
        <pt x="308" y="862" on="1"/>
        <pt x="308" y="0" on="1"/>
      </contour>
    </TTGlyph>
    <TTGlyph name="e" xMin="92" yMin="0" xMax="794" yMax="862">
      <contour>
        <pt x="450" y="862" on="1"/>
        <pt x="509" y="862" on="0"/>
        <pt x="607" y="836" on="0"/>
        <pt x="675" y="796" on="0"/>
        <pt x="728" y="738" on="0"/>
        <pt x="759" y="681" on="0"/>
        <pt x="781" y="615" on="0"/>
        <pt x="789" y="567" on="0"/>
        <pt x="793" y="517" on="0"/>
        <pt x="792" y="501" on="0"/>
        <pt x="792" y="496" on="1"/>
        <pt x="202" y="496" on="1"/>
        <pt x="201" y="475" on="0"/>
        <pt x="201" y="455" on="1"/>
        <pt x="201" y="293" on="0"/>
        <pt x="267" y="202" on="1"/>
        <pt x="341" y="100" on="0"/>
        <pt x="480" y="100" on="1"/>
        <pt x="520" y="100" on="0"/>
        <pt x="601" y="130" on="0"/>
        <pt x="655" y="167" on="0"/>
        <pt x="705" y="215" on="0"/>
        <pt x="720" y="234" on="0"/>
        <pt x="724" y="240" on="1"/>
        <pt x="794" y="178" on="1"/>
        <pt x="781" y="160" on="1"/>
        <pt x="768" y="141" on="0"/>
        <pt x="711" y="89" on="0"/>
        <pt x="636" y="37" on="0"/>
        <pt x="522" y="0" on="0"/>
        <pt x="460" y="0" on="1"/>
        <pt x="297" y="0" on="0"/>
        <pt x="92" y="248" on="0"/>
        <pt x="92" y="432" on="1"/>
        <pt x="92" y="622" on="0"/>
        <pt x="294" y="862" on="0"/>
      </contour>
      <contour>
        <pt x="206" y="536" on="1"/>
        <pt x="686" y="536" on="1"/>
        <pt x="686" y="554" on="0"/>
        <pt x="679" y="608" on="0"/>
        <pt x="650" y="697" on="0"/>
        <pt x="603" y="769" on="0"/>
        <pt x="511" y="822" on="0"/>
        <pt x="450" y="822" on="1"/>
        <pt x="390" y="822" on="0"/>
        <pt x="297" y="768" on="0"/>
        <pt x="248" y="697" on="0"/>
        <pt x="216" y="607" on="0"/>
        <pt x="207" y="555" on="0"/>
      </contour>
    </TTGlyph>
    <TTGlyph name="eacute" xMin="92" yMin="0" xMax="794" yMax="1338">
      <component glyphName="acute" x="0" y="0" flags="0x1004"/>
      <component glyphName="e" x="0" y="0" flags="0x1004"/>
    </TTGlyph>
    <TTGlyph name="ecircumflex" xMin="88" yMin="0" xMax="790" yMax="1294">
      <component glyphName="circumflex" x="33" y="0" flags="0x1004"/>
      <component glyphName="e" x="-4" y="0" flags="0x1004"/>
    </TTGlyph>
    <TTGlyph name="edieresis" xMin="90" yMin="0" xMax="792" yMax="1225">
      <component glyphName="dieresis" x="19" y="0" flags="0x1004"/>
      <component glyphName="e" x="-2" y="0" flags="0x1004"/>
    </TTGlyph>
    <TTGlyph name="egrave" xMin="92" yMin="0" xMax="794" yMax="1340">
      <component glyphName="grave" x="26" y="0" flags="0x1004"/>
      <component glyphName="e" x="0" y="0" flags="0x1004"/>
    </TTGlyph>
    <TTGlyph name="eight" xMin="110" yMin="-16" xMax="910" yMax="1410">
      <contour>
        <pt x="508" y="1410" on="1"/>
        <pt x="600" y="1410" on="0"/>
        <pt x="674" y="1378" on="1"/>
        <pt x="748" y="1347" on="0"/>
        <pt x="792" y="1296" on="1"/>
        <pt x="835" y="1247" on="0"/>
        <pt x="858" y="1192" on="1"/>
        <pt x="882" y="1134" on="0"/>
        <pt x="882" y="1073" on="1"/>
        <pt x="882" y="1038" on="0"/>
        <pt x="868" y="970" on="0"/>
        <pt x="847" y="930" on="1"/>
        <pt x="826" y="891" on="0"/>
        <pt x="777" y="833" on="0"/>
        <pt x="728" y="791" on="0"/>
        <pt x="691" y="763" on="0"/>
        <pt x="628" y="722" on="0"/>
        <pt x="620" y="716" on="1"/>
        <pt x="910" y="559" on="0"/>
        <pt x="910" y="334" on="1"/>
        <pt x="910" y="244" on="0"/>
        <pt x="844" y="106" on="0"/>
        <pt x="730" y="25" on="0"/>
        <pt x="590" y="-16" on="0"/>
        <pt x="510" y="-16" on="1"/>
        <pt x="432" y="-16" on="0"/>
        <pt x="293" y="25" on="0"/>
        <pt x="178" y="106" on="0"/>
        <pt x="110" y="245" on="0"/>
        <pt x="110" y="334" on="1"/>
        <pt x="110" y="454" on="0"/>
        <pt x="259" y="637" on="0"/>
        <pt x="400" y="716" on="1"/>
        <pt x="390" y="723" on="0"/>
        <pt x="319" y="771" on="0"/>
        <pt x="274" y="804" on="0"/>
        <pt x="207" y="871" on="0"/>
        <pt x="168" y="935" on="0"/>
        <pt x="138" y="1032" on="0"/>
        <pt x="138" y="1086" on="1"/>
        <pt x="138" y="1128" on="0"/>
        <pt x="167" y="1216" on="0"/>
        <pt x="229" y="1301" on="0"/>
        <pt x="315" y="1369" on="0"/>
        <pt x="438" y="1410" on="0"/>
      </contour>
      <contour>
        <pt x="510" y="1366" on="1"/>
        <pt x="392" y="1366" on="0"/>
        <pt x="242" y="1210" on="0"/>
        <pt x="242" y="1100" on="1"/>
        <pt x="242" y="1056" on="0"/>
        <pt x="278" y="973" on="0"/>
        <pt x="325" y="914" on="0"/>
        <pt x="408" y="848" on="0"/>
        <pt x="464" y="813" on="0"/>
        <pt x="510" y="786" on="1"/>
        <pt x="548" y="808" on="0"/>
        <pt x="592" y="836" on="0"/>
        <pt x="659" y="882" on="0"/>
        <pt x="707" y="927" on="0"/>
        <pt x="734" y="960" on="1"/>
        <pt x="758" y="994" on="0"/>
        <pt x="780" y="1063" on="0"/>
        <pt x="780" y="1100" on="1"/>
        <pt x="780" y="1209" on="0"/>
        <pt x="626" y="1366" on="0"/>
      </contour>
      <contour>
        <pt x="510" y="92" on="1"/>
        <pt x="633" y="92" on="0"/>
        <pt x="790" y="222" on="0"/>
        <pt x="790" y="334" on="1"/>
        <pt x="790" y="392" on="0"/>
        <pt x="729" y="500" on="0"/>
        <pt x="656" y="567" on="0"/>
        <pt x="559" y="627" on="0"/>
        <pt x="521" y="644" on="0"/>
        <pt x="510" y="648" on="1"/>
        <pt x="481" y="636" on="1"/>
        <pt x="452" y="624" on="0"/>
        <pt x="370" y="570" on="0"/>
        <pt x="288" y="500" on="0"/>
        <pt x="230" y="392" on="0"/>
        <pt x="230" y="334" on="1"/>
        <pt x="230" y="227" on="0"/>
        <pt x="384" y="92" on="0"/>
      </contour>
    </TTGlyph>
    <TTGlyph name="emdash" xMin="80" yMin="420" xMax="1450" yMax="520">
      <contour>
        <pt x="80" y="420" on="1"/>
        <pt x="80" y="520" on="1"/>
        <pt x="1450" y="520" on="1"/>
        <pt x="1450" y="420" on="1"/>
      </contour>
    </TTGlyph>
    <TTGlyph name="endash" xMin="80" yMin="420" xMax="768" yMax="520">
      <contour>
        <pt x="80" y="420" on="1"/>
        <pt x="80" y="520" on="1"/>
        <pt x="768" y="520" on="1"/>
        <pt x="768" y="420" on="1"/>
      </contour>
    </TTGlyph>
    <TTGlyph name="equal" xMin="44" yMin="252" xMax="836" yMax="598">
      <contour>
        <pt x="836" y="504" on="1"/>
        <pt x="44" y="504" on="1"/>
        <pt x="44" y="598" on="1"/>
        <pt x="836" y="598" on="1"/>
      </contour>
      <contour>
        <pt x="836" y="252" on="1"/>
        <pt x="44" y="252" on="1"/>
        <pt x="44" y="346" on="1"/>
        <pt x="836" y="346" on="1"/>
      </contour>
    </TTGlyph>
    <TTGlyph name="eth" xMin="92" yMin="-28" xMax="892" yMax="1410">
      <contour>
        <pt x="252" y="1104" on="1"/>
        <pt x="484" y="1208" on="1"/>
        <pt x="441" y="1254" on="0"/>
        <pt x="351" y="1332" on="0"/>
        <pt x="328" y="1348" on="1"/>
        <pt x="304" y="1364" on="1"/>
        <pt x="334" y="1410" on="1"/>
        <pt x="435" y="1350" on="0"/>
        <pt x="551" y="1237" on="1"/>
        <pt x="784" y="1342" on="1"/>
        <pt x="816" y="1270" on="1"/>
        <pt x="609" y="1177" on="1"/>
        <pt x="892" y="868" on="0"/>
        <pt x="892" y="510" on="1"/>
        <pt x="892" y="374" on="0"/>
        <pt x="821" y="161" on="0"/>
        <pt x="702" y="36" on="0"/>
        <pt x="558" y="-28" on="0"/>
        <pt x="480" y="-28" on="1"/>
        <pt x="303" y="-28" on="0"/>
        <pt x="92" y="206" on="0"/>
        <pt x="92" y="418" on="1"/>
        <pt x="92" y="499" on="0"/>
        <pt x="138" y="635" on="0"/>
        <pt x="214" y="728" on="0"/>
        <pt x="312" y="792" on="0"/>
        <pt x="415" y="822" on="0"/>
        <pt x="466" y="822" on="1"/>
        <pt x="522" y="822" on="0"/>
        <pt x="624" y="790" on="0"/>
        <pt x="685" y="752" on="0"/>
        <pt x="739" y="698" on="0"/>
        <pt x="754" y="678" on="0"/>
        <pt x="760" y="668" on="1"/>
        <pt x="715" y="930" on="0"/>
        <pt x="538" y="1146" on="1"/>
        <pt x="284" y="1032" on="1"/>
      </contour>
      <contour>
        <pt x="754" y="420" on="1"/>
        <pt x="754" y="457" on="0"/>
        <pt x="741" y="531" on="0"/>
        <pt x="701" y="616" on="0"/>
        <pt x="640" y="680" on="0"/>
        <pt x="532" y="722" on="0"/>
        <pt x="462" y="722" on="1"/>
        <pt x="350" y="722" on="0"/>
        <pt x="206" y="558" on="0"/>
        <pt x="206" y="418" on="1"/>
        <pt x="206" y="267" on="0"/>
        <pt x="346" y="78" on="0"/>
        <pt x="464" y="78" on="1"/>
        <pt x="530" y="78" on="0"/>
        <pt x="633" y="122" on="0"/>
        <pt x="696" y="192" on="0"/>
        <pt x="738" y="285" on="0"/>
        <pt x="754" y="374" on="0"/>
      </contour>
    </TTGlyph>
    <TTGlyph name="exclam" xMin="298" yMin="0" xMax="478" yMax="1306">
      <contour>
        <pt x="454" y="1306" on="1"/>
        <pt x="454" y="904" on="1"/>
        <pt x="454" y="776" on="0"/>
        <pt x="410" y="312" on="1"/>
        <pt x="366" y="312" on="1"/>
        <pt x="356" y="431" on="1"/>
        <pt x="345" y="550" on="0"/>
        <pt x="324" y="846" on="0"/>
        <pt x="324" y="904" on="1"/>
        <pt x="324" y="1306" on="1"/>
      </contour>
      <contour>
        <pt x="298" y="52" on="0"/>
        <pt x="298" y="128" on="0"/>
        <pt x="350" y="180" on="0"/>
        <pt x="426" y="180" on="0"/>
        <pt x="478" y="128" on="0"/>
        <pt x="478" y="52" on="0"/>
        <pt x="426" y="0" on="0"/>
        <pt x="350" y="0" on="0"/>
      </contour>
    </TTGlyph>
    <TTGlyph name="exclamdown" xMin="298" yMin="-400" xMax="478" yMax="906">
      <contour>
        <pt x="454" y="-400" on="1"/>
        <pt x="324" y="-400" on="1"/>
        <pt x="324" y="2" on="1"/>
        <pt x="324" y="60" on="0"/>
        <pt x="345" y="356" on="0"/>
        <pt x="356" y="475" on="1"/>
        <pt x="366" y="594" on="1"/>
        <pt x="410" y="594" on="1"/>
        <pt x="454" y="130" on="0"/>
        <pt x="454" y="2" on="1"/>
      </contour>
      <contour>
        <pt x="298" y="778" on="0"/>
        <pt x="298" y="854" on="0"/>
        <pt x="350" y="906" on="0"/>
        <pt x="426" y="906" on="0"/>
        <pt x="478" y="854" on="0"/>
        <pt x="478" y="778" on="0"/>
        <pt x="426" y="726" on="0"/>
        <pt x="350" y="726" on="0"/>
      </contour>
    </TTGlyph>
    <TTGlyph name="f" xMin="76" yMin="0" xMax="612" yMax="1398">
      <contour>
        <pt x="200" y="0" on="1"/>
        <pt x="200" y="818" on="1"/>
        <pt x="76" y="818" on="1"/>
        <pt x="76" y="860" on="1"/>
        <pt x="200" y="860" on="1"/>
        <pt x="200" y="1042" on="1"/>
        <pt x="200" y="1194" on="0"/>
        <pt x="374" y="1398" on="0"/>
        <pt x="484" y="1398" on="1"/>
        <pt x="522" y="1398" on="0"/>
        <pt x="584" y="1389" on="0"/>
        <pt x="596" y="1384" on="1"/>
        <pt x="608" y="1380" on="1"/>
        <pt x="612" y="1240" on="1"/>
        <pt x="582" y="1240" on="1"/>
        <pt x="561" y="1290" on="0"/>
        <pt x="486" y="1336" on="0"/>
        <pt x="444" y="1336" on="1"/>
        <pt x="302" y="1336" on="0"/>
        <pt x="302" y="1098" on="1"/>
        <pt x="302" y="860" on="1"/>
        <pt x="580" y="860" on="1"/>
        <pt x="580" y="818" on="1"/>
        <pt x="302" y="818" on="1"/>
        <pt x="302" y="0" on="1"/>
      </contour>
    </TTGlyph>
    <TTGlyph name="five" xMin="74" yMin="-12" xMax="904" yMax="1400">
      <contour>
        <pt x="818" y="1400" on="1"/>
        <pt x="804" y="1290" on="1"/>
        <pt x="314" y="1290" on="1"/>
        <pt x="278" y="820" on="1"/>
        <pt x="387" y="851" on="0"/>
        <pt x="479" y="851" on="1"/>
        <pt x="551" y="851" on="0"/>
        <pt x="608" y="834" on="1"/>
        <pt x="748" y="792" on="0"/>
        <pt x="826" y="684" on="1"/>
        <pt x="904" y="575" on="0"/>
        <pt x="904" y="428" on="1"/>
        <pt x="904" y="320" on="0"/>
        <pt x="834" y="148" on="0"/>
        <pt x="713" y="43" on="0"/>
        <pt x="559" y="-12" on="0"/>
        <pt x="472" y="-12" on="1"/>
        <pt x="406" y="-12" on="0"/>
        <pt x="275" y="23" on="0"/>
        <pt x="187" y="65" on="0"/>
        <pt x="106" y="120" on="0"/>
        <pt x="81" y="141" on="0"/>
        <pt x="74" y="148" on="1"/>
        <pt x="100" y="188" on="1"/>
        <pt x="116" y="177" on="1"/>
        <pt x="131" y="166" on="0"/>
        <pt x="194" y="135" on="0"/>
        <pt x="274" y="104" on="0"/>
        <pt x="389" y="82" on="0"/>
        <pt x="448" y="82" on="1"/>
        <pt x="606" y="82" on="0"/>
        <pt x="782" y="265" on="0"/>
        <pt x="782" y="416" on="1"/>
        <pt x="782" y="533" on="0"/>
        <pt x="708" y="619" on="1"/>
        <pt x="635" y="704" on="0"/>
        <pt x="508" y="732" on="1"/>
        <pt x="463" y="742" on="0"/>
        <pt x="411" y="742" on="1"/>
        <pt x="321" y="742" on="0"/>
        <pt x="216" y="712" on="1"/>
        <pt x="272" y="1400" on="1"/>
      </contour>
    </TTGlyph>
    <TTGlyph name="fl" xMin="78" yMin="0" xMax="858" yMax="1400">
      <contour>
        <pt x="756" y="0" on="1"/>
        <pt x="756" y="1262" on="1"/>
        <pt x="756" y="1289" on="0"/>
        <pt x="752" y="1315" on="0"/>
        <pt x="731" y="1347" on="0"/>
        <pt x="681" y="1360" on="0"/>
        <pt x="638" y="1360" on="1"/>
        <pt x="522" y="1360" on="1"/>
        <pt x="402" y="1360" on="0"/>
        <pt x="304" y="1223" on="0"/>
        <pt x="304" y="1098" on="1"/>
        <pt x="304" y="860" on="1"/>
        <pt x="582" y="860" on="1"/>
        <pt x="582" y="822" on="1"/>
        <pt x="304" y="822" on="1"/>
        <pt x="304" y="0" on="1"/>
        <pt x="202" y="0" on="1"/>
        <pt x="202" y="822" on="1"/>
        <pt x="78" y="822" on="1"/>
        <pt x="78" y="860" on="1"/>
        <pt x="202" y="860" on="1"/>
        <pt x="202" y="1042" on="1"/>
        <pt x="202" y="1194" on="0"/>
        <pt x="376" y="1400" on="0"/>
        <pt x="486" y="1400" on="1"/>
        <pt x="858" y="1400" on="1"/>
        <pt x="858" y="0" on="1"/>
      </contour>
    </TTGlyph>
    <TTGlyph name="four" xMin="74" yMin="0" xMax="1042" yMax="1400">
      <contour>
        <pt x="710" y="0" on="1"/>
        <pt x="710" y="436" on="1"/>
        <pt x="74" y="436" on="1"/>
        <pt x="74" y="514" on="1"/>
        <pt x="752" y="1400" on="1"/>
        <pt x="816" y="1400" on="1"/>
        <pt x="816" y="546" on="1"/>
        <pt x="1042" y="546" on="1"/>
        <pt x="1042" y="436" on="1"/>
        <pt x="816" y="436" on="1"/>
        <pt x="816" y="0" on="1"/>
      </contour>
      <contour>
        <pt x="710" y="1250" on="1"/>
        <pt x="168" y="546" on="1"/>
        <pt x="710" y="546" on="1"/>
      </contour>
    </TTGlyph>
    <TTGlyph name="g" xMin="72" yMin="-412" xMax="830" yMax="878">
      <contour>
        <pt x="118" y="560" on="1"/>
        <pt x="118" y="690" on="0"/>
        <pt x="304" y="876" on="0"/>
        <pt x="434" y="876" on="1"/>
        <pt x="499" y="876" on="0"/>
        <pt x="561" y="849" on="1"/>
        <pt x="830" y="878" on="1"/>
        <pt x="830" y="782" on="1"/>
        <pt x="659" y="782" on="1"/>
        <pt x="750" y="689" on="0"/>
        <pt x="750" y="560" on="1"/>
        <pt x="750" y="430" on="0"/>
        <pt x="564" y="244" on="0"/>
        <pt x="434" y="244" on="1"/>
        <pt x="355" y="244" on="0"/>
        <pt x="284" y="282" on="1"/>
        <pt x="208" y="231" on="0"/>
        <pt x="208" y="172" on="1"/>
        <pt x="208" y="127" on="0"/>
        <pt x="277" y="100" on="0"/>
        <pt x="370" y="100" on="1"/>
        <pt x="528" y="100" on="1"/>
        <pt x="571" y="100" on="0"/>
        <pt x="649" y="88" on="0"/>
        <pt x="731" y="54" on="0"/>
        <pt x="791" y="0" on="0"/>
        <pt x="830" y="-90" on="0"/>
        <pt x="830" y="-148" on="1"/>
        <pt x="830" y="-259" on="0"/>
        <pt x="632" y="-412" on="0"/>
        <pt x="444" y="-412" on="1"/>
        <pt x="369" y="-412" on="0"/>
        <pt x="243" y="-390" on="0"/>
        <pt x="134" y="-340" on="0"/>
        <pt x="72" y="-250" on="0"/>
        <pt x="72" y="-188" on="1"/>
        <pt x="72" y="-72" on="0"/>
        <pt x="195" y="15" on="1"/>
        <pt x="122" y="40" on="0"/>
        <pt x="122" y="122" on="1"/>
        <pt x="122" y="159" on="0"/>
        <pt x="175" y="242" on="0"/>
        <pt x="225" y="287" on="0"/>
        <pt x="248" y="304" on="1"/>
        <pt x="188" y="348" on="0"/>
        <pt x="118" y="483" on="0"/>
      </contour>
      <contour>
        <pt x="473" y="776" on="0"/>
        <pt x="391" y="776" on="0"/>
        <pt x="314" y="751" on="0"/>
        <pt x="243" y="698" on="0"/>
        <pt x="200" y="598" on="0"/>
        <pt x="200" y="532" on="1"/>
        <pt x="200" y="468" on="0"/>
        <pt x="241" y="369" on="0"/>
        <pt x="310" y="312" on="0"/>
        <pt x="390" y="284" on="0"/>
        <pt x="434" y="284" on="1"/>
        <pt x="526" y="284" on="0"/>
        <pt x="664" y="409" on="0"/>
        <pt x="664" y="532" on="1"/>
        <pt x="664" y="598" on="0"/>
        <pt x="621" y="698" on="0"/>
        <pt x="550" y="751" on="0"/>
      </contour>
      <contour>
        <pt x="362" y="0" on="1"/>
        <pt x="284" y="0" on="0"/>
        <pt x="252" y="4" on="1"/>
        <pt x="172" y="-61" on="0"/>
        <pt x="172" y="-174" on="1"/>
        <pt x="172" y="-245" on="0"/>
        <pt x="255" y="-338" on="0"/>
        <pt x="370" y="-372" on="0"/>
        <pt x="442" y="-372" on="1"/>
        <pt x="730" y="-372" on="0"/>
        <pt x="730" y="-174" on="1"/>
        <pt x="730" y="-88" on="0"/>
        <pt x="608" y="0" on="0"/>
        <pt x="490" y="0" on="1"/>
      </contour>
    </TTGlyph>
    <TTGlyph name="germandbls" xMin="84" yMin="-10" xMax="980" yMax="1398">
      <contour>
        <pt x="450" y="48" on="1"/>
        <pt x="450" y="152" on="1"/>
        <pt x="463" y="144" on="0"/>
        <pt x="508" y="121" on="0"/>
        <pt x="635" y="82" on="0"/>
        <pt x="692" y="82" on="1"/>
        <pt x="788" y="82" on="0"/>
        <pt x="884" y="174" on="0"/>
        <pt x="884" y="230" on="1"/>
        <pt x="884" y="269" on="0"/>
        <pt x="838" y="333" on="0"/>
        <pt x="765" y="379" on="0"/>
        <pt x="676" y="423" on="0"/>
        <pt x="587" y="473" on="0"/>
        <pt x="514" y="532" on="0"/>
        <pt x="468" y="620" on="0"/>
        <pt x="468" y="674" on="1"/>
        <pt x="468" y="724" on="0"/>
        <pt x="495" y="798" on="0"/>
        <pt x="538" y="843" on="0"/>
        <pt x="590" y="881" on="0"/>
        <pt x="642" y="923" on="0"/>
        <pt x="685" y="974" on="0"/>
        <pt x="712" y="1060" on="0"/>
        <pt x="712" y="1118" on="1"/>
        <pt x="712" y="1209" on="0"/>
        <pt x="618" y="1338" on="0"/>
        <pt x="520" y="1348" on="1"/>
        <pt x="495" y="1350" on="0"/>
        <pt x="445" y="1343" on="0"/>
        <pt x="384" y="1316" on="0"/>
        <pt x="339" y="1270" on="0"/>
        <pt x="308" y="1184" on="0"/>
        <pt x="308" y="1128" on="1"/>
        <pt x="308" y="0" on="1"/>
        <pt x="88" y="0" on="1"/>
        <pt x="88" y="42" on="1"/>
        <pt x="131" y="42" on="0"/>
        <pt x="181" y="55" on="0"/>
        <pt x="202" y="87" on="0"/>
        <pt x="206" y="113" on="0"/>
        <pt x="206" y="140" on="1"/>
        <pt x="206" y="812" on="1"/>
        <pt x="84" y="812" on="1"/>
        <pt x="84" y="862" on="1"/>
        <pt x="206" y="862" on="1"/>
        <pt x="206" y="1082" on="1"/>
        <pt x="206" y="1159" on="0"/>
        <pt x="280" y="1300" on="0"/>
        <pt x="435" y="1398" on="0"/>
        <pt x="536" y="1398" on="1"/>
        <pt x="659" y="1398" on="0"/>
        <pt x="820" y="1259" on="0"/>
        <pt x="820" y="1154" on="1"/>
        <pt x="820" y="1095" on="0"/>
        <pt x="792" y="1003" on="0"/>
        <pt x="747" y="946" on="0"/>
        <pt x="692" y="900" on="0"/>
        <pt x="637" y="860" on="0"/>
        <pt x="592" y="816" on="0"/>
        <pt x="564" y="749" on="0"/>
        <pt x="564" y="706" on="1"/>
        <pt x="564" y="659" on="0"/>
        <pt x="610" y="582" on="0"/>
        <pt x="683" y="530" on="0"/>
        <pt x="772" y="483" on="0"/>
        <pt x="861" y="433" on="0"/>
        <pt x="934" y="376" on="0"/>
        <pt x="980" y="291" on="0"/>
        <pt x="980" y="238" on="1"/>
        <pt x="980" y="123" on="0"/>
        <pt x="824" y="-10" on="0"/>
        <pt x="704" y="-10" on="1"/>
        <pt x="630" y="-10" on="0"/>
        <pt x="503" y="19" on="0"/>
        <pt x="476" y="34" on="1"/>
      </contour>
    </TTGlyph>
    <TTGlyph name="grave" xMin="242" yMin="1052" xMax="536" yMax="1340">
      <contour>
        <pt x="536" y="1052" on="1"/>
        <pt x="482" y="1052" on="1"/>
        <pt x="242" y="1340" on="1"/>
        <pt x="380" y="1340" on="1"/>
      </contour>
    </TTGlyph>
    <TTGlyph name="greater" xMin="40" yMin="2" xMax="860" yMax="862">
      <contour>
        <pt x="860" y="384" on="1"/>
        <pt x="40" y="2" on="1"/>
        <pt x="40" y="102" on="1"/>
        <pt x="736" y="432" on="1"/>
        <pt x="40" y="762" on="1"/>
        <pt x="40" y="862" on="1"/>
        <pt x="860" y="484" on="1"/>
      </contour>
    </TTGlyph>
    <TTGlyph name="guillemotleft" xMin="100" yMin="82" xMax="780" yMax="782">
      <contour>
        <pt x="100" y="470" on="1"/>
        <pt x="424" y="782" on="1"/>
        <pt x="460" y="752" on="1"/>
        <pt x="202" y="432" on="1"/>
        <pt x="460" y="112" on="1"/>
        <pt x="424" y="82" on="1"/>
        <pt x="100" y="394" on="1"/>
      </contour>
      <contour>
        <pt x="420" y="470" on="1"/>
        <pt x="744" y="782" on="1"/>
        <pt x="780" y="752" on="1"/>
        <pt x="522" y="432" on="1"/>
        <pt x="780" y="112" on="1"/>
        <pt x="744" y="82" on="1"/>
        <pt x="420" y="394" on="1"/>
      </contour>
    </TTGlyph>
    <TTGlyph name="guillemotright" xMin="108" yMin="82" xMax="788" yMax="782">
      <contour>
        <pt x="788" y="470" on="1"/>
        <pt x="788" y="394" on="1"/>
        <pt x="464" y="82" on="1"/>
        <pt x="428" y="112" on="1"/>
        <pt x="686" y="432" on="1"/>
        <pt x="428" y="752" on="1"/>
        <pt x="464" y="782" on="1"/>
      </contour>
      <contour>
        <pt x="468" y="470" on="1"/>
        <pt x="468" y="394" on="1"/>
        <pt x="144" y="82" on="1"/>
        <pt x="108" y="112" on="1"/>
        <pt x="366" y="432" on="1"/>
        <pt x="108" y="752" on="1"/>
        <pt x="144" y="782" on="1"/>
      </contour>
    </TTGlyph>
    <TTGlyph name="guilsinglleft" xMin="100" yMin="82" xMax="460" yMax="782">
      <contour>
        <pt x="100" y="470" on="1"/>
        <pt x="424" y="782" on="1"/>
        <pt x="460" y="752" on="1"/>
        <pt x="202" y="432" on="1"/>
        <pt x="460" y="112" on="1"/>
        <pt x="424" y="82" on="1"/>
        <pt x="100" y="394" on="1"/>
      </contour>
    </TTGlyph>
    <TTGlyph name="guilsinglright" xMin="104" yMin="82" xMax="464" yMax="782">
      <contour>
        <pt x="464" y="470" on="1"/>
        <pt x="464" y="394" on="1"/>
        <pt x="140" y="82" on="1"/>
        <pt x="104" y="112" on="1"/>
        <pt x="362" y="432" on="1"/>
        <pt x="104" y="752" on="1"/>
        <pt x="140" y="782" on="1"/>
      </contour>
    </TTGlyph>
    <TTGlyph name="h" xMin="80" yMin="0" xMax="888" yMax="1400">
      <contour>
        <pt x="80" y="1400" on="1"/>
        <pt x="300" y="1400" on="1"/>
        <pt x="300" y="680" on="1"/>
        <pt x="404" y="766" on="0"/>
        <pt x="622" y="872" on="0"/>
        <pt x="696" y="872" on="1"/>
        <pt x="802" y="872" on="0"/>
        <pt x="888" y="763" on="0"/>
        <pt x="888" y="632" on="1"/>
        <pt x="888" y="0" on="1"/>
        <pt x="786" y="0" on="1"/>
        <pt x="786" y="606" on="1"/>
        <pt x="786" y="703" on="0"/>
        <pt x="732" y="784" on="0"/>
        <pt x="650" y="784" on="1"/>
        <pt x="572" y="784" on="0"/>
        <pt x="365" y="683" on="0"/>
        <pt x="300" y="620" on="1"/>
        <pt x="300" y="0" on="1"/>
        <pt x="198" y="0" on="1"/>
        <pt x="198" y="1262" on="1"/>
        <pt x="198" y="1289" on="0"/>
        <pt x="194" y="1315" on="0"/>
        <pt x="173" y="1347" on="0"/>
        <pt x="123" y="1360" on="0"/>
        <pt x="80" y="1360" on="1"/>
      </contour>
    </TTGlyph>
    <TTGlyph name="hungarumlaut" xMin="380" yMin="1050" xMax="942" yMax="1340">
      <contour>
        <pt x="380" y="1052" on="1"/>
        <pt x="536" y="1340" on="1"/>
        <pt x="674" y="1340" on="1"/>
        <pt x="434" y="1052" on="1"/>
      </contour>
      <contour>
        <pt x="648" y="1050" on="1"/>
        <pt x="804" y="1338" on="1"/>
        <pt x="942" y="1338" on="1"/>
        <pt x="702" y="1050" on="1"/>
      </contour>
    </TTGlyph>
    <TTGlyph name="hyphen" xMin="90" yMin="420" xMax="582" yMax="520">
      <contour>
        <pt x="90" y="420" on="1"/>
        <pt x="90" y="520" on="1"/>
        <pt x="582" y="520" on="1"/>
        <pt x="582" y="420" on="1"/>
      </contour>
    </TTGlyph>
    <TTGlyph name="i" xMin="82" yMin="0" xMax="322" yMax="1258">
      <contour>
        <pt x="200" y="0" on="1"/>
        <pt x="200" y="724" on="1"/>
        <pt x="200" y="751" on="0"/>
        <pt x="196" y="777" on="0"/>
        <pt x="175" y="809" on="0"/>
        <pt x="125" y="822" on="0"/>
        <pt x="82" y="822" on="1"/>
        <pt x="82" y="864" on="1"/>
        <pt x="302" y="864" on="1"/>
        <pt x="302" y="0" on="1"/>
      </contour>
      <contour>
        <pt x="176" y="1154" on="0"/>
        <pt x="176" y="1214" on="0"/>
        <pt x="218" y="1258" on="0"/>
        <pt x="278" y="1258" on="0"/>
        <pt x="322" y="1214" on="0"/>
        <pt x="322" y="1154" on="0"/>
        <pt x="278" y="1112" on="0"/>
        <pt x="218" y="1112" on="0"/>
      </contour>
    </TTGlyph>
    <TTGlyph name="iacute" xMin="84" yMin="0" xMax="378" yMax="1338">
      <component glyphName="acute" x="-268" y="0" flags="0x1004"/>
      <component glyphName="dotlessi" x="0" y="0" flags="0x1004"/>
    </TTGlyph>
    <TTGlyph name="icircumflex" xMin="-13" yMin="0" xMax="465" yMax="1294">
      <component glyphName="circumflex" x="-191" y="0" flags="0x1004"/>
      <component glyphName="dotlessi" x="0" y="0" flags="0x1004"/>
    </TTGlyph>
    <TTGlyph name="idieresis" xMin="14" yMin="0" xMax="438" yMax="1225">
      <component glyphName="dieresis" x="-204" y="0" flags="0x1004"/>
      <component glyphName="dotlessi" x="0" y="0" flags="0x1004"/>
    </TTGlyph>
    <TTGlyph name="igrave" xMin="79" yMin="0" xMax="373" yMax="1340">
      <component glyphName="grave" x="-163" y="0" flags="0x1004"/>
      <component glyphName="dotlessi" x="0" y="0" flags="0x1004"/>
    </TTGlyph>
    <TTGlyph name="j" xMin="76" yMin="-392" xMax="298" yMax="1258">
      <contour>
        <pt x="110" y="-392" on="1"/>
        <pt x="110" y="-356" on="1"/>
        <pt x="151" y="-356" on="0"/>
        <pt x="194" y="-236" on="0"/>
        <pt x="194" y="-130" on="1"/>
        <pt x="194" y="722" on="1"/>
        <pt x="194" y="749" on="0"/>
        <pt x="190" y="775" on="0"/>
        <pt x="169" y="807" on="0"/>
        <pt x="119" y="820" on="0"/>
        <pt x="76" y="820" on="1"/>
        <pt x="76" y="862" on="1"/>
        <pt x="294" y="862" on="1"/>
        <pt x="294" y="-54" on="1"/>
        <pt x="294" y="-134" on="0"/>
        <pt x="255" y="-287" on="0"/>
        <pt x="176" y="-392" on="0"/>
        <pt x="126" y="-392" on="1"/>
      </contour>
      <contour>
        <pt x="152" y="1154" on="0"/>
        <pt x="152" y="1214" on="0"/>
        <pt x="194" y="1258" on="0"/>
        <pt x="254" y="1258" on="0"/>
        <pt x="298" y="1214" on="0"/>
        <pt x="298" y="1154" on="0"/>
        <pt x="254" y="1112" on="0"/>
        <pt x="194" y="1112" on="0"/>
      </contour>
    </TTGlyph>
    <TTGlyph name="k" xMin="72" yMin="0" xMax="986" yMax="1400">
      <contour>
        <pt x="986" y="0" on="1"/>
        <pt x="840" y="0" on="1"/>
        <pt x="400" y="502" on="1"/>
        <pt x="292" y="395" on="1"/>
        <pt x="292" y="0" on="1"/>
        <pt x="190" y="0" on="1"/>
        <pt x="190" y="1262" on="1"/>
        <pt x="190" y="1289" on="0"/>
        <pt x="186" y="1315" on="0"/>
        <pt x="165" y="1347" on="0"/>
        <pt x="115" y="1360" on="0"/>
        <pt x="72" y="1360" on="1"/>
        <pt x="72" y="1360" on="0"/>
        <pt x="72" y="1400" on="1"/>
        <pt x="292" y="1400" on="1"/>
        <pt x="292" y="466" on="1"/>
        <pt x="690" y="862" on="1"/>
        <pt x="866" y="862" on="1"/>
        <pt x="866" y="810" on="1"/>
        <pt x="775" y="810" on="0"/>
        <pt x="676" y="774" on="0"/>
        <pt x="610" y="708" on="1"/>
        <pt x="480" y="580" on="1"/>
      </contour>
    </TTGlyph>
    <TTGlyph name="l" xMin="76" yMin="0" xMax="296" yMax="1400">
      <contour>
        <pt x="194" y="0" on="1"/>
        <pt x="194" y="1262" on="1"/>
        <pt x="194" y="1289" on="0"/>
        <pt x="190" y="1315" on="0"/>
        <pt x="169" y="1347" on="0"/>
        <pt x="119" y="1360" on="0"/>
        <pt x="76" y="1360" on="1"/>
        <pt x="76" y="1400" on="1"/>
        <pt x="296" y="1400" on="1"/>
        <pt x="296" y="0" on="1"/>
      </contour>
    </TTGlyph>
    <TTGlyph name="less" xMin="48" yMin="2" xMax="868" yMax="862">
      <contour>
        <pt x="48" y="384" on="1"/>
        <pt x="48" y="484" on="1"/>
        <pt x="868" y="862" on="1"/>
        <pt x="868" y="762" on="1"/>
        <pt x="172" y="432" on="1"/>
        <pt x="868" y="102" on="1"/>
        <pt x="868" y="2" on="1"/>
      </contour>
    </TTGlyph>
    <TTGlyph name="logicalnot" xMin="52" yMin="346" xMax="844" yMax="862">
      <contour>
        <pt x="844" y="346" on="1"/>
        <pt x="750" y="346" on="1"/>
        <pt x="750" y="768" on="1"/>
        <pt x="52" y="768" on="1"/>
        <pt x="52" y="862" on="1"/>
        <pt x="844" y="862" on="1"/>
      </contour>
    </TTGlyph>
    <TTGlyph name="m" xMin="80" yMin="0" xMax="1414" yMax="872">
      <contour>
        <pt x="856" y="620" on="1"/>
        <pt x="856" y="620" on="0"/>
        <pt x="856" y="0" on="1"/>
        <pt x="754" y="0" on="1"/>
        <pt x="754" y="598" on="1"/>
        <pt x="754" y="712" on="0"/>
        <pt x="699" y="788" on="0"/>
        <pt x="624" y="788" on="1"/>
        <pt x="580" y="788" on="0"/>
        <pt x="485" y="756" on="0"/>
        <pt x="393" y="696" on="0"/>
        <pt x="334" y="651" on="0"/>
        <pt x="298" y="620" on="1"/>
        <pt x="298" y="0" on="1"/>
        <pt x="198" y="0" on="1"/>
        <pt x="198" y="746" on="1"/>
        <pt x="198" y="784" on="0"/>
        <pt x="150" y="820" on="0"/>
        <pt x="80" y="820" on="1"/>
        <pt x="80" y="862" on="1"/>
        <pt x="298" y="862" on="1"/>
        <pt x="298" y="680" on="1"/>
        <pt x="521" y="872" on="0"/>
        <pt x="668" y="872" on="1"/>
        <pt x="708" y="872" on="0"/>
        <pt x="771" y="851" on="0"/>
        <pt x="809" y="823" on="0"/>
        <pt x="837" y="779" on="0"/>
        <pt x="849" y="748" on="0"/>
        <pt x="856" y="704" on="0"/>
        <pt x="856" y="693" on="0"/>
        <pt x="856" y="684" on="1"/>
        <pt x="1074" y="872" on="0"/>
        <pt x="1226" y="872" on="1"/>
        <pt x="1283" y="872" on="0"/>
        <pt x="1361" y="836" on="0"/>
        <pt x="1399" y="771" on="0"/>
        <pt x="1414" y="701" on="0"/>
        <pt x="1414" y="656" on="1"/>
        <pt x="1414" y="0" on="1"/>
        <pt x="1312" y="0" on="1"/>
        <pt x="1312" y="620" on="1"/>
        <pt x="1312" y="717" on="0"/>
        <pt x="1251" y="788" on="0"/>
        <pt x="1178" y="788" on="1"/>
        <pt x="1051" y="788" on="0"/>
      </contour>
    </TTGlyph>
    <TTGlyph name="macron" xMin="0" yMin="1450" xMax="688" yMax="1550">
      <contour>
        <pt x="0" y="1450" on="1"/>
        <pt x="0" y="1550" on="1"/>
        <pt x="688" y="1550" on="1"/>
        <pt x="688" y="1450" on="1"/>
      </contour>
    </TTGlyph>
    <TTGlyph name="middot" xMin="172" yMin="386" xMax="352" yMax="566">
      <contour>
        <pt x="172" y="438" on="0"/>
        <pt x="172" y="514" on="0"/>
        <pt x="224" y="566" on="0"/>
        <pt x="300" y="566" on="0"/>
        <pt x="352" y="514" on="0"/>
        <pt x="352" y="438" on="0"/>
        <pt x="300" y="386" on="0"/>
        <pt x="224" y="386" on="0"/>
      </contour>
    </TTGlyph>
    <TTGlyph name="minus" xMin="52" yMin="382" xMax="844" yMax="476">
      <contour>
        <pt x="844" y="382" on="1"/>
        <pt x="52" y="382" on="1"/>
        <pt x="52" y="476" on="1"/>
        <pt x="844" y="476" on="1"/>
      </contour>
    </TTGlyph>
    <TTGlyph name="mu" xMin="166" yMin="-392" xMax="1010" yMax="864">
      <contour>
        <pt x="166" y="-392" on="1"/>
        <pt x="166" y="864" on="1"/>
        <pt x="268" y="864" on="1"/>
        <pt x="268" y="264" on="1"/>
        <pt x="268" y="154" on="0"/>
        <pt x="329" y="78" on="0"/>
        <pt x="398" y="78" on="1"/>
        <pt x="495" y="78" on="0"/>
        <pt x="690" y="178" on="0"/>
        <pt x="754" y="242" on="1"/>
        <pt x="754" y="864" on="1"/>
        <pt x="854" y="864" on="1"/>
        <pt x="854" y="194" on="1"/>
        <pt x="854" y="119" on="0"/>
        <pt x="869" y="68" on="0"/>
        <pt x="898" y="68" on="1"/>
        <pt x="934" y="68" on="0"/>
        <pt x="982" y="114" on="1"/>
        <pt x="1010" y="80" on="1"/>
        <pt x="1009" y="79" on="0"/>
        <pt x="983" y="57" on="0"/>
        <pt x="967" y="45" on="0"/>
        <pt x="934" y="23" on="0"/>
        <pt x="907" y="10" on="0"/>
        <pt x="870" y="0" on="0"/>
        <pt x="852" y="0" on="1"/>
        <pt x="819" y="0" on="0"/>
        <pt x="776" y="32" on="0"/>
        <pt x="759" y="94" on="0"/>
        <pt x="754" y="144" on="0"/>
        <pt x="754" y="182" on="1"/>
        <pt x="635" y="84" on="0"/>
        <pt x="460" y="-10" on="0"/>
        <pt x="362" y="-10" on="1"/>
        <pt x="298" y="-10" on="0"/>
        <pt x="268" y="12" on="1"/>
        <pt x="268" y="-392" on="1"/>
      </contour>
    </TTGlyph>
    <TTGlyph name="multiply" xMin="124" yMin="115" xMax="752" yMax="744">
      <contour>
        <pt x="752" y="676" on="1"/>
        <pt x="506" y="430" on="1"/>
        <pt x="752" y="184" on="1"/>
        <pt x="686" y="118" on="1"/>
        <pt x="440" y="364" on="1"/>
        <pt x="192" y="115" on="1"/>
        <pt x="126" y="182" on="1"/>
        <pt x="372" y="430" on="1"/>
        <pt x="124" y="677" on="1"/>
        <pt x="192" y="744" on="1"/>
        <pt x="440" y="496" on="1"/>
        <pt x="686" y="742" on="1"/>
      </contour>
    </TTGlyph>
    <TTGlyph name="n" xMin="80" yMin="0" xMax="886" yMax="872">
      <contour>
        <pt x="80" y="862" on="1"/>
        <pt x="298" y="862" on="1"/>
        <pt x="298" y="680" on="1"/>
        <pt x="402" y="766" on="0"/>
        <pt x="620" y="872" on="0"/>
        <pt x="694" y="872" on="1"/>
        <pt x="800" y="872" on="0"/>
        <pt x="886" y="763" on="0"/>
        <pt x="886" y="632" on="1"/>
        <pt x="886" y="0" on="1"/>
        <pt x="784" y="0" on="1"/>
        <pt x="784" y="606" on="1"/>
        <pt x="784" y="703" on="0"/>
        <pt x="730" y="784" on="0"/>
        <pt x="648" y="784" on="1"/>
        <pt x="570" y="784" on="0"/>
        <pt x="363" y="683" on="0"/>
        <pt x="298" y="620" on="1"/>
        <pt x="298" y="0" on="1"/>
        <pt x="198" y="0" on="1"/>
        <pt x="198" y="726" on="1"/>
        <pt x="198" y="753" on="0"/>
        <pt x="194" y="779" on="0"/>
        <pt x="173" y="811" on="0"/>
        <pt x="123" y="824" on="0"/>
        <pt x="80" y="824" on="1"/>
      </contour>
    </TTGlyph>
    <TTGlyph name="nine" xMin="108" yMin="-38" xMax="948" yMax="1402">
      <contour>
        <pt x="480" y="-38" on="1"/>
        <pt x="480" y="-38" on="0"/>
        <pt x="414" y="52" on="1"/>
        <pt x="449" y="84" on="1"/>
        <pt x="484" y="116" on="0"/>
        <pt x="590" y="241" on="0"/>
        <pt x="702" y="398" on="0"/>
        <pt x="801" y="616" on="0"/>
        <pt x="822" y="724" on="1"/>
        <pt x="800" y="706" on="1"/>
        <pt x="778" y="689" on="0"/>
        <pt x="697" y="639" on="0"/>
        <pt x="601" y="589" on="0"/>
        <pt x="480" y="554" on="0"/>
        <pt x="426" y="554" on="1"/>
        <pt x="369" y="554" on="0"/>
        <pt x="258" y="606" on="0"/>
        <pt x="165" y="703" on="0"/>
        <pt x="108" y="860" on="0"/>
        <pt x="108" y="956" on="1"/>
        <pt x="108" y="1064" on="0"/>
        <pt x="181" y="1240" on="0"/>
        <pt x="299" y="1346" on="0"/>
        <pt x="436" y="1402" on="0"/>
        <pt x="506" y="1402" on="1"/>
        <pt x="575" y="1402" on="0"/>
        <pt x="700" y="1365" on="0"/>
        <pt x="815" y="1281" on="0"/>
        <pt x="898" y="1156" on="0"/>
        <pt x="948" y="967" on="0"/>
        <pt x="948" y="850" on="1"/>
        <pt x="948" y="748" on="0"/>
        <pt x="895" y="538" on="0"/>
        <pt x="817" y="373" on="0"/>
        <pt x="709" y="208" on="0"/>
        <pt x="621" y="101" on="0"/>
        <pt x="523" y="0" on="0"/>
        <pt x="490" y="-30" on="0"/>
      </contour>
      <contour>
        <pt x="830" y="788" on="1"/>
        <pt x="834" y="818" on="0"/>
        <pt x="834" y="854" on="1"/>
        <pt x="834" y="889" on="0"/>
        <pt x="832" y="917" on="1"/>
        <pt x="820" y="1090" on="0"/>
        <pt x="722" y="1201" on="1"/>
        <pt x="639" y="1296" on="0"/>
        <pt x="518" y="1296" on="1"/>
        <pt x="460" y="1296" on="0"/>
        <pt x="410" y="1276" on="1"/>
        <pt x="358" y="1255" on="0"/>
        <pt x="273" y="1177" on="0"/>
        <pt x="222" y="1053" on="0"/>
        <pt x="222" y="976" on="1"/>
        <pt x="222" y="826" on="0"/>
        <pt x="367" y="654" on="0"/>
        <pt x="492" y="654" on="1"/>
        <pt x="547" y="654" on="0"/>
        <pt x="659" y="683" on="0"/>
        <pt x="696" y="700" on="1"/>
        <pt x="721" y="712" on="0"/>
        <pt x="767" y="740" on="1"/>
        <pt x="796" y="757" on="0"/>
        <pt x="810" y="770" on="1"/>
        <pt x="810" y="770" on="0"/>
      </contour>
    </TTGlyph>
    <TTGlyph name="ntilde" xMin="80" yMin="0" xMax="886" yMax="1254">
      <component glyphName="tilde" x="73" y="0" flags="0x1004"/>
      <component glyphName="n" x="0" y="0" flags="0x1004"/>
    </TTGlyph>
    <TTGlyph name="numbersign" xMin="6" yMin="-2" xMax="1348" yMax="1400">
      <contour>
        <pt x="1008" y="1400" on="1"/>
        <pt x="1108" y="1400" on="1"/>
        <pt x="994" y="952" on="1"/>
        <pt x="1348" y="952" on="1"/>
        <pt x="1328" y="862" on="1"/>
        <pt x="971" y="862" on="1"/>
        <pt x="886" y="528" on="1"/>
        <pt x="1276" y="528" on="1"/>
        <pt x="1256" y="438" on="1"/>
        <pt x="863" y="438" on="1"/>
        <pt x="752" y="-2" on="1"/>
        <pt x="652" y="-2" on="1"/>
        <pt x="763" y="438" on="1"/>
        <pt x="421" y="438" on="1"/>
        <pt x="310" y="-2" on="1"/>
        <pt x="210" y="-2" on="1"/>
        <pt x="321" y="438" on="1"/>
        <pt x="6" y="438" on="1"/>
        <pt x="6" y="438" on="0"/>
        <pt x="26" y="528" on="1"/>
        <pt x="344" y="528" on="1"/>
        <pt x="429" y="862" on="1"/>
        <pt x="78" y="862" on="1"/>
        <pt x="78" y="862" on="0"/>
        <pt x="98" y="952" on="1"/>
        <pt x="452" y="952" on="1"/>
        <pt x="566" y="1400" on="1"/>
        <pt x="666" y="1400" on="1"/>
        <pt x="552" y="952" on="1"/>
        <pt x="894" y="952" on="1"/>
      </contour>
      <contour>
        <pt x="444" y="528" on="1"/>
        <pt x="786" y="528" on="1"/>
        <pt x="871" y="862" on="1"/>
        <pt x="529" y="862" on="1"/>
      </contour>
    </TTGlyph>
    <TTGlyph name="o" xMin="82" yMin="-12" xMax="840" yMax="892">
      <contour>
        <pt x="460" y="892" on="1"/>
        <pt x="638" y="892" on="0"/>
        <pt x="840" y="642" on="0"/>
        <pt x="840" y="446" on="1"/>
        <pt x="840" y="351" on="0"/>
        <pt x="793" y="188" on="0"/>
        <pt x="703" y="61" on="0"/>
        <pt x="556" y="-12" on="0"/>
        <pt x="462" y="-12" on="1"/>
        <pt x="367" y="-12" on="0"/>
        <pt x="219" y="61" on="0"/>
        <pt x="129" y="188" on="0"/>
        <pt x="82" y="351" on="0"/>
        <pt x="82" y="446" on="1"/>
        <pt x="82" y="642" on="0"/>
        <pt x="283" y="892" on="0"/>
      </contour>
      <contour>
        <pt x="462" y="36" on="1"/>
        <pt x="517" y="36" on="0"/>
        <pt x="612" y="78" on="0"/>
        <pt x="694" y="168" on="0"/>
        <pt x="742" y="333" on="0"/>
        <pt x="742" y="444" on="1"/>
        <pt x="742" y="603" on="0"/>
        <pt x="581" y="786" on="0"/>
        <pt x="464" y="786" on="1"/>
        <pt x="346" y="786" on="0"/>
        <pt x="184" y="603" on="0"/>
        <pt x="184" y="444" on="1"/>
        <pt x="184" y="354" on="0"/>
        <pt x="216" y="212" on="0"/>
        <pt x="269" y="121" on="0"/>
        <pt x="342" y="61" on="0"/>
        <pt x="419" y="36" on="0"/>
      </contour>
    </TTGlyph>
    <TTGlyph name="oacute" xMin="82" yMin="-12" xMax="840" yMax="1338">
      <component glyphName="acute" x="0" y="0" flags="0x1004"/>
      <component glyphName="o" x="0" y="0" flags="0x1004"/>
    </TTGlyph>
    <TTGlyph name="ocircumflex" xMin="82" yMin="-12" xMax="840" yMax="1294">
      <component glyphName="circumflex" x="44" y="0" flags="0x1004"/>
      <component glyphName="o" x="0" y="0" flags="0x1004"/>
    </TTGlyph>
    <TTGlyph name="odieresis" xMin="82" yMin="-12" xMax="840" yMax="1225">
      <component glyphName="dieresis" x="36" y="0" flags="0x1004"/>
      <component glyphName="o" x="0" y="0" flags="0x1004"/>
    </TTGlyph>
    <TTGlyph name="ogonek" xMin="106" yMin="-287" xMax="348" yMax="0">
      <contour>
        <pt x="278" y="0" on="1"/>
        <pt x="257" y="-19" on="1"/>
        <pt x="236" y="-38" on="0"/>
        <pt x="194" y="-116" on="0"/>
        <pt x="194" y="-196" on="0"/>
        <pt x="234" y="-236" on="0"/>
        <pt x="262" y="-236" on="1"/>
        <pt x="300" y="-236" on="0"/>
        <pt x="332" y="-214" on="1"/>
        <pt x="348" y="-250" on="1"/>
        <pt x="334" y="-260" on="1"/>
        <pt x="319" y="-269" on="0"/>
        <pt x="259" y="-287" on="0"/>
        <pt x="228" y="-286" on="1"/>
        <pt x="176" y="-284" on="0"/>
        <pt x="106" y="-231" on="0"/>
        <pt x="106" y="-172" on="1"/>
        <pt x="106" y="-144" on="0"/>
        <pt x="133" y="-87" on="0"/>
        <pt x="165" y="-49" on="0"/>
        <pt x="208" y="-14" on="0"/>
        <pt x="225" y="-3" on="0"/>
        <pt x="230" y="0" on="1"/>
      </contour>
    </TTGlyph>
    <TTGlyph name="ograve" xMin="82" yMin="-12" xMax="840" yMax="1340">
      <component glyphName="grave" x="48" y="0" flags="0x1004"/>
      <component glyphName="o" x="0" y="0" flags="0x1004"/>
    </TTGlyph>
    <TTGlyph name="one" xMin="72" yMin="0" xMax="518" yMax="1400">
      <contour>
        <pt x="408" y="0" on="1"/>
        <pt x="408" y="1222" on="1"/>
        <pt x="364" y="1198" on="1"/>
        <pt x="321" y="1173" on="0"/>
        <pt x="157" y="1108" on="0"/>
        <pt x="80" y="1092" on="1"/>
        <pt x="72" y="1130" on="1"/>
        <pt x="109" y="1143" on="0"/>
        <pt x="180" y="1175" on="0"/>
        <pt x="240" y="1211" on="0"/>
        <pt x="294" y="1248" on="0"/>
        <pt x="342" y="1287" on="0"/>
        <pt x="379" y="1320" on="0"/>
        <pt x="412" y="1355" on="0"/>
        <pt x="432" y="1376" on="0"/>
        <pt x="451" y="1399" on="0"/>
        <pt x="452" y="1400" on="1"/>
        <pt x="518" y="1400" on="1"/>
        <pt x="518" y="0" on="1"/>
      </contour>
    </TTGlyph>
    <TTGlyph name="onehalf" xMin="58" yMin="-2" xMax="1230" yMax="1400">
      <contour>
        <pt x="116" y="-2" on="1"/>
        <pt x="1002" y="1398" on="1"/>
        <pt x="1104" y="1398" on="1"/>
        <pt x="218" y="-2" on="1"/>
      </contour>
      <contour>
        <pt x="786" y="520" on="1"/>
        <pt x="760" y="538" on="1"/>
        <pt x="763" y="545" on="0"/>
        <pt x="774" y="568" on="0"/>
        <pt x="816" y="626" on="0"/>
        <pt x="865" y="671" on="0"/>
        <pt x="948" y="708" on="0"/>
        <pt x="994" y="708" on="1"/>
        <pt x="1091" y="708" on="0"/>
        <pt x="1200" y="594" on="0"/>
        <pt x="1200" y="506" on="1"/>
        <pt x="1200" y="472" on="0"/>
        <pt x="1184" y="409" on="0"/>
        <pt x="1161" y="358" on="0"/>
        <pt x="1113" y="300" on="0"/>
        <pt x="1077" y="262" on="0"/>
        <pt x="1003" y="202" on="0"/>
        <pt x="957" y="168" on="0"/>
        <pt x="863" y="99" on="0"/>
        <pt x="838" y="80" on="1"/>
        <pt x="1230" y="80" on="1"/>
        <pt x="1230" y="-2" on="1"/>
        <pt x="740" y="-2" on="1"/>
        <pt x="740" y="52" on="1"/>
        <pt x="769" y="74" on="0"/>
        <pt x="868" y="149" on="0"/>
        <pt x="916" y="186" on="0"/>
        <pt x="991" y="248" on="0"/>
        <pt x="1028" y="286" on="0"/>
        <pt x="1075" y="343" on="0"/>
        <pt x="1096" y="389" on="0"/>
        <pt x="1112" y="447" on="0"/>
        <pt x="1112" y="478" on="1"/>
        <pt x="1112" y="552" on="0"/>
        <pt x="1035" y="640" on="0"/>
        <pt x="974" y="640" on="1"/>
        <pt x="901" y="640" on="0"/>
        <pt x="800" y="556" on="0"/>
      </contour>
      <contour>
        <pt x="226" y="706" on="1"/>
        <pt x="226" y="1298" on="1"/>
        <pt x="204" y="1286" on="1"/>
        <pt x="182" y="1274" on="0"/>
        <pt x="100" y="1242" on="0"/>
        <pt x="62" y="1234" on="1"/>
        <pt x="58" y="1264" on="1"/>
        <pt x="109" y="1282" on="0"/>
        <pt x="207" y="1349" on="0"/>
        <pt x="244" y="1386" on="0"/>
        <pt x="256" y="1400" on="1"/>
        <pt x="310" y="1400" on="1"/>
        <pt x="310" y="706" on="1"/>
      </contour>
    </TTGlyph>
    <TTGlyph name="onequarter" xMin="62" yMin="-2" xMax="1166" yMax="1400">
      <contour>
        <pt x="140" y="-2" on="1"/>
        <pt x="1026" y="1398" on="1"/>
        <pt x="1128" y="1398" on="1"/>
        <pt x="242" y="-2" on="1"/>
      </contour>
      <contour>
        <pt x="998" y="2" on="1"/>
        <pt x="998" y="190" on="1"/>
        <pt x="682" y="190" on="1"/>
        <pt x="682" y="240" on="1"/>
        <pt x="1044" y="696" on="1"/>
        <pt x="1082" y="696" on="1"/>
        <pt x="1082" y="270" on="1"/>
        <pt x="1166" y="270" on="1"/>
        <pt x="1166" y="190" on="1"/>
        <pt x="1082" y="190" on="1"/>
        <pt x="1082" y="2" on="1"/>
      </contour>
      <contour>
        <pt x="230" y="706" on="1"/>
        <pt x="230" y="1298" on="1"/>
        <pt x="208" y="1286" on="1"/>
        <pt x="186" y="1274" on="0"/>
        <pt x="104" y="1242" on="0"/>
        <pt x="66" y="1234" on="1"/>
        <pt x="62" y="1264" on="1"/>
        <pt x="113" y="1282" on="0"/>
        <pt x="211" y="1349" on="0"/>
        <pt x="248" y="1386" on="0"/>
        <pt x="260" y="1400" on="1"/>
        <pt x="314" y="1400" on="1"/>
        <pt x="314" y="706" on="1"/>
      </contour>
      <contour>
        <pt x="998" y="580" on="1"/>
        <pt x="748" y="270" on="1"/>
        <pt x="998" y="270" on="1"/>
      </contour>
    </TTGlyph>
    <TTGlyph name="onesuperior" xMin="72" yMin="706" xMax="324" yMax="1400">
      <contour>
        <pt x="240" y="706" on="1"/>
        <pt x="240" y="1298" on="1"/>
        <pt x="218" y="1286" on="1"/>
        <pt x="196" y="1274" on="0"/>
        <pt x="114" y="1242" on="0"/>
        <pt x="76" y="1234" on="1"/>
        <pt x="72" y="1264" on="1"/>
        <pt x="123" y="1282" on="0"/>
        <pt x="221" y="1349" on="0"/>
        <pt x="258" y="1386" on="0"/>
        <pt x="270" y="1400" on="1"/>
        <pt x="324" y="1400" on="1"/>
        <pt x="324" y="706" on="1"/>
      </contour>
    </TTGlyph>
    <TTGlyph name="ordfeminine" xMin="152" yMin="706" xMax="660" yMax="1406">
      <contour>
        <pt x="420" y="1406" on="1"/>
        <pt x="482" y="1406" on="0"/>
        <pt x="572" y="1382" on="0"/>
        <pt x="622" y="1346" on="0"/>
        <pt x="652" y="1286" on="0"/>
        <pt x="660" y="1231" on="0"/>
        <pt x="660" y="1192" on="1"/>
        <pt x="660" y="708" on="1"/>
        <pt x="588" y="708" on="1"/>
        <pt x="580" y="836" on="1"/>
        <pt x="540" y="773" on="0"/>
        <pt x="401" y="706" on="0"/>
        <pt x="344" y="706" on="1"/>
        <pt x="266" y="706" on="0"/>
        <pt x="152" y="794" on="0"/>
        <pt x="152" y="882" on="1"/>
        <pt x="152" y="927" on="0"/>
        <pt x="183" y="1000" on="0"/>
        <pt x="232" y="1048" on="0"/>
        <pt x="306" y="1083" on="0"/>
        <pt x="377" y="1102" on="0"/>
        <pt x="469" y="1113" on="0"/>
        <pt x="538" y="1116" on="0"/>
        <pt x="580" y="1116" on="1"/>
        <pt x="580" y="1124" on="0"/>
        <pt x="578" y="1188" on="1"/>
        <pt x="578" y="1223" on="0"/>
        <pt x="567" y="1270" on="0"/>
        <pt x="535" y="1312" on="0"/>
        <pt x="470" y="1332" on="0"/>
        <pt x="420" y="1332" on="1"/>
        <pt x="328" y="1332" on="0"/>
        <pt x="234" y="1294" on="1"/>
        <pt x="220" y="1364" on="1"/>
        <pt x="244" y="1374" on="1"/>
        <pt x="267" y="1385" on="0"/>
        <pt x="367" y="1406" on="0"/>
      </contour>
      <contour>
        <pt x="580" y="946" on="1"/>
        <pt x="580" y="946" on="0"/>
        <pt x="580" y="1082" on="1"/>
        <pt x="240" y="1082" on="0"/>
        <pt x="240" y="898" on="1"/>
        <pt x="240" y="835" on="0"/>
        <pt x="315" y="758" on="0"/>
        <pt x="378" y="758" on="1"/>
        <pt x="456" y="758" on="0"/>
        <pt x="580" y="878" on="0"/>
      </contour>
    </TTGlyph>
    <TTGlyph name="ordmasculine" xMin="118" yMin="686" xMax="732" yMax="1414">
      <contour>
        <pt x="424" y="1414" on="1"/>
        <pt x="568" y="1414" on="0"/>
        <pt x="732" y="1213" on="0"/>
        <pt x="732" y="895" on="0"/>
        <pt x="575" y="686" on="0"/>
        <pt x="426" y="686" on="1"/>
        <pt x="276" y="686" on="0"/>
        <pt x="118" y="894" on="0"/>
        <pt x="118" y="1054" on="1"/>
        <pt x="118" y="1213" on="0"/>
        <pt x="281" y="1414" on="0"/>
      </contour>
      <contour>
        <pt x="424" y="720" on="1"/>
        <pt x="521" y="720" on="0"/>
        <pt x="652" y="878" on="0"/>
        <pt x="652" y="1054" on="1"/>
        <pt x="652" y="1183" on="0"/>
        <pt x="521" y="1334" on="0"/>
        <pt x="426" y="1334" on="1"/>
        <pt x="329" y="1334" on="0"/>
        <pt x="198" y="1183" on="0"/>
        <pt x="198" y="1054" on="1"/>
        <pt x="198" y="963" on="0"/>
        <pt x="236" y="828" on="0"/>
        <pt x="303" y="754" on="0"/>
        <pt x="379" y="720" on="0"/>
      </contour>
    </TTGlyph>
    <TTGlyph name="oslash" xMin="82" yMin="-152" xMax="840" yMax="1024">
      <contour>
        <pt x="692" y="1024" on="1"/>
        <pt x="792" y="1024" on="1"/>
        <pt x="693" y="814" on="1"/>
        <pt x="718" y="793" on="0"/>
        <pt x="739" y="767" on="1"/>
        <pt x="840" y="642" on="0"/>
        <pt x="840" y="446" on="1"/>
        <pt x="840" y="351" on="0"/>
        <pt x="793" y="188" on="0"/>
        <pt x="703" y="61" on="0"/>
        <pt x="556" y="-12" on="0"/>
        <pt x="462" y="-12" on="1"/>
        <pt x="383" y="-12" on="0"/>
        <pt x="318" y="14" on="1"/>
        <pt x="240" y="-152" on="1"/>
        <pt x="140" y="-152" on="1"/>
        <pt x="239" y="58" on="1"/>
        <pt x="201" y="86" on="0"/>
        <pt x="174" y="124" on="1"/>
        <pt x="129" y="189" on="0"/>
        <pt x="82" y="350" on="0"/>
        <pt x="82" y="446" on="1"/>
        <pt x="82" y="642" on="0"/>
        <pt x="283" y="892" on="0"/>
        <pt x="460" y="892" on="1"/>
        <pt x="547" y="892" on="0"/>
        <pt x="616" y="862" on="1"/>
      </contour>
      <contour>
        <pt x="462" y="36" on="1"/>
        <pt x="517" y="36" on="0"/>
        <pt x="612" y="78" on="0"/>
        <pt x="694" y="168" on="0"/>
        <pt x="742" y="333" on="0"/>
        <pt x="742" y="444" on="1"/>
        <pt x="742" y="604" on="0"/>
        <pt x="662" y="694" on="1"/>
        <pt x="654" y="703" on="0"/>
        <pt x="645" y="712" on="1"/>
        <pt x="342" y="66" on="1"/>
        <pt x="361" y="55" on="0"/>
        <pt x="380" y="48" on="1"/>
        <pt x="418" y="36" on="0"/>
      </contour>
      <contour>
        <pt x="271" y="126" on="1"/>
        <pt x="570" y="764" on="1"/>
        <pt x="521" y="786" on="0"/>
        <pt x="464" y="786" on="1"/>
        <pt x="346" y="786" on="0"/>
        <pt x="184" y="603" on="0"/>
        <pt x="184" y="444" on="1"/>
        <pt x="184" y="354" on="0"/>
        <pt x="200" y="283" on="1"/>
        <pt x="215" y="216" on="0"/>
        <pt x="242" y="166" on="1"/>
        <pt x="255" y="144" on="0"/>
      </contour>
    </TTGlyph>
    <TTGlyph name="otilde" xMin="82" yMin="-12" xMax="840" yMax="1254">
      <component glyphName="tilde" x="12" y="0" flags="0x1004"/>
      <component glyphName="o" x="0" y="0" flags="0x1004"/>
    </TTGlyph>
    <TTGlyph name="p" xMin="72" yMin="-402" xMax="882" yMax="876">
      <contour>
        <pt x="286" y="862" on="1"/>
        <pt x="286" y="664" on="1"/>
        <pt x="290" y="672" on="0"/>
        <pt x="313" y="708" on="0"/>
        <pt x="369" y="777" on="0"/>
        <pt x="432" y="833" on="0"/>
        <pt x="526" y="876" on="0"/>
        <pt x="574" y="876" on="1"/>
        <pt x="722" y="876" on="0"/>
        <pt x="882" y="647" on="0"/>
        <pt x="882" y="448" on="1"/>
        <pt x="882" y="227" on="0"/>
        <pt x="689" y="-22" on="0"/>
        <pt x="536" y="-22" on="1"/>
        <pt x="468" y="-22" on="0"/>
        <pt x="332" y="43" on="0"/>
        <pt x="286" y="98" on="1"/>
        <pt x="286" y="-402" on="1"/>
        <pt x="190" y="-402" on="1"/>
        <pt x="190" y="724" on="1"/>
        <pt x="190" y="751" on="0"/>
        <pt x="186" y="777" on="0"/>
        <pt x="165" y="809" on="0"/>
        <pt x="115" y="822" on="0"/>
        <pt x="72" y="822" on="1"/>
        <pt x="72" y="862" on="1"/>
      </contour>
      <contour>
        <pt x="556" y="800" on="1"/>
        <pt x="506" y="800" on="0"/>
        <pt x="403" y="744" on="0"/>
        <pt x="331" y="664" on="0"/>
        <pt x="286" y="580" on="0"/>
        <pt x="286" y="550" on="1"/>
        <pt x="286" y="238" on="1"/>
        <pt x="294" y="222" on="1"/>
        <pt x="303" y="205" on="0"/>
        <pt x="342" y="159" on="0"/>
        <pt x="396" y="113" on="0"/>
        <pt x="480" y="80" on="0"/>
        <pt x="528" y="80" on="1"/>
        <pt x="595" y="80" on="0"/>
        <pt x="696" y="142" on="0"/>
        <pt x="753" y="247" on="0"/>
        <pt x="780" y="366" on="0"/>
        <pt x="780" y="432" on="1"/>
        <pt x="780" y="624" on="0"/>
        <pt x="652" y="800" on="0"/>
      </contour>
    </TTGlyph>
    <TTGlyph name="paragraph" xMin="64" yMin="-392" xMax="932" yMax="1400">
      <contour>
        <pt x="634" y="-392" on="1"/>
        <pt x="560" y="-392" on="1"/>
        <pt x="560" y="480" on="1"/>
        <pt x="478" y="480" on="1"/>
        <pt x="408" y="480" on="0"/>
        <pt x="265" y="540" on="0"/>
        <pt x="142" y="650" on="0"/>
        <pt x="64" y="831" on="0"/>
        <pt x="64" y="940" on="1"/>
        <pt x="64" y="1048" on="0"/>
        <pt x="142" y="1229" on="0"/>
        <pt x="265" y="1340" on="0"/>
        <pt x="408" y="1400" on="0"/>
        <pt x="478" y="1400" on="1"/>
        <pt x="634" y="1400" on="1"/>
      </contour>
      <contour>
        <pt x="814" y="-392" on="1"/>
        <pt x="740" y="-392" on="1"/>
        <pt x="740" y="1400" on="1"/>
        <pt x="932" y="1400" on="1"/>
        <pt x="932" y="1360" on="1"/>
        <pt x="889" y="1360" on="0"/>
        <pt x="839" y="1347" on="0"/>
        <pt x="818" y="1315" on="0"/>
        <pt x="814" y="1289" on="0"/>
        <pt x="814" y="1262" on="1"/>
      </contour>
    </TTGlyph>
    <TTGlyph name="parenleft" xMin="240" yMin="-262" xMax="548" yMax="1332">
      <contour>
        <pt x="548" y="-262" on="1"/>
        <pt x="548" y="-262" on="0"/>
        <pt x="510" y="-262" on="1"/>
        <pt x="482" y="-228" on="1"/>
        <pt x="454" y="-193" on="0"/>
        <pt x="375" y="-59" on="0"/>
        <pt x="296" y="108" on="0"/>
        <pt x="240" y="337" on="0"/>
        <pt x="240" y="450" on="1"/>
        <pt x="240" y="618" on="1"/>
        <pt x="240" y="731" on="0"/>
        <pt x="298" y="965" on="0"/>
        <pt x="370" y="1122" on="0"/>
        <pt x="463" y="1273" on="0"/>
        <pt x="499" y="1319" on="0"/>
        <pt x="510" y="1332" on="1"/>
        <pt x="548" y="1332" on="1"/>
        <pt x="545" y="1325" on="0"/>
        <pt x="537" y="1311" on="1"/>
        <pt x="500" y="1241" on="0"/>
        <pt x="453" y="1135" on="0"/>
        <pt x="382" y="931" on="0"/>
        <pt x="344" y="677" on="0"/>
        <pt x="344" y="534" on="1"/>
        <pt x="344" y="417" on="0"/>
        <pt x="374" y="194" on="0"/>
        <pt x="411" y="44" on="0"/>
        <pt x="475" y="-119" on="0"/>
        <pt x="510" y="-191" on="0"/>
        <pt x="539" y="-245" on="1"/>
        <pt x="545" y="-257" on="0"/>
      </contour>
    </TTGlyph>
    <TTGlyph name="parenright" xMin="36" yMin="-262" xMax="344" yMax="1332">
      <contour>
        <pt x="36" y="-262" on="1"/>
        <pt x="39" y="-257" on="0"/>
        <pt x="45" y="-245" on="1"/>
        <pt x="74" y="-191" on="0"/>
        <pt x="109" y="-119" on="0"/>
        <pt x="173" y="44" on="0"/>
        <pt x="210" y="194" on="0"/>
        <pt x="240" y="417" on="0"/>
        <pt x="240" y="534" on="1"/>
        <pt x="240" y="677" on="0"/>
        <pt x="202" y="931" on="0"/>
        <pt x="131" y="1135" on="0"/>
        <pt x="84" y="1241" on="0"/>
        <pt x="47" y="1311" on="1"/>
        <pt x="39" y="1325" on="0"/>
        <pt x="36" y="1332" on="1"/>
        <pt x="74" y="1332" on="1"/>
        <pt x="85" y="1319" on="0"/>
        <pt x="121" y="1273" on="0"/>
        <pt x="214" y="1122" on="0"/>
        <pt x="286" y="965" on="0"/>
        <pt x="344" y="731" on="0"/>
        <pt x="344" y="618" on="1"/>
        <pt x="344" y="450" on="1"/>
        <pt x="344" y="337" on="0"/>
        <pt x="288" y="108" on="0"/>
        <pt x="209" y="-59" on="0"/>
        <pt x="130" y="-193" on="0"/>
        <pt x="102" y="-228" on="1"/>
        <pt x="74" y="-262" on="1"/>
      </contour>
    </TTGlyph>
    <TTGlyph name="percent" xMin="132" yMin="-4" xMax="1226" yMax="1416">
      <contour>
        <pt x="358" y="1416" on="1"/>
        <pt x="453" y="1416" on="0"/>
        <pt x="584" y="1230" on="0"/>
        <pt x="584" y="1056" on="1"/>
        <pt x="584" y="887" on="0"/>
        <pt x="458" y="694" on="0"/>
        <pt x="258" y="694" on="0"/>
        <pt x="132" y="887" on="0"/>
        <pt x="132" y="1056" on="1"/>
        <pt x="132" y="1228" on="0"/>
        <pt x="264" y="1416" on="0"/>
      </contour>
      <contour>
        <pt x="358" y="1350" on="1"/>
        <pt x="291" y="1350" on="0"/>
        <pt x="208" y="1227" on="0"/>
        <pt x="208" y="1086" on="1"/>
        <pt x="208" y="1026" on="0"/>
        <pt x="211" y="942" on="0"/>
        <pt x="222" y="854" on="0"/>
        <pt x="242" y="797" on="0"/>
        <pt x="275" y="750" on="0"/>
        <pt x="325" y="728" on="0"/>
        <pt x="391" y="728" on="0"/>
        <pt x="440" y="750" on="0"/>
        <pt x="472" y="797" on="0"/>
        <pt x="492" y="854" on="0"/>
        <pt x="503" y="942" on="0"/>
        <pt x="506" y="1026" on="0"/>
        <pt x="506" y="1086" on="1"/>
        <pt x="506" y="1350" on="0"/>
      </contour>
      <contour>
        <pt x="186" y="-2" on="1"/>
        <pt x="1072" y="1398" on="1"/>
        <pt x="1174" y="1398" on="1"/>
        <pt x="288" y="-2" on="1"/>
      </contour>
      <contour>
        <pt x="1000" y="718" on="1"/>
        <pt x="1095" y="718" on="0"/>
        <pt x="1226" y="532" on="0"/>
        <pt x="1226" y="358" on="1"/>
        <pt x="1226" y="189" on="0"/>
        <pt x="1100" y="-4" on="0"/>
        <pt x="900" y="-4" on="0"/>
        <pt x="774" y="189" on="0"/>
        <pt x="774" y="358" on="1"/>
        <pt x="774" y="530" on="0"/>
        <pt x="906" y="718" on="0"/>
      </contour>
      <contour>
        <pt x="1000" y="652" on="1"/>
        <pt x="933" y="652" on="0"/>
        <pt x="850" y="529" on="0"/>
        <pt x="850" y="388" on="1"/>
        <pt x="850" y="328" on="0"/>
        <pt x="853" y="244" on="0"/>
        <pt x="864" y="156" on="0"/>
        <pt x="884" y="99" on="0"/>
        <pt x="917" y="52" on="0"/>
        <pt x="967" y="30" on="0"/>
        <pt x="1033" y="30" on="0"/>
        <pt x="1082" y="52" on="0"/>
        <pt x="1114" y="99" on="0"/>
        <pt x="1134" y="156" on="0"/>
        <pt x="1145" y="244" on="0"/>
        <pt x="1148" y="328" on="0"/>
        <pt x="1148" y="388" on="1"/>
        <pt x="1148" y="652" on="0"/>
      </contour>
    </TTGlyph>
    <TTGlyph name="period" xMin="172" yMin="0" xMax="352" yMax="180">
      <contour>
        <pt x="172" y="52" on="0"/>
        <pt x="172" y="128" on="0"/>
        <pt x="224" y="180" on="0"/>
        <pt x="300" y="180" on="0"/>
        <pt x="352" y="128" on="0"/>
        <pt x="352" y="52" on="0"/>
        <pt x="300" y="0" on="0"/>
        <pt x="224" y="0" on="0"/>
      </contour>
    </TTGlyph>
    <TTGlyph name="plus" xMin="42" yMin="34" xMax="834" yMax="826">
      <contour>
        <pt x="834" y="382" on="1"/>
        <pt x="486" y="382" on="1"/>
        <pt x="486" y="34" on="1"/>
        <pt x="392" y="34" on="1"/>
        <pt x="392" y="382" on="1"/>
        <pt x="42" y="382" on="1"/>
        <pt x="42" y="476" on="1"/>
        <pt x="392" y="476" on="1"/>
        <pt x="392" y="826" on="1"/>
        <pt x="486" y="826" on="1"/>
        <pt x="486" y="476" on="1"/>
        <pt x="834" y="476" on="1"/>
      </contour>
    </TTGlyph>
    <TTGlyph name="plusminus" xMin="42" yMin="0" xMax="834" yMax="826">
      <contour>
        <pt x="834" y="426" on="1"/>
        <pt x="486" y="426" on="1"/>
        <pt x="486" y="152" on="1"/>
        <pt x="392" y="152" on="1"/>
        <pt x="392" y="426" on="1"/>
        <pt x="42" y="426" on="1"/>
        <pt x="42" y="520" on="1"/>
        <pt x="392" y="520" on="1"/>
        <pt x="392" y="826" on="1"/>
        <pt x="486" y="826" on="1"/>
        <pt x="486" y="520" on="1"/>
        <pt x="834" y="520" on="1"/>
      </contour>
      <contour>
        <pt x="834" y="0" on="1"/>
        <pt x="42" y="0" on="1"/>
        <pt x="42" y="94" on="1"/>
        <pt x="834" y="94" on="1"/>
      </contour>
    </TTGlyph>
    <TTGlyph name="q" xMin="92" yMin="-402" xMax="812" yMax="878">
      <contour>
        <pt x="442" y="878" on="1"/>
        <pt x="490" y="878" on="0"/>
        <pt x="581" y="848" on="0"/>
        <pt x="636" y="813" on="0"/>
        <pt x="690" y="761" on="0"/>
        <pt x="703" y="744" on="0"/>
        <pt x="710" y="734" on="1"/>
        <pt x="710" y="860" on="1"/>
        <pt x="812" y="860" on="1"/>
        <pt x="812" y="-402" on="1"/>
        <pt x="710" y="-402" on="1"/>
        <pt x="710" y="189" on="1"/>
        <pt x="703" y="177" on="0"/>
        <pt x="684" y="148" on="0"/>
        <pt x="622" y="75" on="0"/>
        <pt x="558" y="22" on="0"/>
        <pt x="462" y="-22" on="0"/>
        <pt x="414" y="-22" on="1"/>
        <pt x="374" y="-22" on="0"/>
        <pt x="290" y="8" on="0"/>
        <pt x="203" y="77" on="0"/>
        <pt x="135" y="178" on="0"/>
        <pt x="92" y="334" on="0"/>
        <pt x="92" y="522" on="0"/>
        <pt x="137" y="678" on="0"/>
        <pt x="210" y="779" on="0"/>
        <pt x="304" y="848" on="0"/>
        <pt x="397" y="878" on="0"/>
      </contour>
      <contour>
        <pt x="442" y="66" on="1"/>
        <pt x="494" y="66" on="0"/>
        <pt x="588" y="109" on="0"/>
        <pt x="645" y="161" on="0"/>
        <pt x="693" y="229" on="0"/>
        <pt x="707" y="256" on="0"/>
        <pt x="710" y="264" on="1"/>
        <pt x="710" y="476" on="1"/>
        <pt x="710" y="570" on="0"/>
        <pt x="664" y="682" on="0"/>
        <pt x="585" y="750" on="0"/>
        <pt x="500" y="780" on="0"/>
        <pt x="452" y="780" on="1"/>
        <pt x="328" y="780" on="0"/>
        <pt x="198" y="585" on="0"/>
        <pt x="198" y="426" on="1"/>
        <pt x="198" y="248" on="0"/>
        <pt x="339" y="66" on="0"/>
      </contour>
    </TTGlyph>
    <TTGlyph name="question" xMin="58" yMin="0" xMax="840" yMax="1404">
      <contour>
        <pt x="58" y="1178" on="1"/>
        <pt x="64" y="1187" on="0"/>
        <pt x="86" y="1218" on="0"/>
        <pt x="164" y="1296" on="0"/>
        <pt x="251" y="1355" on="0"/>
        <pt x="392" y="1404" on="0"/>
        <pt x="466" y="1404" on="1"/>
        <pt x="534" y="1404" on="0"/>
        <pt x="664" y="1363" on="0"/>
        <pt x="773" y="1285" on="0"/>
        <pt x="840" y="1155" on="0"/>
        <pt x="840" y="1074" on="1"/>
        <pt x="840" y="1013" on="0"/>
        <pt x="797" y="912" on="0"/>
        <pt x="729" y="842" on="0"/>
        <pt x="647" y="781" on="0"/>
        <pt x="565" y="724" on="0"/>
        <pt x="497" y="665" on="0"/>
        <pt x="454" y="583" on="0"/>
        <pt x="454" y="534" on="1"/>
        <pt x="454" y="312" on="1"/>
        <pt x="324" y="312" on="1"/>
        <pt x="324" y="474" on="1"/>
        <pt x="324" y="526" on="0"/>
        <pt x="366" y="616" on="0"/>
        <pt x="434" y="683" on="0"/>
        <pt x="515" y="746" on="0"/>
        <pt x="596" y="811" on="0"/>
        <pt x="664" y="881" on="0"/>
        <pt x="706" y="979" on="0"/>
        <pt x="706" y="1036" on="1"/>
        <pt x="706" y="1155" on="0"/>
        <pt x="550" y="1314" on="0"/>
        <pt x="390" y="1314" on="1"/>
        <pt x="342" y="1314" on="0"/>
        <pt x="245" y="1281" on="0"/>
        <pt x="177" y="1234" on="0"/>
        <pt x="122" y="1187" on="0"/>
        <pt x="108" y="1170" on="1"/>
        <pt x="94" y="1154" on="1"/>
      </contour>
      <contour>
        <pt x="300" y="52" on="0"/>
        <pt x="300" y="128" on="0"/>
        <pt x="352" y="180" on="0"/>
        <pt x="428" y="180" on="0"/>
        <pt x="480" y="128" on="0"/>
        <pt x="480" y="52" on="0"/>
        <pt x="428" y="0" on="0"/>
        <pt x="352" y="0" on="0"/>
      </contour>
    </TTGlyph>
    <TTGlyph name="questiondown" xMin="56" yMin="-430" xMax="838" yMax="974">
      <contour>
        <pt x="838" y="-204" on="1"/>
        <pt x="832" y="-213" on="0"/>
        <pt x="810" y="-244" on="0"/>
        <pt x="732" y="-322" on="0"/>
        <pt x="645" y="-381" on="0"/>
        <pt x="504" y="-430" on="0"/>
        <pt x="430" y="-430" on="1"/>
        <pt x="362" y="-430" on="0"/>
        <pt x="232" y="-389" on="0"/>
        <pt x="123" y="-311" on="0"/>
        <pt x="56" y="-181" on="0"/>
        <pt x="56" y="-100" on="1"/>
        <pt x="56" y="-39" on="0"/>
        <pt x="99" y="62" on="0"/>
        <pt x="167" y="132" on="0"/>
        <pt x="249" y="193" on="0"/>
        <pt x="331" y="250" on="0"/>
        <pt x="399" y="309" on="0"/>
        <pt x="442" y="391" on="0"/>
        <pt x="442" y="440" on="1"/>
        <pt x="442" y="662" on="1"/>
        <pt x="572" y="662" on="1"/>
        <pt x="572" y="500" on="1"/>
        <pt x="572" y="448" on="0"/>
        <pt x="530" y="358" on="0"/>
        <pt x="462" y="291" on="0"/>
        <pt x="381" y="228" on="0"/>
        <pt x="300" y="163" on="0"/>
        <pt x="232" y="93" on="0"/>
        <pt x="190" y="-5" on="0"/>
        <pt x="190" y="-62" on="1"/>
        <pt x="190" y="-181" on="0"/>
        <pt x="346" y="-340" on="0"/>
        <pt x="506" y="-340" on="1"/>
        <pt x="554" y="-340" on="0"/>
        <pt x="651" y="-307" on="0"/>
        <pt x="719" y="-260" on="0"/>
        <pt x="774" y="-213" on="0"/>
        <pt x="788" y="-196" on="1"/>
        <pt x="802" y="-180" on="1"/>
      </contour>
      <contour>
        <pt x="596" y="922" on="0"/>
        <pt x="596" y="846" on="0"/>
        <pt x="544" y="794" on="0"/>
        <pt x="468" y="794" on="0"/>
        <pt x="416" y="846" on="0"/>
        <pt x="416" y="922" on="0"/>
        <pt x="468" y="974" on="0"/>
        <pt x="544" y="974" on="0"/>
      </contour>
    </TTGlyph>
    <TTGlyph name="quotedbl" xMin="100" yMin="1004" xMax="480" yMax="1400">
      <contour>
        <pt x="100" y="1400" on="1"/>
        <pt x="238" y="1400" on="1"/>
        <pt x="188" y="1004" on="1"/>
        <pt x="150" y="1004" on="1"/>
      </contour>
      <contour>
        <pt x="342" y="1400" on="1"/>
        <pt x="480" y="1400" on="1"/>
        <pt x="430" y="1004" on="1"/>
        <pt x="392" y="1004" on="1"/>
      </contour>
    </TTGlyph>
    <TTGlyph name="quotedblbase" xMin="118" yMin="-216" xMax="567" yMax="181">
      <contour>
        <pt x="118" y="90" on="1"/>
        <pt x="118" y="133" on="0"/>
        <pt x="148" y="158" on="1"/>
        <pt x="176" y="181" on="0"/>
        <pt x="208" y="180" on="1"/>
        <pt x="242" y="179" on="0"/>
        <pt x="271" y="148" on="1"/>
        <pt x="301" y="116" on="0"/>
        <pt x="301" y="42" on="1"/>
        <pt x="301" y="1" on="0"/>
        <pt x="271" y="-83" on="0"/>
        <pt x="234" y="-140" on="0"/>
        <pt x="185" y="-195" on="0"/>
        <pt x="166" y="-211" on="0"/>
        <pt x="160" y="-216" on="1"/>
        <pt x="137" y="-179" on="1"/>
        <pt x="163" y="-154" on="1"/>
        <pt x="190" y="-128" on="0"/>
        <pt x="208" y="-84" on="1"/>
        <pt x="220" y="-55" on="0"/>
        <pt x="220" y="-27" on="1"/>
        <pt x="219" y="-12" on="0"/>
        <pt x="217" y="0" on="1"/>
        <pt x="180" y="0" on="0"/>
        <pt x="149" y="21" on="1"/>
        <pt x="118" y="43" on="0"/>
      </contour>
      <contour>
        <pt x="384" y="90" on="1"/>
        <pt x="384" y="133" on="0"/>
        <pt x="414" y="158" on="1"/>
        <pt x="441" y="180" on="0"/>
        <pt x="507" y="180" on="0"/>
        <pt x="567" y="116" on="0"/>
        <pt x="567" y="42" on="1"/>
        <pt x="567" y="1" on="0"/>
        <pt x="537" y="-83" on="0"/>
        <pt x="500" y="-140" on="0"/>
        <pt x="451" y="-195" on="0"/>
        <pt x="432" y="-211" on="0"/>
        <pt x="426" y="-216" on="1"/>
        <pt x="402" y="-180" on="1"/>
        <pt x="429" y="-154" on="1"/>
        <pt x="457" y="-126" on="0"/>
        <pt x="474" y="-84" on="1"/>
        <pt x="485" y="-57" on="0"/>
        <pt x="485" y="-30" on="1"/>
        <pt x="485" y="-15" on="0"/>
        <pt x="482" y="0" on="1"/>
        <pt x="446" y="0" on="0"/>
        <pt x="420" y="18" on="1"/>
        <pt x="384" y="42" on="0"/>
      </contour>
    </TTGlyph>
    <TTGlyph name="quotedblleft" xMin="119" yMin="1004" xMax="568" yMax="1400">
      <contour>
        <pt x="568" y="1094" on="1"/>
        <pt x="568" y="1050" on="0"/>
        <pt x="513" y="1004" on="0"/>
        <pt x="478" y="1004" on="1"/>
        <pt x="445" y="1004" on="0"/>
        <pt x="384" y="1068" on="0"/>
        <pt x="384" y="1142" on="1"/>
        <pt x="384" y="1183" on="0"/>
        <pt x="415" y="1267" on="0"/>
        <pt x="452" y="1324" on="0"/>
        <pt x="501" y="1379" on="0"/>
        <pt x="520" y="1395" on="0"/>
        <pt x="526" y="1400" on="1"/>
        <pt x="548" y="1364" on="1"/>
        <pt x="523" y="1338" on="1"/>
        <pt x="501" y="1315" on="0"/>
        <pt x="482" y="1268" on="1"/>
        <pt x="468" y="1233" on="0"/>
        <pt x="468" y="1203" on="1"/>
        <pt x="467" y="1194" on="0"/>
        <pt x="469" y="1184" on="1"/>
        <pt x="506" y="1184" on="0"/>
        <pt x="535" y="1166" on="1"/>
        <pt x="568" y="1145" on="0"/>
      </contour>
      <contour>
        <pt x="302" y="1094" on="1"/>
        <pt x="302" y="1054" on="0"/>
        <pt x="274" y="1026" on="1"/>
        <pt x="252" y="1004" on="0"/>
        <pt x="210" y="1004" on="1"/>
        <pt x="178" y="1004" on="0"/>
        <pt x="119" y="1068" on="0"/>
        <pt x="119" y="1142" on="1"/>
        <pt x="119" y="1183" on="0"/>
        <pt x="149" y="1267" on="0"/>
        <pt x="186" y="1324" on="0"/>
        <pt x="235" y="1379" on="0"/>
        <pt x="254" y="1395" on="0"/>
        <pt x="260" y="1400" on="1"/>
        <pt x="282" y="1364" on="1"/>
        <pt x="257" y="1338" on="1"/>
        <pt x="232" y="1312" on="0"/>
        <pt x="216" y="1272" on="1"/>
        <pt x="202" y="1237" on="0"/>
        <pt x="202" y="1203" on="1"/>
        <pt x="202" y="1194" on="0"/>
        <pt x="203" y="1184" on="1"/>
        <pt x="247" y="1184" on="0"/>
        <pt x="272" y="1163" on="1"/>
        <pt x="302" y="1138" on="0"/>
      </contour>
    </TTGlyph>
    <TTGlyph name="quotedblright" xMin="118" yMin="1004" xMax="567" yMax="1400">
      <contour>
        <pt x="118" y="1310" on="1"/>
        <pt x="118" y="1352" on="0"/>
        <pt x="174" y="1400" on="0"/>
        <pt x="242" y="1400" on="0"/>
        <pt x="301" y="1336" on="0"/>
        <pt x="301" y="1262" on="1"/>
        <pt x="301" y="1221" on="0"/>
        <pt x="271" y="1137" on="0"/>
        <pt x="234" y="1080" on="0"/>
        <pt x="185" y="1025" on="0"/>
        <pt x="166" y="1009" on="0"/>
        <pt x="160" y="1004" on="1"/>
        <pt x="138" y="1040" on="1"/>
        <pt x="163" y="1066" on="1"/>
        <pt x="184" y="1089" on="0"/>
        <pt x="206" y="1136" on="1"/>
        <pt x="221" y="1168" on="0"/>
        <pt x="221" y="1199" on="1"/>
        <pt x="221" y="1210" on="0"/>
        <pt x="219" y="1220" on="1"/>
        <pt x="181" y="1220" on="0"/>
        <pt x="158" y="1235" on="1"/>
        <pt x="118" y="1260" on="0"/>
      </contour>
      <contour>
        <pt x="384" y="1310" on="1"/>
        <pt x="384" y="1351" on="0"/>
        <pt x="412" y="1376" on="1"/>
        <pt x="440" y="1400" on="0"/>
        <pt x="474" y="1400" on="1"/>
        <pt x="507" y="1400" on="0"/>
        <pt x="567" y="1336" on="0"/>
        <pt x="567" y="1262" on="1"/>
        <pt x="567" y="1221" on="0"/>
        <pt x="537" y="1137" on="0"/>
        <pt x="500" y="1080" on="0"/>
        <pt x="451" y="1025" on="0"/>
        <pt x="432" y="1009" on="0"/>
        <pt x="426" y="1004" on="1"/>
        <pt x="404" y="1041" on="1"/>
        <pt x="429" y="1066" on="1"/>
        <pt x="452" y="1090" on="0"/>
        <pt x="472" y="1136" on="1"/>
        <pt x="487" y="1170" on="0"/>
        <pt x="487" y="1201" on="1"/>
        <pt x="487" y="1210" on="0"/>
        <pt x="486" y="1220" on="1"/>
        <pt x="448" y="1220" on="0"/>
        <pt x="419" y="1239" on="1"/>
        <pt x="384" y="1261" on="0"/>
      </contour>
    </TTGlyph>
    <TTGlyph name="quoteleft" xMin="105" yMin="1004" xMax="288" yMax="1400">
      <contour>
        <pt x="288" y="1094" on="1"/>
        <pt x="288" y="1057" on="0"/>
        <pt x="261" y="1031" on="1"/>
        <pt x="233" y="1004" on="0"/>
        <pt x="165" y="1004" on="0"/>
        <pt x="133" y="1036" on="1"/>
        <pt x="105" y="1064" on="0"/>
        <pt x="105" y="1142" on="1"/>
        <pt x="106" y="1186" on="0"/>
        <pt x="120" y="1225" on="1"/>
        <pt x="135" y="1267" on="0"/>
        <pt x="172" y="1324" on="0"/>
        <pt x="221" y="1379" on="0"/>
        <pt x="240" y="1395" on="0"/>
        <pt x="246" y="1400" on="1"/>
        <pt x="268" y="1364" on="1"/>
        <pt x="243" y="1338" on="1"/>
        <pt x="223" y="1317" on="0"/>
        <pt x="202" y="1268" on="1"/>
        <pt x="188" y="1235" on="0"/>
        <pt x="188" y="1206" on="1"/>
        <pt x="188" y="1195" on="0"/>
        <pt x="190" y="1184" on="1"/>
        <pt x="226" y="1184" on="0"/>
        <pt x="253" y="1166" on="1"/>
        <pt x="288" y="1143" on="0"/>
      </contour>
    </TTGlyph>
    <TTGlyph name="quoteright" xMin="118" yMin="1004" xMax="301" yMax="1400">
      <contour>
        <pt x="118" y="1310" on="1"/>
        <pt x="118" y="1353" on="0"/>
        <pt x="176" y="1399" on="0"/>
        <pt x="210" y="1400" on="1"/>
        <pt x="211" y="1400" on="1"/>
        <pt x="244" y="1400" on="0"/>
        <pt x="301" y="1336" on="0"/>
        <pt x="301" y="1262" on="1"/>
        <pt x="301" y="1221" on="0"/>
        <pt x="271" y="1137" on="0"/>
        <pt x="234" y="1080" on="0"/>
        <pt x="185" y="1025" on="0"/>
        <pt x="166" y="1009" on="0"/>
        <pt x="160" y="1004" on="1"/>
        <pt x="137" y="1039" on="1"/>
        <pt x="163" y="1066" on="1"/>
        <pt x="185" y="1090" on="0"/>
        <pt x="205" y="1136" on="1"/>
        <pt x="219" y="1168" on="0"/>
        <pt x="219" y="1198" on="1"/>
        <pt x="219" y="1209" on="0"/>
        <pt x="217" y="1220" on="1"/>
        <pt x="175" y="1221" on="0"/>
        <pt x="154" y="1238" on="1"/>
        <pt x="118" y="1266" on="0"/>
      </contour>
    </TTGlyph>
    <TTGlyph name="quotesinglbase" xMin="78" yMin="-216" xMax="261" yMax="180">
      <contour>
        <pt x="78" y="90" on="1"/>
        <pt x="78" y="91" on="0"/>
        <pt x="78" y="93" on="1"/>
        <pt x="79" y="131" on="0"/>
        <pt x="132" y="180" on="0"/>
        <pt x="201" y="180" on="0"/>
        <pt x="261" y="116" on="0"/>
        <pt x="261" y="42" on="1"/>
        <pt x="261" y="1" on="0"/>
        <pt x="231" y="-83" on="0"/>
        <pt x="194" y="-140" on="0"/>
        <pt x="145" y="-195" on="0"/>
        <pt x="126" y="-211" on="0"/>
        <pt x="120" y="-216" on="1"/>
        <pt x="97" y="-182" on="1"/>
        <pt x="123" y="-154" on="1"/>
        <pt x="146" y="-129" on="0"/>
        <pt x="165" y="-84" on="1"/>
        <pt x="179" y="-51" on="0"/>
        <pt x="179" y="-21" on="1"/>
        <pt x="179" y="-10" on="0"/>
        <pt x="177" y="0" on="1"/>
        <pt x="135" y="0" on="0"/>
        <pt x="112" y="18" on="1"/>
        <pt x="78" y="45" on="0"/>
      </contour>
    </TTGlyph>
    <TTGlyph name="quotesingle" xMin="100" yMin="1004" xMax="238" yMax="1400">
      <contour>
        <pt x="100" y="1400" on="1"/>
        <pt x="238" y="1400" on="1"/>
        <pt x="188" y="1004" on="1"/>
        <pt x="150" y="1004" on="1"/>
      </contour>
    </TTGlyph>
    <TTGlyph name="r" xMin="122" yMin="0" xMax="626" yMax="876">
      <contour>
        <pt x="156" y="0" on="1"/>
        <pt x="156" y="652" on="1"/>
        <pt x="156" y="738" on="0"/>
        <pt x="122" y="824" on="1"/>
        <pt x="220" y="864" on="1"/>
        <pt x="235" y="829" on="0"/>
        <pt x="256" y="724" on="1"/>
        <pt x="262" y="731" on="0"/>
        <pt x="286" y="755" on="0"/>
        <pt x="345" y="805" on="0"/>
        <pt x="407" y="845" on="0"/>
        <pt x="492" y="876" on="0"/>
        <pt x="530" y="876" on="1"/>
        <pt x="596" y="876" on="0"/>
        <pt x="626" y="854" on="1"/>
        <pt x="562" y="736" on="1"/>
        <pt x="552" y="744" on="1"/>
        <pt x="542" y="753" on="0"/>
        <pt x="495" y="770" on="0"/>
        <pt x="468" y="770" on="1"/>
        <pt x="385" y="770" on="0"/>
        <pt x="260" y="659" on="0"/>
        <pt x="260" y="582" on="1"/>
        <pt x="260" y="0" on="1"/>
      </contour>
    </TTGlyph>
    <TTGlyph name="registered" xMin="74" yMin="-4" xMax="1476" yMax="1398">
      <contour>
        <pt x="74" y="505" on="0"/>
        <pt x="74" y="887" on="0"/>
        <pt x="261" y="1210" on="0"/>
        <pt x="583" y="1398" on="0"/>
        <pt x="965" y="1398" on="0"/>
        <pt x="1288" y="1210" on="0"/>
        <pt x="1476" y="887" on="0"/>
        <pt x="1476" y="505" on="0"/>
        <pt x="1288" y="183" on="0"/>
        <pt x="965" y="-4" on="0"/>
        <pt x="583" y="-4" on="0"/>
        <pt x="261" y="183" on="0"/>
      </contour>
      <contour>
        <pt x="140" y="868" on="0"/>
        <pt x="140" y="524" on="0"/>
        <pt x="310" y="232" on="0"/>
        <pt x="602" y="62" on="0"/>
        <pt x="946" y="62" on="0"/>
        <pt x="1239" y="232" on="0"/>
        <pt x="1410" y="524" on="0"/>
        <pt x="1410" y="868" on="0"/>
        <pt x="1239" y="1161" on="0"/>
        <pt x="946" y="1332" on="0"/>
        <pt x="602" y="1332" on="0"/>
        <pt x="310" y="1161" on="0"/>
      </contour>
      <contour>
        <pt x="506" y="1124" on="1"/>
        <pt x="788" y="1124" on="1"/>
        <pt x="869" y="1124" on="0"/>
        <pt x="990" y="1084" on="0"/>
        <pt x="1057" y="1014" on="0"/>
        <pt x="1088" y="933" on="0"/>
        <pt x="1088" y="886" on="1"/>
        <pt x="1088" y="719" on="0"/>
        <pt x="916" y="664" on="1"/>
        <pt x="1154" y="270" on="1"/>
        <pt x="1050" y="270" on="1"/>
        <pt x="818" y="650" on="1"/>
        <pt x="588" y="650" on="1"/>
        <pt x="588" y="272" on="1"/>
        <pt x="506" y="272" on="1"/>
      </contour>
      <contour>
        <pt x="588" y="1042" on="1"/>
        <pt x="588" y="700" on="1"/>
        <pt x="796" y="700" on="1"/>
        <pt x="883" y="700" on="0"/>
        <pt x="998" y="778" on="0"/>
        <pt x="998" y="870" on="1"/>
        <pt x="998" y="955" on="0"/>
        <pt x="892" y="1042" on="0"/>
        <pt x="752" y="1042" on="1"/>
      </contour>
    </TTGlyph>
    <TTGlyph name="ring" xMin="278" yMin="990" xMax="592" yMax="1304">
      <contour>
        <pt x="278" y="1080" on="0"/>
        <pt x="278" y="1212" on="0"/>
        <pt x="368" y="1304" on="0"/>
        <pt x="500" y="1304" on="0"/>
        <pt x="592" y="1212" on="0"/>
        <pt x="592" y="1080" on="0"/>
        <pt x="500" y="990" on="0"/>
        <pt x="368" y="990" on="0"/>
      </contour>
      <contour>
        <pt x="320" y="1192" on="0"/>
        <pt x="320" y="1100" on="0"/>
        <pt x="387" y="1034" on="0"/>
        <pt x="481" y="1034" on="0"/>
        <pt x="550" y="1100" on="0"/>
        <pt x="550" y="1192" on="0"/>
        <pt x="481" y="1260" on="0"/>
        <pt x="434" y="1260" on="1"/>
        <pt x="388" y="1260" on="0"/>
      </contour>
    </TTGlyph>
    <TTGlyph name="s" xMin="62" yMin="-8" xMax="656" yMax="878">
      <contour>
        <pt x="62" y="116" on="1"/>
        <pt x="120" y="186" on="1"/>
        <pt x="124" y="182" on="0"/>
        <pt x="139" y="168" on="0"/>
        <pt x="191" y="133" on="0"/>
        <pt x="247" y="106" on="0"/>
        <pt x="334" y="84" on="0"/>
        <pt x="378" y="84" on="1"/>
        <pt x="465" y="84" on="0"/>
        <pt x="560" y="171" on="0"/>
        <pt x="560" y="228" on="1"/>
        <pt x="560" y="263" on="0"/>
        <pt x="510" y="323" on="0"/>
        <pt x="429" y="367" on="0"/>
        <pt x="332" y="410" on="0"/>
        <pt x="235" y="460" on="0"/>
        <pt x="154" y="520" on="0"/>
        <pt x="104" y="608" on="0"/>
        <pt x="104" y="662" on="1"/>
        <pt x="104" y="752" on="0"/>
        <pt x="242" y="878" on="0"/>
        <pt x="366" y="878" on="1"/>
        <pt x="431" y="878" on="0"/>
        <pt x="554" y="850" on="0"/>
        <pt x="583" y="836" on="1"/>
        <pt x="612" y="822" on="1"/>
        <pt x="612" y="630" on="1"/>
        <pt x="572" y="630" on="1"/>
        <pt x="571" y="638" on="0"/>
        <pt x="566" y="665" on="0"/>
        <pt x="537" y="735" on="0"/>
        <pt x="494" y="788" on="0"/>
        <pt x="409" y="832" on="0"/>
        <pt x="354" y="832" on="1"/>
        <pt x="284" y="832" on="0"/>
        <pt x="194" y="753" on="0"/>
        <pt x="194" y="684" on="1"/>
        <pt x="194" y="640" on="0"/>
        <pt x="245" y="568" on="0"/>
        <pt x="326" y="519" on="0"/>
        <pt x="425" y="473" on="0"/>
        <pt x="524" y="425" on="0"/>
        <pt x="605" y="370" on="0"/>
        <pt x="656" y="287" on="0"/>
        <pt x="656" y="236" on="1"/>
        <pt x="656" y="127" on="0"/>
        <pt x="494" y="-8" on="0"/>
        <pt x="378" y="-8" on="1"/>
        <pt x="319" y="-8" on="0"/>
        <pt x="210" y="18" on="0"/>
        <pt x="139" y="54" on="0"/>
        <pt x="86" y="90" on="0"/>
        <pt x="74" y="103" on="1"/>
      </contour>
    </TTGlyph>
    <TTGlyph name="section" xMin="92" yMin="-394" xMax="992" yMax="1400">
      <contour>
        <pt x="188" y="-280" on="1"/>
        <pt x="188" y="-280" on="0"/>
        <pt x="188" y="-116" on="1"/>
        <pt x="246" y="-116" on="1"/>
        <pt x="248" y="-128" on="1"/>
        <pt x="250" y="-140" on="0"/>
        <pt x="266" y="-180" on="0"/>
        <pt x="291" y="-227" on="0"/>
        <pt x="337" y="-274" on="0"/>
        <pt x="395" y="-314" on="0"/>
        <pt x="486" y="-338" on="0"/>
        <pt x="540" y="-338" on="1"/>
        <pt x="647" y="-338" on="0"/>
        <pt x="792" y="-214" on="0"/>
        <pt x="792" y="-102" on="1"/>
        <pt x="792" y="-54" on="0"/>
        <pt x="744" y="27" on="0"/>
        <pt x="663" y="87" on="0"/>
        <pt x="558" y="141" on="0"/>
        <pt x="442" y="190" on="0"/>
        <pt x="326" y="240" on="0"/>
        <pt x="221" y="301" on="0"/>
        <pt x="140" y="371" on="0"/>
        <pt x="92" y="467" on="0"/>
        <pt x="92" y="524" on="1"/>
        <pt x="92" y="579" on="0"/>
        <pt x="126" y="670" on="0"/>
        <pt x="179" y="730" on="0"/>
        <pt x="253" y="776" on="0"/>
        <pt x="322" y="801" on="0"/>
        <pt x="360" y="808" on="1"/>
        <pt x="272" y="858" on="0"/>
        <pt x="222" y="922" on="1"/>
        <pt x="172" y="985" on="0"/>
        <pt x="172" y="1074" on="1"/>
        <pt x="172" y="1217" on="0"/>
        <pt x="275" y="1308" on="1"/>
        <pt x="380" y="1400" on="0"/>
        <pt x="562" y="1400" on="1"/>
        <pt x="621" y="1400" on="0"/>
        <pt x="734" y="1375" on="0"/>
        <pt x="806" y="1345" on="0"/>
        <pt x="872" y="1306" on="0"/>
        <pt x="891" y="1291" on="0"/>
        <pt x="896" y="1286" on="1"/>
        <pt x="896" y="1122" on="1"/>
        <pt x="838" y="1122" on="1"/>
        <pt x="836" y="1134" on="1"/>
        <pt x="834" y="1146" on="0"/>
        <pt x="818" y="1186" on="0"/>
        <pt x="793" y="1233" on="0"/>
        <pt x="747" y="1280" on="0"/>
        <pt x="689" y="1320" on="0"/>
        <pt x="598" y="1344" on="0"/>
        <pt x="544" y="1344" on="1"/>
        <pt x="438" y="1344" on="0"/>
        <pt x="294" y="1220" on="0"/>
        <pt x="294" y="1108" on="1"/>
        <pt x="294" y="1048" on="0"/>
        <pt x="371" y="949" on="0"/>
        <pt x="494" y="880" on="0"/>
        <pt x="643" y="817" on="0"/>
        <pt x="792" y="749" on="0"/>
        <pt x="915" y="670" on="0"/>
        <pt x="992" y="554" on="0"/>
        <pt x="992" y="482" on="1"/>
        <pt x="992" y="427" on="0"/>
        <pt x="958" y="336" on="0"/>
        <pt x="905" y="276" on="0"/>
        <pt x="831" y="230" on="0"/>
        <pt x="762" y="206" on="0"/>
        <pt x="724" y="198" on="1"/>
        <pt x="813" y="148" on="0"/>
        <pt x="863" y="84" on="1"/>
        <pt x="914" y="21" on="0"/>
        <pt x="914" y="-68" on="1"/>
        <pt x="914" y="-211" on="0"/>
        <pt x="810" y="-302" on="1"/>
        <pt x="704" y="-394" on="0"/>
        <pt x="522" y="-394" on="1"/>
        <pt x="463" y="-394" on="0"/>
        <pt x="350" y="-369" on="0"/>
        <pt x="278" y="-339" on="0"/>
        <pt x="212" y="-300" on="0"/>
        <pt x="193" y="-285" on="0"/>
      </contour>
      <contour>
        <pt x="862" y="452" on="1"/>
        <pt x="862" y="465" on="0"/>
        <pt x="860" y="479" on="1"/>
        <pt x="846" y="572" on="0"/>
        <pt x="717" y="646" on="1"/>
        <pt x="682" y="666" on="0"/>
        <pt x="536" y="727" on="1"/>
        <pt x="515" y="736" on="1"/>
        <pt x="461" y="753" on="0"/>
        <pt x="438" y="753" on="1"/>
        <pt x="379" y="753" on="0"/>
        <pt x="328" y="732" on="1"/>
        <pt x="282" y="712" on="0"/>
        <pt x="222" y="620" on="0"/>
        <pt x="222" y="554" on="1"/>
        <pt x="222" y="524" on="0"/>
        <pt x="242" y="471" on="0"/>
        <pt x="269" y="430" on="0"/>
        <pt x="323" y="387" on="0"/>
        <pt x="365" y="359" on="0"/>
        <pt x="444" y="322" on="0"/>
        <pt x="468" y="312" on="1"/>
        <pt x="530" y="285" on="0"/>
        <pt x="537" y="283" on="1"/>
        <pt x="537" y="283" on="0"/>
        <pt x="554" y="276" on="1"/>
        <pt x="571" y="269" on="1"/>
        <pt x="606" y="255" on="0"/>
        <pt x="659" y="253" on="1"/>
        <pt x="703" y="253" on="0"/>
        <pt x="754" y="273" on="1"/>
        <pt x="802" y="292" on="0"/>
        <pt x="832" y="340" on="1"/>
        <pt x="862" y="386" on="0"/>
      </contour>
    </TTGlyph>
    <TTGlyph name="semicolon" xMin="172" yMin="-216" xMax="355" yMax="864">
      <contour>
        <pt x="172" y="736" on="0"/>
        <pt x="172" y="812" on="0"/>
        <pt x="224" y="864" on="0"/>
        <pt x="300" y="864" on="0"/>
        <pt x="352" y="812" on="0"/>
        <pt x="352" y="736" on="0"/>
        <pt x="300" y="684" on="0"/>
        <pt x="224" y="684" on="0"/>
      </contour>
      <contour>
        <pt x="172" y="90" on="1"/>
        <pt x="172" y="133" on="0"/>
        <pt x="231" y="180" on="0"/>
        <pt x="262" y="180" on="1"/>
        <pt x="295" y="180" on="0"/>
        <pt x="355" y="116" on="0"/>
        <pt x="355" y="42" on="1"/>
        <pt x="355" y="1" on="0"/>
        <pt x="325" y="-83" on="0"/>
        <pt x="288" y="-140" on="0"/>
        <pt x="239" y="-195" on="0"/>
        <pt x="220" y="-211" on="0"/>
        <pt x="214" y="-216" on="1"/>
        <pt x="190" y="-181" on="1"/>
        <pt x="217" y="-154" on="1"/>
        <pt x="238" y="-132" on="0"/>
        <pt x="259" y="-84" on="1"/>
        <pt x="273" y="-52" on="0"/>
        <pt x="273" y="-22" on="1"/>
        <pt x="273" y="-11" on="0"/>
        <pt x="271" y="0" on="1"/>
        <pt x="233" y="0" on="0"/>
        <pt x="206" y="18" on="1"/>
        <pt x="172" y="43" on="0"/>
      </contour>
    </TTGlyph>
    <TTGlyph name="seven" xMin="-2" yMin="0" xMax="768" yMax="1400">
      <contour>
        <pt x="-2" y="1400" on="1"/>
        <pt x="768" y="1400" on="1"/>
        <pt x="768" y="1332" on="1"/>
        <pt x="416" y="0" on="1"/>
        <pt x="312" y="0" on="1"/>
        <pt x="694" y="1290" on="1"/>
        <pt x="-2" y="1290" on="1"/>
      </contour>
    </TTGlyph>
    <TTGlyph name="six" xMin="150" yMin="-16" xMax="990" yMax="1422">
      <contour>
        <pt x="700" y="1422" on="1"/>
        <pt x="700" y="1422" on="0"/>
        <pt x="732" y="1374" on="1"/>
        <pt x="711" y="1358" on="1"/>
        <pt x="690" y="1341" on="0"/>
        <pt x="621" y="1274" on="0"/>
        <pt x="536" y="1185" on="0"/>
        <pt x="444" y="1060" on="0"/>
        <pt x="361" y="923" on="0"/>
        <pt x="293" y="750" on="0"/>
        <pt x="276" y="662" on="1"/>
        <pt x="302" y="680" on="1"/>
        <pt x="327" y="697" on="0"/>
        <pt x="416" y="748" on="0"/>
        <pt x="518" y="799" on="0"/>
        <pt x="636" y="834" on="0"/>
        <pt x="682" y="834" on="1"/>
        <pt x="743" y="834" on="0"/>
        <pt x="851" y="788" on="0"/>
        <pt x="939" y="697" on="0"/>
        <pt x="990" y="546" on="0"/>
        <pt x="990" y="450" on="1"/>
        <pt x="990" y="232" on="0"/>
        <pt x="764" y="-16" on="0"/>
        <pt x="596" y="-16" on="1"/>
        <pt x="515" y="-16" on="0"/>
        <pt x="361" y="48" on="0"/>
        <pt x="230" y="173" on="0"/>
        <pt x="150" y="386" on="0"/>
        <pt x="150" y="522" on="1"/>
        <pt x="150" y="627" on="0"/>
        <pt x="213" y="841" on="0"/>
        <pt x="304" y="1009" on="0"/>
        <pt x="431" y="1175" on="0"/>
        <pt x="535" y="1283" on="0"/>
        <pt x="649" y="1384" on="0"/>
        <pt x="689" y="1414" on="0"/>
      </contour>
      <contour>
        <pt x="268" y="598" on="1"/>
        <pt x="263" y="556" on="0"/>
        <pt x="263" y="516" on="1"/>
        <pt x="263" y="429" on="0"/>
        <pt x="286" y="351" on="1"/>
        <pt x="320" y="236" on="0"/>
        <pt x="402" y="162" on="1"/>
        <pt x="484" y="90" on="0"/>
        <pt x="594" y="90" on="1"/>
        <pt x="727" y="90" on="0"/>
        <pt x="876" y="278" on="0"/>
        <pt x="876" y="430" on="1"/>
        <pt x="876" y="575" on="0"/>
        <pt x="749" y="734" on="0"/>
        <pt x="626" y="734" on="1"/>
        <pt x="571" y="734" on="0"/>
        <pt x="454" y="705" on="0"/>
        <pt x="375" y="669" on="0"/>
        <pt x="298" y="622" on="0"/>
        <pt x="275" y="604" on="0"/>
      </contour>
    </TTGlyph>
    <TTGlyph name="slash" xMin="52" yMin="-406" xMax="996" yMax="1400">
      <contour>
        <pt x="896" y="1400" on="1"/>
        <pt x="996" y="1400" on="1"/>
        <pt x="152" y="-406" on="1"/>
        <pt x="52" y="-406" on="1"/>
      </contour>
    </TTGlyph>
    <TTGlyph name="sterling" xMin="142" yMin="0" xMax="1098" yMax="1404">
      <contour>
        <pt x="170" y="658" on="1"/>
        <pt x="170" y="762" on="1"/>
        <pt x="326" y="762" on="1"/>
        <pt x="326" y="994" on="1"/>
        <pt x="326" y="1175" on="0"/>
        <pt x="549" y="1404" on="0"/>
        <pt x="718" y="1404" on="1"/>
        <pt x="793" y="1404" on="0"/>
        <pt x="929" y="1376" on="0"/>
        <pt x="969" y="1360" on="0"/>
        <pt x="980" y="1354" on="1"/>
        <pt x="1002" y="1154" on="1"/>
        <pt x="954" y="1154" on="1"/>
        <pt x="947" y="1174" on="1"/>
        <pt x="940" y="1195" on="0"/>
        <pt x="902" y="1253" on="0"/>
        <pt x="849" y="1311" on="0"/>
        <pt x="757" y="1352" on="0"/>
        <pt x="702" y="1352" on="1"/>
        <pt x="592" y="1352" on="0"/>
        <pt x="446" y="1197" on="0"/>
        <pt x="446" y="1038" on="1"/>
        <pt x="446" y="762" on="1"/>
        <pt x="880" y="762" on="1"/>
        <pt x="880" y="658" on="1"/>
        <pt x="446" y="658" on="1"/>
        <pt x="446" y="570" on="1"/>
        <pt x="446" y="491" on="0"/>
        <pt x="426" y="363" on="0"/>
        <pt x="404" y="285" on="0"/>
        <pt x="350" y="198" on="0"/>
        <pt x="320" y="161" on="0"/>
        <pt x="284" y="120" on="1"/>
        <pt x="1098" y="120" on="1"/>
        <pt x="1098" y="0" on="1"/>
        <pt x="142" y="0" on="1"/>
        <pt x="142" y="52" on="1"/>
        <pt x="161" y="72" on="1"/>
        <pt x="180" y="93" on="0"/>
        <pt x="234" y="176" on="0"/>
        <pt x="288" y="279" on="0"/>
        <pt x="326" y="422" on="0"/>
        <pt x="326" y="494" on="1"/>
        <pt x="326" y="658" on="1"/>
      </contour>
    </TTGlyph>
    <TTGlyph name="t" xMin="48" yMin="-2" xMax="568" yMax="1086">
      <contour>
        <pt x="274" y="1086" on="1"/>
        <pt x="274" y="860" on="1"/>
        <pt x="538" y="860" on="1"/>
        <pt x="538" y="816" on="1"/>
        <pt x="274" y="816" on="1"/>
        <pt x="274" y="246" on="1"/>
        <pt x="274" y="221" on="0"/>
        <pt x="275" y="189" on="0"/>
        <pt x="280" y="144" on="0"/>
        <pt x="290" y="117" on="0"/>
        <pt x="307" y="89" on="0"/>
        <pt x="335" y="76" on="0"/>
        <pt x="354" y="76" on="1"/>
        <pt x="389" y="76" on="0"/>
        <pt x="494" y="123" on="0"/>
        <pt x="539" y="151" on="0"/>
        <pt x="552" y="160" on="1"/>
        <pt x="568" y="126" on="1"/>
        <pt x="528" y="94" on="1"/>
        <pt x="487" y="61" on="0"/>
        <pt x="426" y="30" on="1"/>
        <pt x="366" y="-2" on="0"/>
        <pt x="326" y="-2" on="1"/>
        <pt x="174" y="-2" on="0"/>
        <pt x="174" y="218" on="1"/>
        <pt x="174" y="816" on="1"/>
        <pt x="48" y="816" on="1"/>
        <pt x="48" y="860" on="1"/>
        <pt x="174" y="860" on="1"/>
        <pt x="174" y="1086" on="1"/>
      </contour>
    </TTGlyph>
    <TTGlyph name="thorn" xMin="86" yMin="-402" xMax="896" yMax="1398">
      <contour>
        <pt x="300" y="1398" on="1"/>
        <pt x="300" y="674" on="1"/>
        <pt x="304" y="682" on="0"/>
        <pt x="327" y="717" on="0"/>
        <pt x="382" y="781" on="0"/>
        <pt x="447" y="835" on="0"/>
        <pt x="540" y="876" on="0"/>
        <pt x="588" y="876" on="1"/>
        <pt x="736" y="876" on="0"/>
        <pt x="896" y="647" on="0"/>
        <pt x="896" y="448" on="1"/>
        <pt x="896" y="227" on="0"/>
        <pt x="703" y="-22" on="0"/>
        <pt x="550" y="-22" on="1"/>
        <pt x="482" y="-22" on="0"/>
        <pt x="346" y="43" on="0"/>
        <pt x="300" y="98" on="1"/>
        <pt x="300" y="-402" on="1"/>
        <pt x="204" y="-402" on="1"/>
        <pt x="204" y="1260" on="1"/>
        <pt x="204" y="1287" on="0"/>
        <pt x="200" y="1313" on="0"/>
        <pt x="179" y="1345" on="0"/>
        <pt x="129" y="1358" on="0"/>
        <pt x="86" y="1358" on="1"/>
        <pt x="86" y="1398" on="1"/>
      </contour>
      <contour>
        <pt x="570" y="800" on="1"/>
        <pt x="520" y="800" on="0"/>
        <pt x="417" y="744" on="0"/>
        <pt x="345" y="664" on="0"/>
        <pt x="300" y="580" on="0"/>
        <pt x="300" y="550" on="1"/>
        <pt x="300" y="238" on="1"/>
        <pt x="308" y="222" on="1"/>
        <pt x="317" y="205" on="0"/>
        <pt x="356" y="159" on="0"/>
        <pt x="410" y="113" on="0"/>
        <pt x="494" y="80" on="0"/>
        <pt x="542" y="80" on="1"/>
        <pt x="609" y="80" on="0"/>
        <pt x="710" y="142" on="0"/>
        <pt x="767" y="247" on="0"/>
        <pt x="794" y="366" on="0"/>
        <pt x="794" y="432" on="1"/>
        <pt x="794" y="624" on="0"/>
        <pt x="666" y="800" on="0"/>
      </contour>
    </TTGlyph>
    <TTGlyph name="three" xMin="132" yMin="-16" xMax="1116" yMax="1424">
      <contour>
        <pt x="294" y="1194" on="1"/>
        <pt x="299" y="1203" on="0"/>
        <pt x="320" y="1234" on="0"/>
        <pt x="393" y="1314" on="0"/>
        <pt x="476" y="1374" on="0"/>
        <pt x="610" y="1424" on="0"/>
        <pt x="682" y="1424" on="1"/>
        <pt x="810" y="1424" on="0"/>
        <pt x="950" y="1294" on="0"/>
        <pt x="950" y="1178" on="1"/>
        <pt x="950" y="1130" on="0"/>
        <pt x="911" y="1036" on="0"/>
        <pt x="858" y="965" on="0"/>
        <pt x="772" y="886" on="0"/>
        <pt x="711" y="841" on="0"/>
        <pt x="666" y="810" on="1"/>
        <pt x="761" y="805" on="0"/>
        <pt x="920" y="755" on="0"/>
        <pt x="1045" y="661" on="0"/>
        <pt x="1116" y="512" on="0"/>
        <pt x="1116" y="416" on="1"/>
        <pt x="1116" y="288" on="0"/>
        <pt x="980" y="88" on="0"/>
        <pt x="753" y="-16" on="0"/>
        <pt x="616" y="-16" on="1"/>
        <pt x="537" y="-16" on="0"/>
        <pt x="379" y="16" on="0"/>
        <pt x="267" y="62" on="0"/>
        <pt x="177" y="108" on="0"/>
        <pt x="154" y="124" on="1"/>
        <pt x="132" y="140" on="1"/>
        <pt x="190" y="236" on="1"/>
        <pt x="198" y="230" on="0"/>
        <pt x="225" y="211" on="0"/>
        <pt x="313" y="162" on="0"/>
        <pt x="404" y="125" on="0"/>
        <pt x="536" y="94" on="0"/>
        <pt x="598" y="94" on="1"/>
        <pt x="785" y="94" on="0"/>
        <pt x="1006" y="287" on="0"/>
        <pt x="1006" y="440" on="1"/>
        <pt x="1006" y="582" on="0"/>
        <pt x="823" y="744" on="0"/>
        <pt x="668" y="744" on="1"/>
        <pt x="625" y="744" on="0"/>
        <pt x="545" y="722" on="0"/>
        <pt x="526" y="711" on="1"/>
        <pt x="508" y="700" on="1"/>
        <pt x="496" y="762" on="1"/>
        <pt x="532" y="784" on="0"/>
        <pt x="555" y="798" on="0"/>
        <pt x="627" y="845" on="0"/>
        <pt x="656" y="869" on="0"/>
        <pt x="718" y="919" on="0"/>
        <pt x="747" y="955" on="0"/>
        <pt x="789" y="1010" on="0"/>
        <pt x="809" y="1059" on="0"/>
        <pt x="824" y="1120" on="0"/>
        <pt x="824" y="1152" on="1"/>
        <pt x="824" y="1237" on="0"/>
        <pt x="721" y="1334" on="0"/>
        <pt x="626" y="1334" on="1"/>
        <pt x="578" y="1334" on="0"/>
        <pt x="482" y="1300" on="0"/>
        <pt x="413" y="1251" on="0"/>
        <pt x="358" y="1202" on="0"/>
        <pt x="344" y="1185" on="1"/>
        <pt x="330" y="1168" on="1"/>
      </contour>
    </TTGlyph>
    <TTGlyph name="threequarters" xMin="78" yMin="-2" xMax="1284" yMax="1398">
      <contour>
        <pt x="240" y="-2" on="1"/>
        <pt x="1126" y="1398" on="1"/>
        <pt x="1228" y="1398" on="1"/>
        <pt x="342" y="-2" on="1"/>
      </contour>
      <contour>
        <pt x="1116" y="2" on="1"/>
        <pt x="1116" y="190" on="1"/>
        <pt x="800" y="190" on="1"/>
        <pt x="800" y="240" on="1"/>
        <pt x="1162" y="696" on="1"/>
        <pt x="1200" y="696" on="1"/>
        <pt x="1200" y="270" on="1"/>
        <pt x="1284" y="270" on="1"/>
        <pt x="1284" y="190" on="1"/>
        <pt x="1200" y="190" on="1"/>
        <pt x="1200" y="2" on="1"/>
      </contour>
      <contour>
        <pt x="150" y="1282" on="1"/>
        <pt x="153" y="1287" on="0"/>
        <pt x="164" y="1302" on="0"/>
        <pt x="201" y="1342" on="0"/>
        <pt x="241" y="1373" on="0"/>
        <pt x="305" y="1398" on="0"/>
        <pt x="338" y="1398" on="1"/>
        <pt x="405" y="1398" on="0"/>
        <pt x="478" y="1333" on="0"/>
        <pt x="478" y="1274" on="1"/>
        <pt x="478" y="1223" on="0"/>
        <pt x="405" y="1136" on="0"/>
        <pt x="358" y="1108" on="1"/>
        <pt x="446" y="1103" on="0"/>
        <pt x="566" y="1011" on="0"/>
        <pt x="566" y="922" on="1"/>
        <pt x="566" y="813" on="0"/>
        <pt x="427" y="696" on="0"/>
        <pt x="310" y="696" on="1"/>
        <pt x="254" y="696" on="0"/>
        <pt x="138" y="735" on="0"/>
        <pt x="108" y="754" on="1"/>
        <pt x="78" y="774" on="1"/>
        <pt x="122" y="846" on="1"/>
        <pt x="131" y="838" on="0"/>
        <pt x="164" y="815" on="0"/>
        <pt x="263" y="776" on="0"/>
        <pt x="312" y="776" on="1"/>
        <pt x="396" y="776" on="0"/>
        <pt x="484" y="860" on="0"/>
        <pt x="484" y="934" on="1"/>
        <pt x="484" y="996" on="0"/>
        <pt x="406" y="1070" on="0"/>
        <pt x="338" y="1070" on="1"/>
        <pt x="317" y="1070" on="0"/>
        <pt x="277" y="1059" on="0"/>
        <pt x="268" y="1054" on="1"/>
        <pt x="258" y="1048" on="1"/>
        <pt x="250" y="1078" on="1"/>
        <pt x="257" y="1082" on="0"/>
        <pt x="310" y="1115" on="0"/>
        <pt x="331" y="1129" on="0"/>
        <pt x="372" y="1163" on="0"/>
        <pt x="390" y="1191" on="0"/>
        <pt x="406" y="1233" on="0"/>
        <pt x="406" y="1256" on="1"/>
        <pt x="406" y="1298" on="0"/>
        <pt x="358" y="1342" on="0"/>
        <pt x="314" y="1342" on="1"/>
        <pt x="278" y="1342" on="0"/>
        <pt x="208" y="1302" on="0"/>
        <pt x="191" y="1282" on="1"/>
        <pt x="174" y="1262" on="1"/>
      </contour>
      <contour>
        <pt x="1116" y="580" on="1"/>
        <pt x="866" y="270" on="1"/>
        <pt x="1116" y="270" on="1"/>
      </contour>
    </TTGlyph>
</ttFont>
